<?xml version="1.0" encoding="UTF-8"?>
<svg id="Layer_1" data-name="Layer 1" xmlns="http://www.w3.org/2000/svg" xmlns:xlink="http://www.w3.org/1999/xlink" viewBox="0 0 116.67 34.19">
  <defs>
    <style>
      .cls-1 {
        fill: url(#linear-gradient);
      }

      .cls-2 {
        fill: #d9d9d9;
      }
    </style>
    <linearGradient id="linear-gradient" x1="58.33" y1="34.21" x2="58.33" y2=".82" gradientTransform="translate(0 35.01) scale(1 -1)" gradientUnits="userSpaceOnUse">
      <stop offset="0" stop-color="#00ffa3"/>
      <stop offset="1" stop-color="#dc1fff"/>
    </linearGradient>
  </defs>
  <path class="cls-2" d="m0,17.1C0,7.65,7.65,0,17.1,0h6.69s.1,0,.15.03l3.73,1.36c.07.03.15.03.23.02l1.62-.32s.06,0,.08,0h1.66c.05,0,.11-.01.16-.03L33.94.03c.05-.02.1-.03.16-.03h27s.06,0,.08,0l3.43.69c.06.01.12.01.18,0L67.86.01s.06-.01.09-.01h31.62c5.67,0,10.69,2.76,13.8,7,.08.11.1.26.06.39l-.18.51c-.08.22.04.47.26.54l.86.3c.1.03.18.1.23.2,1.32,2.42,2.06,5.2,2.06,8.15,0,9.44-7.65,17.1-17.1,17.1h-6.06c-.11,0-.22-.04-.3-.13l-1.71-1.71c-.17-.17-.44-.17-.6,0l-.82.82c-.17.17-.44.17-.6,0l-.11-.11c-.17-.17-.44-.17-.6,0l-1,1c-.08.08-.19.13-.3.13h-29.76l-10.01-.79c-.09,0-.17-.04-.24-.1l-1.27-1.05c-.14-.12-.34-.13-.49-.04l-1.45.87s-.1.05-.15.06l-6.65,1.05s-.04,0-.07,0h-20.27c-7.05,0-13.1-4.26-15.71-10.35-.04-.1-.04-.21,0-.31l.37-1.06c.08-.22-.04-.47-.26-.54l-.67-.23c-.13-.05-.23-.15-.27-.29-.36-1.38-.55-2.82-.55-4.31Z"/>
  <path class="cls-1" d="m0,17.1C0,7.65,7.65,0,17.1,0h6.69s.1,0,.15.03l3.73,1.36c.07.03.15.03.23.02l1.62-.32s.06,0,.08,0h1.66c.05,0,.11-.01.16-.03L33.94.03c.05-.02.1-.03.16-.03h27s.06,0,.08,0l3.43.69c.06.01.12.01.18,0L67.86.01s.06-.01.09-.01h31.62c5.67,0,10.69,2.76,13.8,7,.08.11.1.26.06.39l-.18.51c-.08.22.04.47.26.54l.86.3c.1.03.18.1.23.2,1.32,2.42,2.06,5.2,2.06,8.15,0,9.44-7.65,17.1-17.1,17.1h-6.06c-.11,0-.22-.04-.3-.13l-1.71-1.71c-.17-.17-.44-.17-.6,0l-.82.82c-.17.17-.44.17-.6,0l-.11-.11c-.17-.17-.44-.17-.6,0l-1,1c-.08.08-.19.13-.3.13h-29.76l-10.01-.79c-.09,0-.17-.04-.24-.1l-1.27-1.05c-.14-.12-.34-.13-.49-.04l-1.45.87s-.1.05-.15.06l-6.65,1.05s-.04,0-.07,0h-20.27c-7.05,0-13.1-4.26-15.71-10.35-.04-.1-.04-.21,0-.31l.37-1.06c.08-.22-.04-.47-.26-.54l-.67-.23c-.13-.05-.23-.15-.27-.29-.36-1.38-.55-2.82-.55-4.31Z"/>
</svg>