<svg width="18" height="18" viewBox="0 0 18 18" fill="none" xmlns="http://www.w3.org/2000/svg">
<path d="M6.10061 16C4.22315 16 2.47305 15.4682 1 14.5506C2.25067 14.6294 4.45781 14.4406 5.83065 13.1653C3.76545 13.073 2.83408 11.5304 2.7126 10.8712C2.88807 10.9371 3.72495 11.0162 4.19738 10.8316C1.82173 10.2515 1.45728 8.2211 1.53827 7.60142C1.9837 7.90467 2.73959 8.01014 3.03655 7.98377C0.822871 6.44118 1.61926 4.12069 2.0107 3.61968C3.59932 5.76316 5.98016 6.96702 8.92558 7.03398C8.87004 6.79677 8.84071 6.5498 8.84071 6.29615C8.84071 4.47574 10.3515 3 12.2152 3C13.189 3 14.0664 3.40286 14.6823 4.04726C15.333 3.89876 16.3123 3.55113 16.7911 3.25051C16.5498 4.09432 15.7985 4.79823 15.344 5.05913C15.3478 5.06801 15.3404 5.05022 15.344 5.05913C15.7432 5.00032 16.8233 4.79816 17.25 4.51623C17.039 4.99027 16.2425 5.77846 15.5889 6.21972C15.7105 11.4432 11.6069 16 6.10061 16Z" fill="white"/>
</svg>
