<svg width="18" height="18" viewBox="0 0 18 18" fill="none" xmlns="http://www.w3.org/2000/svg">
<path fill-rule="evenodd" clip-rule="evenodd" d="M2 8.72C2 6.36778 2 5.19167 2.45777 4.29324C2.86044 3.50296 3.50296 2.86044 4.29324 2.45777C5.19167 2 6.36778 2 8.72 2H9.28C11.6322 2 12.8083 2 13.7068 2.45777C14.497 2.86044 15.1396 3.50296 15.5422 4.29324C16 5.19167 16 6.36778 16 8.72V9.28C16 11.6322 16 12.8083 15.5422 13.7068C15.1396 14.497 14.497 15.1396 13.7068 15.5422C12.8083 16 11.6322 16 9.28 16H8.72C6.36778 16 5.19167 16 4.29324 15.5422C3.50296 15.1396 2.86044 14.497 2.45777 13.7068C2 12.8083 2 11.6322 2 9.28V8.72ZM14.1 5.05C14.1 5.6299 13.6299 6.1 13.05 6.1C12.4701 6.1 12 5.6299 12 5.05C12 4.4701 12.4701 4 13.05 4C13.6299 4 14.1 4.4701 14.1 5.05ZM12.5 9C12.5 10.933 10.933 12.5 9 12.5C7.067 12.5 5.5 10.933 5.5 9C5.5 7.067 7.067 5.5 9 5.5C10.933 5.5 12.5 7.067 12.5 9ZM11.1 9C11.1 10.1598 10.1598 11.1 9 11.1C7.8402 11.1 6.9 10.1598 6.9 9C6.9 7.8402 7.8402 6.9 9 6.9C10.1598 6.9 11.1 7.8402 11.1 9Z" fill="white"/>
</svg>
