<svg width="217" height="47" viewBox="0 0 217 47" fill="none" xmlns="http://www.w3.org/2000/svg">
<path d="M13.936 32.4885C13.8518 31.9918 13.7424 31.4446 13.6161 30.847C13.4814 30.2493 13.3468 29.6601 13.2036 29.0708C13.0774 28.4731 12.9511 27.9091 12.8333 27.3704C12.7238 26.8064 12.6397 26.3013 12.5976 25.872C12.4797 25.2912 12.505 24.8282 12.6733 24.4915C12.8417 24.1548 13.2289 23.8433 13.835 23.5571C14.702 23.1783 15.5607 22.8079 16.4109 22.4628C17.2863 22.1092 18.1534 21.7388 19.012 21.3685C19.6265 21.0991 20.081 21.1833 20.3841 21.621C20.7881 22.1345 21.1501 22.6396 21.4784 23.1446C21.8151 23.6244 22.1603 24.1127 22.5054 24.6093C22.8 25.0471 23.1367 25.5353 23.4903 26.0656C23.8438 26.596 24.2142 27.0505 24.6014 27.4377C24.4499 25.9815 24.2479 24.4831 24.0122 22.951C23.7849 21.3937 23.5997 19.8869 23.4566 18.4306C23.3977 18.0687 23.3724 17.7993 23.364 17.6225C23.3808 17.4457 23.4482 17.2942 23.566 17.1932C23.7007 17.0838 23.9028 16.9828 24.1637 16.8902C24.4331 16.7807 24.8035 16.6292 25.2749 16.444C25.8641 16.2083 26.445 15.981 27.0342 15.7537C27.615 15.5096 28.2043 15.2823 28.802 15.0803C29.1976 14.9456 29.5932 14.8278 29.9805 14.7268C30.3845 14.6005 30.7802 14.4658 31.1758 14.3395C31.664 14.2217 31.9587 14.3564 32.0681 14.7604C32.1186 14.954 32.1691 15.1561 32.2196 15.3665C32.2701 15.5601 32.3038 15.7706 32.3122 15.9894C32.5563 19.3398 32.8425 22.6732 33.1792 25.9815C33.516 29.2897 33.8779 32.6063 34.2736 35.9229C34.2736 36.024 34.2736 36.125 34.2988 36.226C34.3325 36.327 34.3577 36.4364 34.3662 36.5459C34.4082 36.9583 34.3409 37.2698 34.1894 37.4887C34.0463 37.6991 33.7685 37.8927 33.356 38.0779C32.9099 38.28 32.4469 38.4651 31.9923 38.6335C31.5378 38.8187 31.0664 39.0123 30.5781 39.2143C30.073 39.4248 29.5596 39.6436 29.0377 39.8625C28.5326 40.0814 28.0275 40.3002 27.5309 40.5444C27.0426 40.7548 26.6386 40.6875 26.3187 40.3423C25.5695 39.5342 24.8456 38.6588 24.1637 37.6991C23.4987 36.7395 22.7074 35.8135 21.7899 34.9296C22.0424 36.1587 22.2949 37.3203 22.5475 38.4315C22.8084 39.5174 22.9936 40.6201 23.1115 41.7313C23.1536 42.2279 22.9094 42.5983 22.3707 42.8509C20.3841 43.7852 18.4059 44.7533 16.4445 45.755C15.8132 46.0749 15.2829 46.0244 14.8536 45.6035C14.5842 45.3762 14.3232 45.1489 14.0707 44.9132C13.8266 44.6523 13.6077 44.3997 13.4057 44.1388C11.9662 42.4805 10.5268 40.8306 9.07048 39.2059C7.61419 37.5813 6.14948 35.9566 4.67635 34.3488C4.0871 33.6922 3.4726 33.0356 2.84126 32.4043C2.2015 31.7477 1.56174 31.0995 0.913567 30.4513C0.560016 30.1146 0.290645 29.7358 0.113869 29.3233C-0.138666 28.8688 0.0296908 28.4816 0.610523 28.1617C1.65434 27.5303 2.68974 26.9411 3.71672 26.3855C4.73528 25.8131 5.77067 25.2491 6.83133 24.6935C7.05861 24.5757 7.2438 24.4999 7.3869 24.4494C7.52159 24.3821 7.63944 24.3652 7.74887 24.3905C7.86672 24.3905 7.97615 24.4494 8.07717 24.5588C8.19502 24.643 8.31287 24.7693 8.44756 24.9461C9.51662 26.2424 10.5015 27.5051 11.4106 28.7425C12.3114 29.9631 13.1616 31.2174 13.9697 32.4969L13.936 32.4885ZM42.8261 19.3987C43.7352 19.2051 44.6191 18.9862 45.4946 18.7337C46.3785 18.4643 47.2539 18.2118 48.1294 17.9761C48.6176 17.8498 48.9543 17.8414 49.1479 17.934C49.3331 18.0097 49.5099 18.2454 49.6614 18.6327C49.8719 19.2219 50.0571 19.8196 50.2254 20.4004C50.4106 20.9812 50.6042 21.5789 50.7978 22.2018C50.9409 22.7237 50.7557 23.0941 50.2338 23.313C49.9645 23.4308 49.6951 23.5319 49.4426 23.6244C49.1816 23.7002 48.9122 23.7844 48.626 23.8686C47.9778 24.0958 47.3381 24.2979 46.6983 24.4831C46.0754 24.6514 45.4441 24.845 44.7875 25.0555C44.8548 25.2744 44.9306 25.5016 44.9979 25.7205C46.0249 25.468 47.0266 25.1986 48.0199 24.8955C49.0217 24.5757 50.0318 24.281 51.042 24.0117C51.4123 23.9022 51.7911 23.8096 52.1699 23.717C52.5487 23.6329 52.9191 23.5571 53.2895 23.4898C53.7693 23.414 54.1566 23.4477 54.4344 23.5992C54.7121 23.7507 54.9142 24.0285 55.0236 24.4494C55.4445 25.9562 55.8486 27.463 56.2274 28.9782C56.4378 29.8368 56.059 30.384 55.0994 30.6534C50.9662 31.7898 46.8667 33.0525 42.8009 34.4498C42.2116 34.6518 41.7318 34.6771 41.3614 34.5256C40.991 34.3741 40.6627 34.0373 40.3765 33.5323C40.1492 33.0609 39.922 32.5895 39.6947 32.1181C39.4842 31.6383 39.299 31.1416 39.1391 30.6281C38.3141 28.1953 37.4892 25.771 36.6558 23.3635C35.8393 20.9476 35.0228 18.5148 34.1978 16.0652C34.1726 15.981 34.1389 15.8968 34.1052 15.8127C34.0715 15.7117 34.0547 15.6022 34.0547 15.4844C33.8779 14.7268 33.9032 14.1375 34.1557 13.7082C34.4251 13.2705 34.9891 12.8833 35.8477 12.555C37.1272 12.1004 38.3899 11.6795 39.6357 11.3007C40.89 10.8966 42.1611 10.4926 43.4575 10.0801C44.0215 9.91175 44.5854 9.73497 45.1579 9.54136C45.7471 9.33091 46.3364 9.14572 46.9172 8.97736C47.3213 8.85951 47.7169 8.7585 48.0957 8.67432C48.4998 8.58173 48.9038 8.49755 49.291 8.4302C49.6193 8.36286 49.8719 8.3797 50.0571 8.50596C50.2591 8.6154 50.419 8.7585 50.5285 8.93528C50.6211 9.06154 50.6968 9.20465 50.7473 9.38142C50.8147 9.54978 50.882 9.70972 50.9409 9.86124C51.3029 11.2165 51.6649 12.5718 52.0268 13.9187C52.1531 14.4826 52.1363 14.9035 51.9595 15.1897C51.7827 15.476 51.3787 15.7117 50.7389 15.8884C48.3398 16.5282 45.9323 17.1848 43.4911 17.8582C43.146 17.9676 42.8009 18.0771 42.4473 18.1865C42.582 18.599 42.7083 19.0115 42.8429 19.4155L42.8261 19.3987ZM68.2565 18.9862C69.2666 18.7842 70.2768 18.599 71.2953 18.4138C71.7331 18.338 72.0529 18.3717 72.2634 18.5148C72.4823 18.6411 72.6506 18.902 72.76 19.3061C72.8358 19.4913 72.8863 19.6849 72.92 19.8785C72.9537 20.0721 72.9873 20.2573 73.021 20.4341C73.1641 21.2674 73.3072 22.0924 73.4503 22.9005C73.5934 23.7002 73.7113 24.5167 73.8207 25.3501C73.8965 25.7542 73.8544 26.0572 73.7197 26.2424C73.5766 26.4108 73.2988 26.537 72.8779 26.6128C70.6219 27.0253 68.3743 27.463 66.1436 27.9428C63.9297 28.4226 61.699 28.9193 59.4346 29.4496C59.342 29.4749 59.2662 29.5001 59.1989 29.5338C59.1484 29.5675 59.081 29.5927 58.9884 29.618C58.618 29.6769 58.3318 29.6516 58.1298 29.559C57.9446 29.458 57.8015 29.2392 57.6921 28.894C57.3974 27.9091 57.1112 26.9495 56.825 25.9983C56.5388 25.0302 56.261 24.0538 56.0001 23.0689C55.5455 21.4779 55.133 19.8869 54.7626 18.2959C54.3923 16.705 53.9966 15.0972 53.5757 13.4809C53.3821 12.7317 53.1633 11.991 52.936 11.2502C52.7003 10.5094 52.4646 9.77706 52.2289 9.03629C52.0689 8.5228 52.0689 8.144 52.2289 7.89988C52.3972 7.64734 52.7844 7.46215 53.3737 7.32746C54.6448 7.00758 55.9327 6.69612 57.2291 6.40992C58.5254 6.10687 59.8218 5.81225 61.1266 5.53446C61.7158 5.42503 62.1367 5.45028 62.3808 5.59338C62.6418 5.71965 62.827 6.04795 62.9364 6.57827C63.231 8.07665 63.5172 9.56662 63.8119 11.0482C64.0981 12.5129 64.3843 13.9776 64.6705 15.4339C64.7715 16.1073 64.9062 16.7891 65.0661 17.471C65.2261 18.1528 65.386 18.8347 65.5291 19.5249C66.4382 19.3313 67.3558 19.1461 68.2733 18.9694L68.2565 18.9862ZM73.2988 15.1645C73.1136 14.3227 73.021 13.4809 73.021 12.6391C73.0378 11.7973 73.1304 10.9556 73.2988 10.1054C73.4756 8.96895 73.8459 7.91671 74.4184 6.94866C74.9824 5.97219 75.7315 5.07989 76.6575 4.29703C77.8192 3.29531 79.1155 2.58821 80.5297 2.19257C81.9608 1.79693 83.375 1.66224 84.7639 1.80534C86.1529 1.94003 87.4661 2.33567 88.7035 2.98384C89.9409 3.63202 90.9763 4.48222 91.8097 5.53446C92.0538 5.8375 92.1632 6.12371 92.1211 6.4015C92.1043 6.67087 91.9612 6.95708 91.7002 7.24328C91.1026 7.86621 90.5217 8.47229 89.9493 9.06996C89.3769 9.65921 88.8129 10.2653 88.2573 10.8798C87.9627 11.1576 87.7354 11.3007 87.5502 11.3007C87.3735 11.2839 87.1798 11.1071 86.9862 10.762C86.5064 9.96225 85.7741 9.41509 84.7976 9.12889C84.2168 8.94369 83.7201 8.94369 83.316 9.12889C82.9288 9.29724 82.6258 9.57503 82.3901 9.94542C82.1712 10.3158 82.0197 10.7367 81.9103 11.1997C81.8092 11.6627 81.7503 12.0751 81.7419 12.4455C81.7251 12.9169 81.7587 13.3799 81.8597 13.8176C81.9523 14.2554 82.0534 14.7015 82.1544 15.1645C82.1628 15.2571 82.1796 15.3329 82.1881 15.4086C82.2133 15.4591 82.2386 15.5265 82.2722 15.6106C82.6089 16.545 83.1393 17.1006 83.8548 17.2858C84.5787 17.4542 85.3447 17.2269 86.1697 16.6124C86.3633 16.444 86.5485 16.2757 86.7253 16.0905C86.9189 15.9053 87.1125 15.7285 87.3145 15.5433C87.6176 15.2403 87.8701 15.0803 88.089 15.0551C88.3247 15.0298 88.6025 15.1645 88.9223 15.4591C89.5368 15.9979 90.1429 16.5619 90.7406 17.1595C91.3298 17.7404 91.9191 18.338 92.5083 18.961C92.8872 19.3482 93.0639 19.6849 93.0471 19.9711C93.0471 20.2405 92.8872 20.5856 92.5589 21.0065C91.7002 22.084 90.7153 22.9594 89.5958 23.6497C88.4846 24.3315 87.3145 24.8029 86.0939 25.0471C84.8734 25.3164 83.6359 25.3501 82.3648 25.1565C81.119 24.9629 79.9321 24.4915 78.7956 23.7591C77.3562 22.9173 76.2114 21.9072 75.3527 20.7034C74.5194 19.4913 73.9217 18.0939 73.5934 16.4861C73.5597 16.3851 73.5261 16.2757 73.5092 16.1746C73.4924 16.0484 73.4587 15.9221 73.4166 15.779C73.383 15.577 73.3493 15.3749 73.3156 15.1645H73.2988ZM112.459 20.7876C111.895 21.7136 111.196 22.3534 110.363 22.7069C109.521 23.0605 108.603 23.2709 107.602 23.3298C106.373 23.4308 105.144 23.4729 103.898 23.4477C102.652 23.4477 101.398 23.4898 100.135 23.5824C99.3352 23.6329 98.6113 23.515 97.9631 23.2036C97.3318 22.9005 96.7762 22.488 96.288 21.983C95.7997 21.4526 95.4041 20.8718 95.0926 20.2236C94.798 19.5755 94.6044 18.9357 94.5034 18.2959C94.1919 16.646 93.9815 15.0046 93.8636 13.3715C93.7458 11.7216 93.67 10.0633 93.6532 8.38811C93.6195 7.36113 93.7121 6.37624 93.931 5.42503C94.1751 4.47381 94.6465 3.55626 95.3788 2.68922C95.7408 2.23465 96.1954 1.87269 96.7341 1.61173C97.2813 1.35078 97.8537 1.14875 98.4682 1.00565C99.0827 0.854125 99.7056 0.744693 100.345 0.67735C100.985 0.618425 101.583 0.5595 102.138 0.508993C102.963 0.424814 103.78 0.391142 104.588 0.391142C105.396 0.374307 106.221 0.357471 107.071 0.349053C107.98 0.340635 108.822 0.458485 109.58 0.719439C110.346 0.971975 111.002 1.33394 111.55 1.80534C112.097 2.25991 112.534 2.82391 112.846 3.48892C113.166 4.13709 113.343 4.86103 113.385 5.65231C113.511 7.68101 113.578 9.65079 113.604 11.5532C113.629 13.4388 113.536 15.3834 113.343 17.3952C113.292 18.0266 113.208 18.6158 113.082 19.1714C112.955 19.727 112.753 20.2573 112.459 20.7792V20.7876ZM105.775 8.75008C105.682 8.11874 105.438 7.69785 105.034 7.47057C104.647 7.24328 104.226 7.18436 103.763 7.28537C103.325 7.36955 102.93 7.59683 102.576 7.96722C102.231 8.33761 102.063 8.79217 102.079 9.33091C102.13 10.1559 102.164 10.9808 102.189 11.8058C102.214 12.6139 102.256 13.4473 102.298 14.3059C102.324 15.1897 102.534 15.8211 102.913 16.1999C103.308 16.5619 103.729 16.7302 104.167 16.705C104.605 16.6797 105.009 16.4693 105.362 16.0905C105.741 15.6864 105.926 15.1477 105.918 14.4658C105.918 13.5483 105.91 12.597 105.876 11.6122C105.859 10.6273 105.825 9.67605 105.775 8.7585V8.75008ZM133.68 15.2066C133.251 16.242 132.822 17.2858 132.392 18.338C131.963 19.3903 131.534 20.4593 131.104 21.5284C131.003 21.7557 130.919 21.9325 130.852 22.0671C130.784 22.185 130.692 22.2776 130.599 22.3365C130.515 22.3786 130.389 22.4039 130.22 22.4039C130.069 22.4039 129.858 22.3954 129.597 22.3702C129.05 22.3197 128.512 22.2776 127.964 22.2439C127.426 22.1934 126.87 22.1345 126.314 22.0756C125.919 22.0419 125.649 21.9745 125.515 21.8735C125.389 21.7725 125.296 21.5368 125.229 21.1496C125.111 20.7034 125.01 20.2573 124.934 19.8027C124.875 19.3482 124.799 18.8936 124.724 18.439C124.597 17.8498 124.463 17.2774 124.328 16.705C124.193 16.141 124.067 15.5601 123.957 14.9793C123.907 14.7941 123.798 14.6342 123.612 14.4995C123.629 14.752 123.646 15.013 123.646 15.2823C123.663 15.5517 123.671 15.8211 123.646 16.0905C123.612 17.1679 123.57 18.237 123.511 19.2977C123.461 20.3583 123.393 21.419 123.326 22.4965C123.309 22.7658 123.276 22.9847 123.225 23.1615C123.175 23.3214 123.09 23.4393 122.981 23.5234C122.88 23.5908 122.737 23.6329 122.552 23.6581C122.383 23.6581 122.148 23.6581 121.853 23.6413C120.893 23.5487 119.925 23.4729 118.957 23.4308C118.006 23.3887 117.055 23.3467 116.087 23.313C115.792 23.3046 115.548 23.2877 115.363 23.2625C115.194 23.2204 115.06 23.153 114.95 23.0605C114.858 22.9679 114.799 22.8416 114.765 22.6816C114.732 22.5217 114.715 22.3028 114.723 22.0335C114.782 20.4004 114.849 18.7842 114.908 17.1848C114.984 15.5854 115.06 13.9692 115.127 12.3361C115.178 11.2754 115.203 10.2316 115.211 9.21306C115.237 8.16925 115.27 7.13385 115.296 6.09004C115.296 5.40819 115.279 4.72634 115.262 4.0445C115.262 3.34581 115.262 2.64713 115.287 1.94003C115.296 1.45179 115.413 1.13191 115.624 0.980393C115.834 0.820453 116.221 0.744693 116.777 0.744693C118.082 0.744693 119.361 0.778364 120.616 0.820453C121.895 0.845707 123.191 0.887796 124.488 0.938304C124.858 0.963557 125.153 1.00565 125.38 1.05615C125.624 1.08983 125.818 1.16559 125.953 1.28344C126.112 1.38445 126.239 1.52755 126.323 1.71275C126.432 1.89794 126.533 2.15889 126.634 2.49561C126.963 3.65727 127.266 4.8021 127.56 5.94693C127.855 7.09176 128.15 8.22817 128.453 9.373C128.495 9.54136 128.545 9.69288 128.587 9.8444C128.629 9.99593 128.697 10.1811 128.781 10.4C129.025 9.87808 129.252 9.40668 129.454 8.96895C129.673 8.53964 129.901 8.11032 130.119 7.68101C130.54 6.82239 130.961 5.96377 131.374 5.12198C131.786 4.2802 132.19 3.43841 132.586 2.58821C132.813 2.21782 133.015 1.98212 133.183 1.88952C133.36 1.79693 133.68 1.78009 134.16 1.8306C135.684 1.98212 137.199 2.15048 138.697 2.34409C140.221 2.5377 141.728 2.74814 143.226 2.95017C143.655 3.01752 143.975 3.14378 144.169 3.33739C144.396 3.51417 144.522 3.8088 144.564 4.22127C144.573 4.40646 144.581 4.59166 144.564 4.79369C144.556 4.97046 144.548 5.17249 144.531 5.39135C144.253 7.16752 143.975 8.91002 143.697 10.6357C143.428 12.3529 143.142 14.0954 142.847 15.8463C142.67 16.9659 142.468 18.0771 142.233 19.1882C142.022 20.2826 141.803 21.3853 141.568 22.4965C141.5 22.7911 141.458 23.1194 141.441 23.4561C141.425 23.7844 141.399 24.1127 141.34 24.4494C141.298 24.7524 141.231 24.9966 141.164 25.1818C141.113 25.3585 141.029 25.4848 140.903 25.5774C140.776 25.6532 140.616 25.6784 140.406 25.6616C140.212 25.6616 139.968 25.6447 139.648 25.6026C139.093 25.5185 138.537 25.4175 137.973 25.2996C137.418 25.207 136.879 25.1228 136.34 25.0471C136.029 24.9881 135.734 24.9461 135.456 24.9292C135.195 24.9124 134.909 24.8955 134.589 24.8703C134.21 24.8619 133.916 24.8366 133.697 24.7861C133.478 24.744 133.31 24.6683 133.192 24.5588C133.091 24.441 133.024 24.281 132.998 24.079C132.99 23.8601 132.998 23.5739 133.04 23.2204C133.133 22.0924 133.234 20.9728 133.343 19.8617C133.453 18.7505 133.562 17.6562 133.663 16.5619C133.672 16.3093 133.689 16.0736 133.714 15.8632C133.756 15.6359 133.798 15.4086 133.823 15.1982C133.79 15.1729 133.739 15.1645 133.68 15.1561V15.2066ZM152.031 13.2789C152.915 13.5483 153.79 13.784 154.666 13.986C155.567 14.1796 156.45 14.3816 157.326 14.5921C157.806 14.7183 158.109 14.8699 158.235 15.0466C158.361 15.2066 158.395 15.4928 158.344 15.9053C158.243 16.5282 158.117 17.1343 157.982 17.7319C157.865 18.3296 157.738 18.9441 157.612 19.5839C157.486 20.1058 157.149 20.3415 156.577 20.2826C156.282 20.2573 156.004 20.2152 155.735 20.1731C155.466 20.1142 155.196 20.0553 154.91 19.9879C154.237 19.8785 153.58 19.7438 152.94 19.5923C152.317 19.4408 151.669 19.3061 151.004 19.1714C150.962 19.3987 150.911 19.626 150.869 19.8617C151.88 20.1395 152.89 20.3836 153.891 20.594C154.918 20.796 155.937 21.0233 156.956 21.2759C157.334 21.36 157.705 21.4611 158.084 21.5705C158.454 21.6799 158.816 21.7894 159.169 21.9156C159.624 22.084 159.944 22.2944 160.121 22.5638C160.289 22.8248 160.331 23.1699 160.222 23.5908C159.86 25.1144 159.481 26.6296 159.085 28.1364C158.85 28.9866 158.26 29.2897 157.292 29.054C153.134 28.0522 148.959 27.1852 144.758 26.4444C144.152 26.335 143.723 26.1246 143.47 25.8131C143.218 25.5016 143.1 25.0471 143.1 24.4662C143.125 23.9443 143.159 23.4224 143.184 22.9005C143.234 22.3786 143.31 21.8567 143.411 21.3264C143.866 18.801 144.312 16.2757 144.75 13.7671C145.204 11.2586 145.667 8.73325 146.13 6.18263C146.147 6.09004 146.155 6.00586 146.172 5.91326C146.189 5.80383 146.223 5.70281 146.29 5.6018C146.501 4.85261 146.812 4.34754 147.233 4.095C147.671 3.84247 148.352 3.77512 149.253 3.90139C150.583 4.12026 151.88 4.36437 153.142 4.62533C154.422 4.87786 155.727 5.13882 157.057 5.39977C157.621 5.51762 158.21 5.63547 158.799 5.75332C159.414 5.85434 160.02 5.97219 160.609 6.10687C161.013 6.19947 161.409 6.30048 161.787 6.40992C162.191 6.52777 162.579 6.64562 162.949 6.77188C163.269 6.8729 163.479 7.00758 163.58 7.2012C163.707 7.39481 163.774 7.59683 163.782 7.80728C163.808 7.9588 163.799 8.12716 163.757 8.30394C163.732 8.48071 163.715 8.65749 163.698 8.81743C163.362 10.1811 163.025 11.5364 162.688 12.9001C162.528 13.4557 162.309 13.8176 162.015 13.986C161.72 14.1544 161.257 14.1628 160.609 14.0028C158.21 13.4052 155.785 12.8159 153.344 12.2267C152.991 12.1509 152.637 12.0836 152.284 12.0162C152.199 12.4371 152.115 12.858 152.031 13.2873V13.2789ZM188.977 26.596C188.405 28.1448 187.841 29.6853 187.285 31.2005C186.729 32.7157 186.149 34.2478 185.559 35.7883C185.265 36.5375 184.894 37.0004 184.457 37.1772C184.019 37.354 183.404 37.2866 182.613 36.9836C181.098 36.4028 179.608 35.7883 178.126 35.1485C177.967 35.0896 177.807 35.0222 177.655 34.9549C177.529 34.8707 177.386 34.7865 177.234 34.6939C176.965 34.5003 176.788 34.3151 176.712 34.1384C176.645 33.9447 176.653 33.7006 176.754 33.4144C176.822 33.1703 176.889 32.9262 176.973 32.6905C177.083 32.4464 177.175 32.2023 177.259 31.9581C178.438 28.5489 179.625 25.1397 180.803 21.7304C180.904 21.4442 181.005 21.1496 181.106 20.8634C180.483 20.6445 179.869 20.4341 179.246 20.2236C178.867 20.0974 178.472 19.9711 178.059 19.8532C177.68 19.727 177.276 19.5755 176.872 19.4071C176.376 19.1714 176.03 18.8936 175.837 18.5653C175.652 18.2202 175.618 17.7993 175.736 17.2858C175.946 16.4693 176.182 15.6611 176.434 14.853C176.687 14.0449 176.956 13.2368 177.234 12.4203C177.436 11.8479 177.722 11.4943 178.093 11.3596C178.488 11.2249 179.01 11.267 179.658 11.4943C182.26 12.3613 184.827 13.2621 187.361 14.2133C189.92 15.1477 192.47 16.1494 195.013 17.2269C195.282 17.3363 195.568 17.4457 195.871 17.5468C196.174 17.6478 196.461 17.7488 196.738 17.8498C197.235 18.0182 197.597 18.2539 197.807 18.5653C198.026 18.8684 198.06 19.2303 197.934 19.6428C197.883 19.929 197.782 20.2236 197.631 20.5098C197.496 20.7792 197.361 21.057 197.243 21.3432C196.982 21.9156 196.713 22.4796 196.461 23.0268C196.208 23.5655 195.939 24.0958 195.652 24.6178C195.391 25.0723 195.139 25.3249 194.895 25.3838C194.659 25.4175 194.255 25.3249 193.683 25.1144C193.11 24.8955 192.529 24.6851 191.932 24.4831C191.334 24.281 190.711 24.0706 190.055 23.8433C189.693 24.7609 189.331 25.6784 188.969 26.596H188.977ZM208.262 45.9065C207.32 46.4537 206.385 46.6894 205.459 46.6052C204.525 46.521 203.59 46.2601 202.648 45.8392C201.486 45.3425 200.341 44.7954 199.222 44.1809C198.085 43.5832 196.932 43.036 195.745 42.5226C194.996 42.1943 194.398 41.7397 193.952 41.1673C193.523 40.5949 193.203 39.9719 193.001 39.2985C192.807 38.5998 192.715 37.8927 192.74 37.1772C192.774 36.4701 192.891 35.8051 193.102 35.1906C193.59 33.5828 194.154 32.0255 194.802 30.5271C195.459 29.0119 196.166 27.5051 196.924 26.0151C197.37 25.0892 197.908 24.2558 198.548 23.5234C199.205 22.7911 200.063 22.2018 201.124 21.7725C201.663 21.5452 202.244 21.4358 202.85 21.4526C203.464 21.4779 204.079 21.5705 204.702 21.7388C205.333 21.8904 205.947 22.0924 206.554 22.3365C207.16 22.5806 207.732 22.8163 208.262 23.0352C209.054 23.3551 209.811 23.7086 210.544 24.0958C211.284 24.4662 212.042 24.845 212.816 25.2407C213.65 25.6616 214.357 26.1751 214.938 26.7643C215.519 27.3536 215.948 27.9849 216.234 28.6667C216.529 29.3318 216.663 30.0389 216.638 30.7796C216.63 31.5036 216.453 32.2359 216.133 32.9599C215.308 34.8202 214.458 36.5964 213.591 38.2968C212.732 39.9804 211.747 41.6639 210.645 43.3475C210.308 43.8778 209.954 44.3576 209.584 44.7954C209.214 45.2247 208.776 45.6035 208.271 45.9234L208.262 45.9065ZM207.749 32.0507C207.959 31.4531 207.934 30.9564 207.665 30.5608C207.421 30.1735 207.059 29.921 206.596 29.7947C206.158 29.6601 205.695 29.6769 205.207 29.8368C204.718 29.9968 204.357 30.3251 204.121 30.8133C203.784 31.5625 203.431 32.3117 203.077 33.0609C202.723 33.7932 202.37 34.5424 202.016 35.3337C201.638 36.125 201.528 36.7816 201.696 37.3035C201.89 37.817 202.185 38.1621 202.606 38.3473C203.018 38.5325 203.481 38.5409 203.986 38.3725C204.516 38.1958 204.937 37.8001 205.24 37.194C205.67 36.3859 206.099 35.5357 206.52 34.6434C206.966 33.7596 207.37 32.9009 207.749 32.0676V32.0507Z" fill="white"/>
</svg>
