<svg width="164" height="115" viewBox="0 0 164 115" fill="none" xmlns="http://www.w3.org/2000/svg">
<g clip-path="url(#clip0_2749_15620)">
<path d="M157.287 86.3648C157.612 86.2908 157.925 86.2556 158.225 86.2556C159.842 86.2556 161.039 87.3089 161.039 89.0069C161.039 91.015 159.359 93.1604 157.287 93.6395C156.46 93.8332 155.628 94.0058 154.8 94.1644C126.431 99.5649 98.0649 85.2269 69.6955 89.014C69.6567 89.021 69.618 89.0245 69.5757 89.0316C69.2798 89.0703 68.9803 89.1126 68.6844 89.1584C68.6668 89.1584 68.6457 89.1584 68.628 89.1655C67.6346 89.3169 66.6447 89.486 65.6512 89.6833C65.0347 89.8031 64.4323 89.8595 63.8581 89.8595C60.4973 89.8595 57.9961 87.8655 57.9961 84.4308C57.9961 80.4182 61.4238 75.9548 65.6512 75.134C66.6447 74.9402 67.6346 74.7676 68.628 74.6196C68.769 74.5985 68.9134 74.5774 69.0543 74.5562C69.2692 74.528 69.4841 74.4963 69.6955 74.4682C99.4353 70.4979 129.172 86.4458 158.915 78.6885C158.957 78.6779 159.003 78.6674 159.045 78.6568C159.426 78.5582 159.792 78.5089 160.141 78.5089C161.719 78.5089 162.871 79.5058 162.871 81.151C162.871 83.159 161.159 85.3784 159.045 85.9315C158.461 86.0865 157.872 86.2309 157.287 86.3648ZM151.158 87.478C150.781 87.5309 150.407 87.5767 150.03 87.6189C150.407 87.5767 150.781 87.5273 151.158 87.478ZM155.167 86.8192C154.86 86.8791 154.557 86.9355 154.254 86.9919C154.561 86.939 154.864 86.8791 155.167 86.8192ZM156.016 86.6466C155.787 86.6959 155.554 86.7417 155.325 86.7875C155.558 86.7453 155.787 86.6959 156.016 86.6466ZM144.32 88.0593C144.098 88.0663 143.88 88.0769 143.661 88.0804C143.883 88.0769 144.101 88.0663 144.32 88.0593ZM147.543 87.8655C147.276 87.8867 147.008 87.9078 146.737 87.9254C147.004 87.9078 147.276 87.8867 147.543 87.8655ZM148.766 87.7563C148.494 87.7845 148.223 87.8092 147.948 87.8303C148.22 87.8092 148.491 87.781 148.766 87.7563ZM152.993 87.2068C152.729 87.2526 152.465 87.2913 152.2 87.3301C152.465 87.2948 152.729 87.2526 152.993 87.2068Z" fill="#DA6260"/>
<path d="M108.805 39.7226C107.864 37.7815 106.212 36.2244 104.345 35.1323C103.559 34.6744 102.735 34.2868 101.886 33.9557L101.911 33.8888C101.093 32.3422 99.7055 31.1515 98.166 30.3272C97.7397 30.0982 97.3029 29.8974 96.8555 29.7177C99.9556 25.0817 104.31 21.2488 109.443 19.4134C110.556 19.0153 111.704 18.7124 112.884 18.5116C116.671 17.8704 120.561 18.3425 124.253 19.4733C125.281 19.7903 126.292 20.1567 127.282 20.5654C127.48 20.6429 127.673 20.7239 127.867 20.8084C132.574 22.8341 136.84 25.7369 141.074 28.6256L141.05 28.6996C142.064 29.0026 143.058 29.376 143.991 29.8762C145.534 30.7006 146.919 31.8913 147.736 33.4378L147.711 33.5048C148.564 33.8359 149.385 34.2234 150.17 34.6814C152.041 35.7735 153.69 37.3306 154.63 39.2717L154.489 39.7966C156.177 40.2334 157.917 40.8887 158.865 42.333C159.661 43.5519 159.71 45.2182 158.984 46.4794C158.262 47.7441 156.797 48.5438 155.345 48.4698L155.067 48.417C155.148 47.952 155.197 47.4764 155.211 46.9938C151.593 46.2751 147.961 45.7114 144.322 45.3451C138.235 44.7321 132.126 44.6722 125.996 45.3697C125.165 45.4648 124.337 45.5705 123.513 45.6868C119.803 46.2082 116.15 46.9374 112.518 47.7582C112.765 47.5116 112.983 47.2368 113.156 46.9303C113.881 45.6727 113.832 44.0029 113.036 42.784C112.092 41.3396 110.351 40.6843 108.664 40.2475L108.805 39.7226Z" fill="#8FBF52"/>
<path d="M96.8519 29.72C97.2993 29.8997 97.7361 30.1005 98.1624 30.3295C99.7019 31.1538 101.09 32.3445 101.907 33.8911L101.883 33.958C102.732 34.2891 103.556 34.6767 104.341 35.1346C106.209 36.2267 107.861 37.7838 108.801 39.7249L108.66 40.2498C110.348 40.6866 112.088 41.3419 113.032 42.7862C113.828 44.0051 113.878 45.675 113.152 46.9326C112.979 47.2391 112.761 47.5139 112.514 47.7605C111.722 48.5285 110.616 48.9759 109.513 48.9195L109.231 48.8702C109.256 48.7504 109.273 48.6271 109.291 48.5038C109.34 48.1551 109.369 47.8028 109.379 47.447C106.004 46.7741 102.622 46.2386 99.2298 45.8758C96.5067 45.5799 93.7764 45.3967 91.0392 45.3403C87.4248 45.2628 83.7998 45.4108 80.1642 45.8229C79.4385 45.904 78.7163 45.9956 77.9976 46.0942C68.9897 47.3272 60.3482 49.8038 51.453 51.8646C56.4237 55.8454 62.4478 58.3748 68.6586 59.7593C74.8729 61.1403 81.288 61.4115 87.6537 61.2002C92.3884 61.0452 97.257 60.5872 101.491 58.4594C102.724 57.8358 103.898 57.0432 104.944 56.1167C105.927 55.2501 106.793 54.2602 107.498 53.1822L107.533 53.2068C108.527 53.4534 109.263 54.2707 109.517 55.1937L109.703 55.1409C111.588 56.1731 113.233 57.6174 114.544 59.319C115.523 60.5872 116.316 61.9963 116.886 63.4935H116.89C121.913 64.2016 126.976 64.6842 132.056 64.5715C138.46 64.4271 144.932 63.2892 150.618 60.5872L151.269 60.6999C151.625 61.6335 151.319 62.7009 150.695 63.4971L151.026 63.5992C155.296 67.5025 158.047 72.7234 158.847 78.4515L158.907 78.6876C129.163 86.4449 99.4271 70.4969 69.6872 74.4672C69.4759 74.4954 69.261 74.5271 69.0461 74.5553C68.9052 74.5764 68.7607 74.5975 68.6198 74.6187C67.6264 74.7666 66.6365 74.9392 65.643 75.133C61.4156 75.9538 57.9879 80.4173 57.9879 84.4298C57.9879 87.8646 60.4891 89.8585 63.8499 89.8585C64.4241 89.8585 65.0265 89.8021 65.643 89.6824C66.6365 89.4851 67.6264 89.316 68.6198 89.1645C68.6374 89.161 68.6586 89.1574 68.6762 89.1574C68.9721 89.1117 69.2715 89.0694 69.5675 89.0306C69.6097 89.0236 69.6485 89.0201 69.6872 89.013C98.0567 85.226 126.423 99.5639 154.792 94.1634L154.813 94.2726C149.733 99.3173 143.773 102.749 137.139 105.345C134.733 106.289 132.274 107.138 129.773 107.899C127.046 108.73 124.27 109.456 121.462 110.083C114.075 111.735 106.462 112.701 98.8881 113.102C93.4559 113.395 88.0448 113.391 82.757 113.141C72.731 112.665 62.2399 111.475 52.9185 107.557C52.6155 107.43 52.3126 107.3 52.0131 107.163C45.5628 104.295 39.884 99.9902 36.5866 93.635C33.2822 87.2798 32.3204 79.8078 33.3139 72.7551C33.7401 69.7219 34.4694 66.8156 35.4452 64.0079C37.1009 59.2344 39.4824 54.7533 42.3253 50.4625C43.1884 49.1626 44.0902 47.8803 45.0308 46.6156L45.0766 46.6226C45.7319 42.434 46.8134 38.3404 48.596 34.4935C49.7233 32.0592 51.1782 29.7306 52.9079 27.6451C56.5646 23.2309 61.4473 19.9089 67.0521 18.9648C67.7074 18.852 68.3697 18.7745 69.032 18.7287C73.4567 18.4187 77.9448 19.4967 82.0383 21.2581C85.0398 22.5545 87.8651 24.2068 90.62 25.9858C92.1806 26.9898 93.713 28.0326 95.2455 29.0789L95.2208 29.1528C95.7739 29.3184 96.3199 29.5051 96.8519 29.72Z" fill="#8FBF52"/>
<path d="M155.436 55.2782C155.514 56.402 154.95 57.5047 154.126 58.3396C153.305 59.1745 152.241 59.784 151.163 60.3194C150.98 60.411 150.8 60.4991 150.617 60.5872C144.931 63.2892 138.46 64.4271 132.055 64.5715C126.975 64.6842 121.913 64.2016 116.889 63.4935H116.886C116.315 61.9963 115.522 60.5872 114.543 59.319C120.74 60.6893 127.137 60.9606 133.478 60.7492C138.216 60.5907 143.082 60.1363 147.32 58.0049C149.708 56.8072 151.868 54.9647 153.322 52.7383L153.358 52.7594C154.545 53.0483 155.359 54.1545 155.436 55.2782Z" fill="#8FBF52"/>
<path d="M155.21 46.9944C155.196 47.477 155.146 47.9526 155.065 48.4176C154.801 49.9606 154.185 51.4191 153.325 52.7366C151.87 54.9631 149.711 56.8055 147.322 58.0033C143.084 60.1346 138.219 60.589 133.481 60.7476C127.14 60.9589 120.742 60.6877 114.546 59.3173C113.235 57.6158 111.59 56.1714 109.705 55.1392L109.519 55.1921C109.265 54.2691 108.529 53.4518 107.535 53.2052L107.5 53.1805C108.36 51.8594 108.973 50.4045 109.233 48.8685L109.515 48.9179C110.618 48.9742 111.724 48.5268 112.517 47.7589C116.149 46.938 119.802 46.2088 123.511 45.6874L123.532 45.8389C123.363 48.1006 123.705 50.4186 124.684 52.4619C125.664 54.5051 127.305 56.256 129.363 57.2071C131.691 58.2851 134.415 58.2851 136.898 57.644C138.857 57.1402 140.759 56.2172 142.112 54.7129C144.229 52.3597 144.712 48.9108 144.275 45.7755L144.321 45.3457C147.96 45.7121 151.592 46.2757 155.21 46.9944Z" fill="#DFEDE9"/>
<path d="M144.276 45.7781C144.713 48.9135 144.23 52.3623 142.113 54.7156C140.76 56.2198 138.858 57.1428 136.899 57.6466C134.416 58.2877 131.693 58.2877 129.364 57.2098C127.307 56.2586 125.665 54.5077 124.686 52.4645C123.706 50.4212 123.365 48.1032 123.534 45.8415L123.512 45.6901C124.337 45.5738 125.165 45.4681 125.996 45.373C132.126 44.6755 138.234 44.7354 144.322 45.3483L144.276 45.7781Z" fill="#00030C"/>
<path d="M124.239 19.5119C124.239 19.5119 124.214 19.5013 124.204 19.4978C123.739 19.2829 123.207 19.1737 122.707 19.0469C121.632 18.7791 120.547 18.5678 119.448 18.4269C118.349 18.2859 117.257 18.219 116.154 18.2296C115.052 18.2402 113.966 18.3353 112.885 18.5185C111.705 18.7193 110.556 19.0222 109.443 19.4203L109.309 19.0398C108.879 17.4863 108.453 15.9292 108.023 14.3756L108.048 13.8965C108.58 13.9247 109.112 13.9528 109.644 13.9775C111.659 14.0761 113.685 14.1783 115.686 14.4425C117.003 14.6116 118.303 14.8512 119.585 15.2105C120.551 15.4818 121.498 15.8164 122.414 16.2321C122.612 16.3202 122.812 16.3449 123.006 16.447C123.246 16.5703 123.489 16.6971 123.725 16.8275C124.2 17.0882 124.665 17.3665 125.099 17.6871C125.909 18.2859 126.61 19.0293 127.156 19.8748C127.283 20.072 127.41 20.2975 127.374 20.53C126.867 20.368 126.36 20.2024 125.853 20.0403L125.025 19.7726C124.768 19.6916 124.482 19.6282 124.236 19.5225L124.239 19.5119Z" fill="#528FE8"/>
<path d="M101.98 7.82633C102.434 7.88974 102.889 7.9602 103.343 8.03066C108.036 8.76693 113.158 10.1549 115.726 14.1498L115.687 14.4387C113.686 14.1745 111.661 14.0723 109.646 13.9737C109.114 13.949 108.582 13.9209 108.05 13.8927C101.148 13.5545 94.2367 13.255 87.3389 13.4699C85.8065 13.5157 84.2776 13.5897 82.7451 13.6919C77.9646 14.016 73.1806 14.6466 68.5128 15.7281C64.0494 16.7638 59.7022 18.2117 55.577 20.1986C54.4356 20.7481 53.3118 21.34 52.2126 21.9776C48.0416 24.3802 44.2158 27.3922 41.01 30.9785C40.774 31.2462 40.5379 31.5139 40.3054 31.7887C39.0055 33.3176 37.7478 34.8923 36.617 36.5551C36.1802 37.1963 35.761 37.848 35.3664 38.5174C33.8727 41.0538 33.7776 42.8011 33.6261 45.6687C33.4359 49.2973 33.5627 52.9399 33.9995 56.5438L33.9009 56.5578C33.5345 58.6398 32.0267 60.359 30.3217 61.6131C28.6166 62.8673 26.6791 63.7691 24.9212 64.9493C23.1633 66.1294 21.5322 67.683 20.9016 69.7051C20.2569 71.7589 20.7325 73.9783 21.2116 76.0815C21.8211 78.7659 22.5362 81.098 23.1492 83.7859L22.9237 83.8916C22.2685 83.3315 21.5639 82.8735 20.7325 82.6833C19.4537 82.3909 18.1608 82.8101 16.8961 83.2469L16.8468 82.8277C16.572 81.0451 15.9379 79.4458 15.1136 77.8675C13.3134 74.4116 10.4951 71.3573 9.85747 67.5139C8.60686 59.975 15.5152 54.1271 17.2097 47.247C18.8724 40.4972 15.804 33.7122 16.8961 26.9413C17.569 22.7843 20.3661 16.7356 23.9524 14.1745C29.4163 10.2677 37.0715 8.13634 43.4302 6.20935C50.6908 4.00405 58.1522 2.46809 65.6946 1.6367C78.3698 0.238127 91.3444 0.667914 102.001 7.67133L101.98 7.82633Z" fill="url(#paint0_linear_2749_15620)"/>
<path d="M109.308 19.037L109.442 19.4175C104.309 21.2529 99.9548 25.0857 96.8547 29.7218C96.3227 29.5069 95.7767 29.3202 95.2236 29.1546L95.2482 29.0806C93.7158 28.0343 92.1834 26.9916 90.6228 25.9876L90.6368 25.9664C89.8724 21.7214 88.7627 17.5398 87.3359 13.4709C94.2337 13.256 101.145 13.5554 108.047 13.8936L108.022 14.3727C108.452 15.9263 108.878 17.4834 109.308 19.037Z" fill="#528FE8"/>
<path d="M109.387 47.4462C109.376 47.802 109.348 48.1543 109.299 48.503C109.281 48.6263 109.264 48.7496 109.239 48.8694C108.978 50.4054 108.365 51.8603 107.506 53.1814C106.801 54.2594 105.935 55.2493 104.952 56.1159C103.906 57.0424 102.732 57.8351 101.499 58.4586C97.265 60.5864 92.3964 61.0444 87.6617 61.1994C81.2959 61.4107 74.8808 61.1395 68.6665 59.7585C62.4557 58.3741 56.4317 55.8447 51.4609 51.8638C60.3561 49.803 68.9977 47.3264 78.0056 46.0934L78.0338 46.3083C77.4771 50.3103 79.4218 54.5518 82.8143 56.7395C86.2068 58.9307 90.871 58.9553 94.2846 56.8029C97.7018 54.6504 99.6922 50.43 99.1779 46.4246L99.2378 45.875C102.63 46.2379 106.012 46.7733 109.387 47.4462Z" fill="#DFEDE9"/>
<path d="M99.232 45.8756L99.1721 46.4251C99.6864 50.4306 97.696 54.651 94.2789 56.8034C90.8652 58.9559 86.201 58.9312 82.8085 56.74C79.416 54.5523 77.4714 50.3108 78.028 46.3089L77.9998 46.094C78.7185 45.9954 79.4407 45.9038 80.1664 45.8227C83.8019 45.4106 87.4269 45.2626 91.0414 45.3401C93.7786 45.3965 96.5088 45.5797 99.232 45.8756Z" fill="#00030C"/>
<path d="M90.6387 25.9662L90.6246 25.9874C87.8697 24.2083 85.0444 22.5561 82.043 21.2597C77.9494 19.4983 73.4613 18.4203 69.0366 18.7303L69.0049 18.2688C68.857 17.4973 68.709 16.7223 68.5646 15.9508L68.5117 15.7288C73.1795 14.6473 77.9635 14.0167 82.744 13.6926C84.2764 13.5905 85.8054 13.5165 87.3378 13.4707C88.7646 17.5396 89.8743 21.7212 90.6387 25.9662Z" fill="#528FE8"/>
<path d="M69.0043 18.2665L69.036 18.728C68.3737 18.7738 67.7115 18.8513 67.0562 18.9641C61.4514 19.9082 56.5687 23.2302 52.912 27.6443L52.6548 27.4259C52.5386 25.6645 52.4223 23.9031 52.3096 22.1417L52.2109 21.9761C53.3101 21.3385 54.4339 20.7466 55.5753 20.1971C59.7005 18.2102 64.0477 16.7623 68.5111 15.7266L68.564 15.9485C68.7084 16.72 68.8564 17.495 69.0043 18.2665Z" fill="#528FE8"/>
<path d="M52.6489 27.4264L52.9061 27.6448C51.1764 29.7303 49.7215 32.0589 48.5941 34.4932C46.8116 38.3402 45.7301 42.4337 45.0748 46.6224L45.029 46.6153C44.0884 47.88 43.1866 49.1624 42.3235 50.4623L42.1051 50.3178C40.8122 43.9697 40.4352 37.4313 41.0024 30.9774C44.2082 27.3912 48.034 24.3791 52.2051 21.9766L52.3037 22.1421C52.4164 23.9036 52.5327 25.665 52.6489 27.4264Z" fill="#528FE8"/>
<path d="M36.6118 36.5552C37.7427 34.8924 39.0003 33.3177 40.3003 31.7888C40.5328 31.514 40.7688 31.2463 41.0048 30.9785C40.4377 37.4324 40.8146 43.9708 42.1075 50.3189L42.3259 50.4634C39.483 54.7542 37.1015 59.2353 35.4458 64.0087L35.3542 63.977C34.7518 61.5286 34.3009 59.045 33.9944 56.5438C33.5575 52.9399 33.4307 49.2973 33.621 45.6688C33.7724 42.8012 33.8676 41.0539 35.3612 38.5174C35.7558 37.8481 36.175 37.1963 36.6118 36.5552Z" fill="#528FE8"/>
<path d="M31.6928 95.9608C32.0239 97.9054 33.3697 99.9874 32.9046 102.031C32.4396 104.074 30.3294 105.367 29.188 106.973C28.0044 108.643 27.4583 111.049 25.7533 112.124C24.0482 113.195 21.6421 112.645 19.627 112.99C17.6824 113.325 15.6039 114.671 13.5607 114.206C11.5174 113.741 10.2246 111.627 8.61462 110.485C6.94479 109.302 4.53869 108.756 3.46775 107.054C2.39328 105.349 2.94284 102.943 2.5976 100.928C2.26646 98.9834 0.92073 96.9049 1.38575 94.8582C1.85076 92.8149 3.96094 91.522 5.10235 89.9156C6.28602 88.2458 6.83206 85.8397 8.53712 84.7652C10.2422 83.6943 12.6483 84.2438 14.6633 83.8986C15.3926 83.7753 16.1359 83.5075 16.8933 83.2469C18.158 82.81 19.4509 82.3908 20.7297 82.6832C21.5611 82.8734 22.2656 83.3314 22.9209 83.8915C23.8756 84.7053 24.7211 85.7269 25.6758 86.4033C27.3456 87.587 29.7517 88.133 30.8226 89.8346C31.8971 91.5396 31.3475 93.9457 31.6928 95.9608Z" fill="#DFEDE9"/>
<g style="mix-blend-mode:color-burn">
<path d="M36.5873 36.7291C36.1857 34.3441 36.3266 23.7862 43.7563 18.1426C31.6095 22.6448 27.2483 34.2561 25.8321 38.8111C24.9619 41.6082 25.0148 44.5956 24.6096 47.4984C24.1376 50.8839 23.0208 54.1742 21.3616 57.1581C19.7023 60.1419 17.3596 62.1394 15.6616 64.8942C14.6048 66.6557 14.2525 68.4171 14.6048 70.1785C15.6229 74.7547 17.7401 78.5981 18.4411 82.7656C19.2021 82.5825 19.963 82.505 20.7239 82.6776C21.277 82.8044 21.7738 83.051 22.2352 83.3645C20.0018 77.6646 16.3063 71.1966 20.2413 65.9511C24.0918 60.998 30.0912 58.4122 33.7092 53.6564C33.5083 50.9966 33.4766 48.3263 33.6176 45.663C33.762 42.9434 33.8571 41.2313 35.1394 38.8992" fill="#E2C7C7"/>
<path d="M49.8828 14.9128C51.4892 12.3129 53.7861 11.2138 56.6819 10.1675C59.5777 9.12123 63.0442 8.13131 65.9716 9.08953C60.5782 10.5022 55.2939 12.3165 50.1787 14.5182" fill="#E2C7C7"/>
<path d="M99.0539 7.2011C91.8849 5.40797 84.3742 4.99932 77.0537 6.01038C75.3698 6.24288 73.5802 6.60574 72.3789 7.81055C80.4145 6.86643 88.5276 6.59517 96.6055 7.00382C97.4017 7.04257 98.2612 7.10598 99.0539 7.20462V7.2011Z" fill="#E2C7C7"/>
<path d="M42.8589 23.5172C43.6727 22.0481 44.8494 20.6672 46.3325 19.6596C46.5967 19.48 46.9701 19.3038 47.2977 19.3144C47.5373 19.3214 47.7169 19.4764 47.9354 19.5575C51.895 21.0335 56.3374 18.5041 59.9166 17.0281C66.2823 14.4036 73.2576 13.2657 80.1306 13.7272C79.4824 13.6849 78.7356 13.8751 78.0909 13.9561C77.3828 14.0442 76.6783 14.1429 75.9737 14.2485C74.5646 14.4634 73.1625 14.7136 71.7674 15.0024C68.9773 15.5802 66.2189 16.3024 63.5028 17.169C58.976 18.6133 54.6112 20.3043 50.7818 23.1825C50.197 23.6228 49.6263 24.0808 49.0134 24.4824C48.7139 24.6762 48.4074 24.8558 48.0869 25.0108C47.8156 25.1412 47.5338 25.194 47.2731 25.342C45.332 26.4376 43.6058 27.815 42.1896 29.3862C41.8373 29.7772 41.5203 30.1859 41.1926 30.5945C40.7734 31.1159 40.6607 30.8094 40.71 30.3057C40.8192 29.2242 41.1468 28.1109 41.4428 27.0611C41.788 25.8458 42.2319 24.648 42.8589 23.5172Z" fill="#E2C7C7"/>
<path d="M38.474 52.3161C38.2485 52.4253 37.9949 52.4429 37.7025 52.295C37.1987 52.0413 37.019 51.4213 36.9169 50.8647C36.3955 48.057 36.3885 45.0978 36.3039 42.2443C36.2863 41.6912 35.6487 41.6524 35.5712 42.1985C35.1907 44.8864 35.1766 50.3503 35.2294 53.0735C35.2576 54.6271 35.4021 56.1806 35.7226 57.6743C35.8812 58.4141 36.1489 59.1011 36.318 59.8303C36.3638 60.017 36.3497 60.2883 36.4977 60.4045C36.7443 60.5948 36.9803 60.2671 37.1001 60.0382C37.9878 58.3578 38.8721 56.6774 39.7598 54.997C40.5102 53.5737 41.2641 52.147 42.0144 50.7238C42.2152 50.3433 42.3738 50.1777 42.335 49.6951C42.2575 48.7334 41.4226 48.8989 41.0386 49.2653C40.5384 49.7374 40.0839 50.2587 39.6823 50.8154C39.3723 51.2451 39.0094 52.0519 38.4775 52.3161H38.474Z" fill="#E2C7C7"/>
<path d="M45.5216 46.3434C45.3384 46.8824 44.8171 48.0625 44.2182 48.2211C43.2177 48.4853 42.9323 46.4737 43.0521 45.8431C43.2177 44.973 43.0169 43.9655 42.9641 43.0812C42.9253 42.4401 42.8619 41.9081 42.6787 41.3022C42.4779 40.6364 42.5237 39.8332 42.4885 39.1392C42.4074 37.5891 42.3863 36.032 42.4251 34.4784C42.4356 34.0768 42.4497 33.6682 42.5484 33.2736C42.6047 33.0587 42.8795 32.178 43.0944 32.7382C43.2001 33.0129 43.6757 37.2439 43.7567 37.5363C43.8835 38.0048 44.0103 38.4734 44.1407 38.9384C44.1865 39.1004 44.2358 39.266 44.3309 39.4069C44.426 39.5478 44.581 39.657 44.7501 39.6535C45.0284 39.6535 45.2116 39.3752 45.3349 39.1251C46.2826 37.2474 46.6419 35.1231 47.7903 33.3335C48.5971 32.0794 51.2956 28.0633 52.2115 26.8867C52.7047 28.1831 51.211 28.9476 50.6579 30.0502C49.0198 33.3124 46.5116 40.0762 46.0148 43.6942C45.8915 44.582 45.8035 45.4838 45.5181 46.3293L45.5216 46.3434Z" fill="#E2C7C7"/>
<path d="M68.4838 17.7047C68.8572 18.0041 68.6635 18.6594 68.2548 18.913C67.8462 19.1667 67.3389 19.1561 66.8598 19.1949C65.736 19.2829 64.658 19.6775 63.6223 20.1249C63.5871 20.139 63.5553 20.1531 63.5201 20.1672C61.8291 20.9034 60.2051 21.7912 58.6727 22.8163C57.9047 23.3272 57.1614 23.8732 56.4462 24.4545C56.0869 24.7433 55.7346 25.0393 55.3894 25.3457C55.1076 25.5923 54.861 25.9763 54.5087 26.1172C54.3572 26.1771 54.1846 26.1947 54.0366 26.1278C53.8393 26.0397 53.7301 25.8178 53.7231 25.6029C53.716 25.388 53.7971 25.1802 53.8992 24.9899C54.2515 24.3276 54.8222 24.0176 55.3753 23.5597C55.9742 23.0629 56.5942 22.5909 57.2354 22.147C59.3772 20.6639 61.7411 19.4943 64.2212 18.6911C65.6127 18.2402 67.0394 17.909 68.4873 17.7012L68.4838 17.7047Z" fill="#E2C7C7"/>
<path d="M86.1849 21.7353C86.0898 21.6965 85.9982 21.6578 85.9031 21.619C85.1527 21.3161 84.3918 21.0519 83.6168 20.8264C82.9721 20.6362 82.4718 20.4107 81.8765 20.1289C80.4145 19.4349 78.5826 19.1495 77.0009 18.8642C75.2606 18.5471 73.397 18.2512 71.625 18.3181C72.1076 18.8113 73.1821 18.6739 73.8268 18.7796C76.5746 19.2235 79.2696 19.9774 81.8483 21.0237C83.9373 21.8692 85.8115 23.2818 87.7244 24.4726C87.7244 24.6593 89.2533 25.4237 89.4612 25.5505L91.3424 26.7201C92.4873 27.4317 93.6357 28.1046 94.8088 28.7493C95.3866 29.0663 96.0595 29.3482 96.6865 29.1509C97.0846 29.0276 97.3981 28.7281 97.6976 28.4358C99.998 26.2023 102.302 23.9723 104.602 21.7388C101.499 22.5984 98.9693 25.2617 95.753 25.4449C94.3544 25.5259 92.9699 25.1137 91.6946 24.5324C90.4194 23.9512 89.2287 23.2114 87.9816 22.5702C87.3933 22.2672 86.7944 21.9889 86.1814 21.7353H86.1849Z" fill="#E2C7C7"/>
<path d="M108.743 39.9432L108.803 39.7248C108.088 38.2452 106.954 36.9911 105.633 35.9941C106.496 37.287 107.317 38.6046 108.152 39.8798C108.349 39.901 108.546 39.9221 108.743 39.9432Z" fill="#E2C7C7"/>
<path d="M97.0155 29.343C98.4493 27.0038 100.042 24.5237 102.575 23.4598C104.854 22.5016 107.531 22.9032 109.747 24.0024C111.963 25.1015 113.791 26.8382 115.514 28.6102C113.869 29.2796 112.227 29.9524 110.582 30.6218L111.41 30.3646C110.86 31.0727 111.53 32.1824 112.396 32.4114C113.263 32.6404 114.165 32.3022 115.014 32.0133C118.526 30.8155 122.299 30.3857 125.987 30.7627C122.489 30.9564 119.026 31.7526 115.796 33.1054C114.809 33.5176 113.819 34.0002 113.094 34.7893C112.368 35.5784 111.963 36.7339 112.319 37.7414C112.879 39.3197 114.929 39.7777 116.588 39.5487C118.248 39.3197 119.907 38.6644 121.549 38.985C120.411 39.4641 119.273 39.9432 118.135 40.4188C116.881 42.2859 117.223 45.0549 118.892 46.5591C116.271 46.4922 113.679 48.0986 112.572 50.4765C111.466 52.8545 111.896 55.87 113.629 57.8358C112.572 56.9973 111.512 56.1554 110.455 55.3169C109.754 54.7603 109.043 54.1931 108.539 53.4498C108.035 52.7065 108.158 52.0301 108.433 51.1776C109.007 49.4091 110.533 48.627 112.34 47.549C113.996 46.5627 113.897 43.7867 112.629 42.3388C111.861 41.4616 110.737 40.993 109.832 40.2603C108.775 39.4007 108.053 38.2065 107.161 37.1778C105.928 35.751 103.737 35.0148 102.198 33.9227C101.338 33.3097 101.113 32.3268 100.253 31.7174C99.0658 30.8754 97.8786 30.0299 96.6914 29.188C96.8781 29.0048 97.0648 28.8251 97.2551 28.6419" fill="#E2C7C7"/>
<path d="M104.813 61.0327C104.788 61.0468 104.764 61.0574 104.739 61.0715C104.612 60.9658 104.422 60.9305 104.267 61.0715C103.967 61.3427 103.65 61.5858 103.319 61.8042C102.519 62.2093 101.713 62.5933 100.881 62.9245C100.821 62.7237 100.607 62.5651 100.374 62.699C99.1094 63.4282 97.6263 63.6713 96.2206 63.9989C95.8331 64.0905 95.4456 64.1821 95.0616 64.2702C93.6877 64.4992 92.3068 64.6965 90.9258 64.8585C89.8267 64.9325 88.7311 65.0065 87.632 65.0769C86.3391 65.1333 85.0427 65.1685 83.7498 65.1897C82.4534 65.0945 81.1605 64.9466 79.8782 64.7317C79.5435 64.6753 79.3533 65.0488 79.473 65.2672C78.1943 65.2002 76.9155 65.0981 75.6402 64.9395C72.7691 64.5873 69.9297 63.9778 67.1713 63.1077C66.738 62.9703 66.5512 63.6502 66.9846 63.7876C73.0861 65.711 79.4836 66.2888 85.8564 65.9858C90.6757 66.1021 95.509 65.4433 100.117 63.9989C101.029 63.7136 101.935 63.4001 102.822 63.0513C103.633 62.7342 104.408 62.3679 105.07 61.7936C105.126 61.7478 105.151 61.695 105.169 61.6386C105.169 61.6386 105.169 61.6386 105.172 61.6386C105.574 61.4273 105.218 60.8213 104.816 61.0292L104.813 61.0327Z" fill="#E2C7C7"/>
<path d="M60.9434 61.9526C60.1931 61.9597 59.4533 61.8364 58.7487 61.5862C58.4105 61.4665 58.0864 61.3115 57.7764 61.1353C57.6073 61.0402 57.4452 60.9345 57.2832 60.8218C57.2163 60.776 56.9838 60.6245 57.0014 60.547C57.1 60.1066 56.4201 59.9164 56.3215 60.3603C56.2052 60.8781 56.5998 61.2093 56.9873 61.4735C57.3748 61.7377 57.7905 61.9561 58.2203 62.1358C59.0798 62.4951 60.0099 62.6713 60.9434 62.6607C61.3979 62.6572 61.3979 61.9526 60.9434 61.9561V61.9526Z" fill="#E2C7C7"/>
<path d="M106.299 62.0169C106.25 61.9605 106.19 61.9147 106.112 61.883C104.967 61.4286 105.739 63.7572 105.556 63.7537C105.552 63.7537 105.545 63.7537 105.542 63.7537C105.45 63.7572 105.355 63.7889 105.292 63.8558C105.26 63.8911 105.235 63.9298 105.214 63.9721C105.027 63.9051 104.781 63.965 104.739 64.194C104.686 64.497 104.552 64.7682 104.372 65.0113C104.337 64.7718 104.013 64.5745 103.766 64.7859C102.896 65.5292 101.91 66.1104 100.849 66.5156C100.765 66.4416 100.648 66.3993 100.532 66.4381C100.215 66.5402 99.8946 66.6318 99.567 66.7023C99.4084 66.7375 99.2464 66.7692 99.0843 66.7974C99.0174 66.808 98.9505 66.8185 98.88 66.8291C98.8272 66.8185 98.7708 66.815 98.7144 66.8291C98.6581 66.8432 98.5982 66.8608 98.5418 66.8749C98.3727 66.9172 98.267 67.0933 98.2882 67.2624C98.2952 67.3188 98.3234 67.3716 98.3586 67.4209C97.64 67.5372 96.9178 67.6323 96.1956 67.7169C95.1916 67.812 94.1911 67.9036 93.1871 67.9776C93.0955 67.9811 93.0004 67.9846 92.9088 67.9881C91.327 68.0515 89.7453 68.1114 88.167 68.1748C88.0085 68.1819 87.9063 68.2735 87.8605 68.3862C87.1736 68.3862 86.4831 68.3756 85.7926 68.3369C85.3382 68.3122 85.3417 69.0168 85.7926 69.0415C87.6069 69.1436 89.3824 69.1612 91.1685 68.897C93.1272 68.6081 95.0859 68.3193 97.0481 68.0304C98.9328 67.7521 100.839 67.4667 102.593 66.734C104.044 66.1245 106.045 64.9726 106.401 63.2992C106.472 62.9751 106.553 62.334 106.292 62.0275L106.299 62.0169Z" fill="#E2C7C7"/>
<path d="M50.8941 86.1815C50.5101 86.5444 50.2177 87.0799 50.1473 87.4392C49.647 89.9933 51.6692 93.0476 53.7793 94.2594C54.9489 94.9323 58.0737 96.1477 59.3313 95.2388C60.1839 94.6223 59.585 94.277 58.9051 94.0938C58.042 93.8613 57.1577 93.657 56.4426 93.0828C55.3082 92.1704 54.4663 90.8845 53.5398 89.7537C53.0395 89.1442 52.7965 88.3481 52.6344 87.5872C52.5322 87.1116 52.5921 86.1956 52.113 85.9068C51.6973 85.6531 51.257 85.8398 50.8977 86.178L50.8941 86.1815Z" fill="#E2C7C7"/>
<path d="M59.7883 77.9068C58.0023 79.8268 56.9489 82.4125 56.8855 85.0335C56.8397 86.9605 57.3717 88.9897 58.7561 90.3284C60.0032 91.5332 61.7893 92.037 63.5226 92.0898C65.2558 92.1426 66.9714 91.7904 68.6765 91.5015C83.4196 89.0003 98.5115 91.047 113.321 93.0973C98.0323 88.2147 82.0175 87.1473 66.14 89.497C64.6358 89.7189 62.6665 89.7013 61.2292 89.2011C59.0803 88.4507 57.7698 86.0693 57.8473 83.797C57.9248 81.5248 59.1859 79.4146 60.8522 77.8681C62.353 76.4766 64.1954 75.4127 66.0555 74.5742C63.667 75.004 61.4511 76.1172 59.7848 77.9068H59.7883Z" fill="#E2C7C7"/>
<path d="M130.098 68.5737C130.757 68.7252 131.447 68.7675 132.131 68.8062C136.087 69.0352 140.198 69.2431 143.89 68.0524C145.609 67.4957 147.187 66.6467 148.491 65.5723C144.471 66.7806 140.173 67.2597 135.9 67.4499C134.635 67.5063 133.367 67.538 132.099 67.5556C131.465 67.5662 130.831 67.5732 130.197 67.5768C129.83 67.5768 129.041 67.4816 128.9 67.8938C128.759 68.306 129.763 68.4962 130.098 68.5737Z" fill="#E2C7C7"/>
<path d="M117.67 65.131C121.306 65.2966 124.942 65.4622 128.577 65.6242C130.983 65.7335 133.396 65.8427 135.792 65.6348C138.187 65.427 140.587 64.895 142.718 63.7853C134.221 65.043 125.516 64.9549 117.047 63.5176" fill="#E2C7C7"/>
<path d="M59.7415 51.3704C59.4632 52.237 59.5619 53.1812 59.7873 54.0619C60.1044 55.2878 60.6645 56.4468 61.4325 57.4544C59.5971 56.9013 57.8357 56.1016 56.2081 55.087C55.0209 54.3472 53.9077 53.4912 52.805 52.6316C52.5091 52.3991 52.178 52.0574 52.3119 51.7086C52.414 51.4338 52.7452 51.3352 53.0305 51.2682C54.8095 50.8666 56.5851 50.4686 58.3641 50.067C58.741 49.9824 60.4743 49.3448 60.7279 49.7217C60.9041 49.9789 60.4637 50.1867 60.3052 50.3699C60.0515 50.6588 59.8613 51.004 59.7451 51.3704H59.7415Z" fill="#E2C7C7"/>
<path d="M150.655 60.5948L150.62 60.5879C150.62 60.5879 150.592 60.5983 150.578 60.6053C150.602 60.6018 150.627 60.5983 150.655 60.5914V60.5948Z" fill="#E2C7C7"/>
<path d="M131.771 106.899C124.383 108.551 116.77 109.517 109.196 109.918C103.764 110.211 98.353 110.207 93.0652 109.957C83.0392 109.481 72.5482 108.291 63.2267 104.373C62.9238 104.246 62.6208 104.116 62.3214 103.979C54.9657 100.604 48.6844 95.1786 45.5667 87.5728C44.2914 84.4586 43.5516 81.1401 43.2275 77.7969C42.9915 75.3908 42.9809 72.8861 43.9039 70.6561C45.0488 67.8977 47.3915 66.2772 50.09 65.238C51.1011 64.8505 52.475 64.5229 53.1479 63.5822C53.8207 62.6417 53.3134 61.0247 52.8308 60.0911C52.2777 59.0131 51.4604 58.1007 50.7136 57.1425C49.6426 55.7686 48.695 54.2397 48.3779 52.5276C48.0609 50.8155 48.4871 48.8885 49.8012 47.7435C50.6924 46.9685 51.8832 46.6268 52.866 45.968C53.9969 45.2106 54.8036 44.0093 55.1348 42.6953C55.2898 42.0859 55.2193 41.4306 55.4201 40.8423C55.6209 40.254 55.9767 39.6516 56.2163 39.0527C57.2308 36.5092 57.7381 33.8177 58.9042 31.3024C60.0315 28.8681 61.4864 26.5395 63.2162 24.454C65.0974 22.1818 67.3062 20.2019 69.7722 18.6836C69.5256 18.6906 69.279 18.7047 69.0359 18.7223C68.3736 18.7681 67.7113 18.8456 67.0561 18.9584C61.4512 19.9025 56.5685 23.2245 52.9118 27.6387C51.1821 29.7242 49.7272 32.0528 48.5999 34.4871C46.8173 38.334 45.7358 42.4276 45.0805 46.6162L45.0348 46.6092C44.0942 47.8739 43.1923 49.1562 42.3292 50.4561C39.4863 54.747 37.1048 59.228 35.4491 64.0015C34.4733 66.8092 33.744 69.7155 33.3178 72.7487C32.3243 79.8014 33.2861 87.2734 36.5905 93.6286C39.8879 99.9838 45.5667 104.289 52.017 107.156C52.3165 107.294 52.6194 107.424 52.9224 107.551C62.2439 111.468 72.7349 112.659 82.7609 113.135C88.0487 113.385 93.4598 113.388 98.892 113.096C106.466 112.694 114.079 111.729 121.466 110.077C124.274 109.45 127.05 108.724 129.777 107.893C131.63 107.329 133.458 106.716 135.258 106.054C134.103 106.35 132.94 106.631 131.771 106.892V106.899Z" fill="#E2C7C7"/>
</g>
<path d="M37.8956 7.90196C36.652 8.22254 35.419 8.70165 34.2107 9.13496C33.5907 9.3569 32.9707 9.58588 32.3577 9.82896C31.7447 10.072 31.1353 10.2623 30.5786 10.5582C30.0397 10.8435 29.5007 11.1289 28.9652 11.4213C28.3205 11.77 27.6793 12.1223 27.0347 12.4781C27.2813 12.2703 27.5279 12.066 27.7815 11.8652C26.4217 12.5627 25.1323 13.3271 23.9451 14.1761C22.8671 14.9441 21.8596 16.0327 20.9613 17.2868C20.6337 17.7694 20.3166 18.2591 20.0172 18.7594C19.9995 18.777 19.9819 18.7981 19.9643 18.8157C19.922 18.858 19.8833 18.9003 19.8375 18.9355C19.6578 19.087 19.5944 19.2667 19.6085 19.4393C19.605 19.4498 19.6085 19.4569 19.6085 19.4639C19.2879 20.0417 18.9885 20.6335 18.7243 21.243C18.0373 22.8283 17.5688 24.4875 17.294 26.1926C16.8114 29.2011 16.8501 32.2378 17.0298 35.2674C17.0826 36.1869 17.1496 37.1063 17.22 38.0258C17.2271 38.128 17.2552 38.216 17.294 38.2971C17.2658 39.2553 17.2552 40.2135 17.2834 41.1717C17.3151 42.2391 17.4314 43.303 17.4525 44.374C17.4807 45.5471 17.3116 46.699 17.0439 47.8334C17.0439 47.8405 17.0404 47.8475 17.0404 47.8545C16.9276 48.3266 16.7973 48.7951 16.6599 49.2602C16.6 49.2954 16.5472 49.3412 16.5049 49.4011C16.445 49.475 16.4027 49.5702 16.3781 49.6829C16.3745 49.704 16.371 49.7252 16.364 49.7463C16.1843 50.6482 15.987 51.5782 15.5784 52.4096C15.1415 53.2973 14.4546 54.0407 13.9156 54.8685C13.3555 55.7281 12.8623 56.6264 12.3796 57.5283C12.3338 57.5107 12.2845 57.493 12.2352 57.4825C11.6539 58.564 11.122 59.6525 10.6957 60.7658C10.1814 62.7491 9.76215 64.7607 10.0193 66.7757C10.3082 69.0233 11.0727 71.4294 12.436 73.3106C12.4818 73.4586 12.5382 73.6065 12.6051 73.7475C12.8834 74.3886 13.2956 74.9699 13.6443 75.5758C14.0953 76.3473 14.5427 77.1223 14.9619 77.915C15.4445 78.8274 15.8496 79.7786 16.1808 80.7579C16.3499 81.2546 16.5049 81.7549 16.6282 82.2657C16.7162 82.625 16.7339 83.0654 17.065 83.2979C17.2552 83.4317 17.5195 83.4529 17.7344 83.3542C17.6111 83.4106 17.4913 82.6743 17.4842 82.6144C17.4173 82.0649 17.3292 81.5188 17.2165 80.9763C16.755 78.7252 15.8849 76.6221 14.7752 74.6141C14.1164 73.4198 13.3801 72.2679 12.8869 70.9891C12.6368 70.3268 12.4325 69.6504 12.2211 68.9775C12.0379 68.4033 11.8336 67.8361 11.6751 67.2513C11.284 65.8211 11.4919 64.3978 11.6504 62.9535C11.8019 61.5514 12.4747 60.2796 13.1406 59.0607C13.6479 58.1307 14.1657 57.2006 14.7258 56.3023C15.2613 55.4428 15.8602 54.6219 16.3428 53.7342C17.84 50.9864 18.8898 47.689 18.8617 44.536C18.8617 42.5315 18.7172 40.5165 18.6432 38.512C18.5059 34.9187 18.1007 31.3676 18.4882 27.7673C18.6644 26.1292 19.0061 24.5016 19.5521 22.948C20.0277 21.5988 20.7182 20.3376 21.5179 19.1574C21.8843 18.6149 22.3352 18.09 22.7755 17.6039C23.2511 17.079 23.7584 16.5822 24.2868 16.1102C25.3472 15.1625 26.4992 14.3206 27.697 13.5561C27.8062 13.4857 27.9119 13.4187 28.0211 13.3518C29.3351 12.5345 30.6984 11.8017 32.0794 11.1077C32.7699 10.759 33.4674 10.4208 34.1614 10.0826C34.8202 9.76202 35.4437 9.37803 36.1025 9.04688C36.3174 8.93768 36.5323 8.83199 36.7471 8.72278C37.0325 8.58187 37.3108 8.45857 37.6032 8.34232C37.804 8.26129 37.9731 8.14151 37.8921 7.89844L37.8956 7.90196Z" fill="#F9F398"/>
<path d="M43.4147 18.5603C40.7091 20.8044 38.5672 23.8939 37.5597 27.2688C37.2638 28.2552 37.0806 29.2874 36.8446 30.2914C36.7565 30.6683 36.6649 31.0453 36.6191 31.4328C36.5099 32.3417 36.6473 33.2682 36.531 34.1736C36.5064 34.3744 36.4676 34.5752 36.4923 34.7724C36.5169 34.9697 36.6191 35.174 36.7988 35.2621C37.0313 35.3713 37.3201 35.2551 37.4787 35.0543C37.6372 34.8535 37.6936 34.5928 37.7253 34.3391C37.8556 33.3563 37.7358 32.3699 37.6759 31.387C37.6161 30.4041 37.69 29.534 37.9085 28.5863C38.5989 25.6166 40.149 22.8723 42.2239 20.6494C42.7524 20.0857 43.3125 19.5537 43.9079 19.0605C44.2566 18.7717 43.7564 18.275 43.4111 18.5638L43.4147 18.5603Z" fill="#F9F398"/>
<path d="M35.3523 40.4314C36.0146 38.7933 36.8424 37.5779 37.7372 36.056C37.8711 35.8271 38.1706 35.5171 37.9803 35.3303C37.8077 35.1612 37.5118 35.2564 37.3145 35.4008C37.0679 35.5769 36.8601 35.8059 36.6663 36.042C35.6834 37.2503 35.0035 38.6841 34.5455 40.1743C33.9044 42.2527 33.5204 44.5532 33.5274 46.7303C33.531 48.157 33.7318 49.5873 33.8656 51.007L34.306 55.6501C34.2391 55.7065 34.1968 55.791 34.2073 55.9108C34.2989 56.9289 34.535 57.9259 34.7604 58.9193C34.9929 59.9445 35.229 60.9661 35.4615 61.9912C35.5636 62.4316 36.2436 62.2449 36.1414 61.8045C35.6764 59.7718 35.2501 57.7286 34.9507 55.6642C34.6477 53.5681 34.468 51.4509 34.4293 49.3301C34.3905 47.3221 34.4187 45.2471 34.69 43.2532C34.8133 42.3549 35.0282 41.2241 35.3523 40.4244V40.4314Z" fill="#F9F398"/>
<path d="M48.1289 24.2961C46.688 25.5573 45.2824 26.8572 43.9155 28.1959C43.2568 28.8406 42.5945 29.4888 41.9639 30.1652C41.6997 30.4505 41.439 30.7429 41.203 31.0565C41.062 31.0917 40.9387 31.1974 40.9282 31.3806C40.9282 31.4087 40.9282 31.4334 40.9246 31.4616C40.7661 31.7152 40.6252 31.9794 40.5195 32.2613C40.4244 32.5184 40.6358 32.684 40.8507 32.684C40.6992 35.3402 40.5865 38 40.7168 40.6597C40.7873 42.09 40.9881 43.4921 41.2452 44.8977C41.5165 46.3949 41.7948 47.8921 41.7983 49.4175C41.7983 49.872 42.5029 49.872 42.5029 49.4175C42.4994 47.1171 41.9427 44.866 41.675 42.5903C41.5059 41.1388 41.4989 39.698 41.4989 38.236C41.52 37.2919 41.5376 36.3231 41.5447 35.3649C41.5517 34.4067 41.513 33.452 41.5658 32.5079C41.5729 32.3564 41.5834 32.2049 41.594 32.0534C41.5975 31.9689 41.5693 31.7364 41.6151 31.6694C41.9287 31.215 42.3232 30.8028 42.6966 30.4153C43.3272 29.7601 43.9719 29.1224 44.6236 28.4883C45.9236 27.2236 47.2587 25.9906 48.6221 24.7964C48.9638 24.4969 48.4635 24.0002 48.1253 24.2996L48.1289 24.2961Z" fill="#F9F398"/>
<path d="M62.8603 17.0142C61.726 17.4862 60.5916 17.9583 59.4573 18.4303C59.3657 18.3881 59.26 18.3775 59.1473 18.4303C59.0768 18.4656 59.0099 18.5008 58.9394 18.536C58.8373 18.4374 58.6858 18.3845 58.5237 18.4585C57.6959 18.8425 56.9208 19.3251 56.1493 19.8043C55.0889 20.2481 54.018 20.7272 53.1232 21.4389C52.6652 21.6678 52.2495 21.9602 51.9818 22.4112C51.8585 22.619 51.9712 22.8092 52.1403 22.8938C52.172 22.9361 52.2108 22.9713 52.2495 22.9959C52.2425 24.2924 52.3517 25.5852 52.4433 26.8746C52.475 27.3009 53.1056 27.322 53.1408 26.931C53.2324 26.8676 53.2993 26.7619 53.2888 26.6491C53.1479 25.2224 53.0105 23.7815 53.1796 22.3513C54.7754 21.4353 56.4135 20.5969 58.0552 19.769C59.718 19.0785 61.3807 18.3845 63.0435 17.6941C63.4557 17.5214 63.276 16.8415 62.8568 17.0142H62.8603Z" fill="#F9F398"/>
<path d="M76.6988 13.9988C76.424 14.041 76.1492 14.0798 75.8744 14.1221C75.804 14.0763 75.7124 14.0587 75.6032 14.0939C75.4165 14.1503 75.2298 14.2031 75.0431 14.2559C74.8916 14.2841 74.7436 14.3088 74.5921 14.3405C74.3455 14.3933 74.0989 14.4497 73.8559 14.5096C73.8136 14.3334 73.6586 14.182 73.4331 14.2418C72.637 14.4497 71.8408 14.654 71.0446 14.8689C70.3189 15.0627 69.6249 15.3973 68.8851 15.5383C68.7477 15.5664 68.6738 15.6475 68.6491 15.7461C68.6209 15.7602 68.5892 15.7708 68.561 15.7849C68.2475 15.9293 68.3814 16.3133 68.642 16.4084C68.6808 17.0777 68.7724 17.7471 68.9133 18.4058C68.9521 18.5926 69.1705 18.7018 69.3466 18.6524C69.5404 18.5996 69.632 18.4058 69.5932 18.2191C69.4523 17.5568 69.3713 16.8945 69.3396 16.2217C69.3537 16.2146 69.3713 16.2111 69.3854 16.2041C69.3959 16.2041 73.2887 15.4819 75.184 14.9499C75.7511 14.8478 76.3218 14.7668 76.889 14.6787C77.3364 14.6117 77.1462 13.9318 76.7023 13.9988H76.6988Z" fill="#F9F398"/>
<path d="M65.3716 9.06112C64.5684 9.31476 63.7652 9.56136 62.962 9.81501C62.9584 9.81501 62.9549 9.81501 62.9479 9.81501C62.895 9.79739 62.8387 9.78682 62.7717 9.79739C62.1799 9.88899 61.6198 10.0898 61.0631 10.3082C59.1679 10.7944 57.3395 11.58 55.5323 12.3233C55.4759 12.3479 55.416 12.3726 55.3597 12.3937C54.8171 12.5523 54.2711 12.6967 53.711 12.8341C52.4604 13.1406 51.3929 13.7747 50.3326 14.4793C50.2304 14.5215 50.1282 14.5638 50.0261 14.6061C49.6139 14.7787 49.7936 15.4586 50.2128 15.286C50.2868 15.2543 50.3607 15.2226 50.4347 15.1944C50.4911 15.1944 50.5545 15.1768 50.6144 15.1345C50.6179 15.1345 50.625 15.1275 50.6285 15.1239C50.6285 15.1239 50.632 15.1239 50.6355 15.1239C50.8786 15.0112 51.1287 14.909 51.3718 14.8034C51.9214 14.5744 52.4745 14.3454 53.024 14.1164C54.3134 13.6091 55.6204 13.1406 56.9414 12.6967C57.5121 12.5029 58.0546 12.2528 58.6042 12.0097C59.6294 11.6328 60.6615 11.284 61.7008 10.9494C61.9685 10.8719 62.2327 10.7944 62.5005 10.7169C62.962 10.583 63.427 10.4562 63.885 10.3153C64.2795 10.2166 64.6705 10.1074 65.051 9.95944C65.1144 9.93478 65.1602 9.89603 65.1954 9.85376C65.3152 9.81501 65.435 9.77978 65.5548 9.74103C65.9846 9.60716 65.8014 8.92373 65.3681 9.06112H65.3716Z" fill="#F9F398"/>
<path d="M21.7148 112.851C22.4687 112.84 23.2226 112.837 23.9378 112.734C23.1839 112.745 22.43 112.748 21.7148 112.851Z" fill="#F9F398"/>
<path d="M16.557 83.7864C17.2863 83.6631 18.0296 83.3954 18.787 83.1347C19.333 82.9444 19.8861 82.7648 20.4427 82.6379C19.2555 82.4618 18.0613 82.8423 16.8882 83.2474C16.1308 83.5081 15.3874 83.7758 14.6582 83.8991C14.5948 83.9097 14.5279 83.9167 14.4609 83.9273C15.1761 83.9167 15.8877 83.9026 16.557 83.7864Z" fill="#F9F398"/>
<path d="M15.4517 114.089C13.4084 113.624 12.1156 111.51 10.5056 110.369C8.8358 109.185 6.42969 108.639 5.35875 106.938C4.28428 105.232 4.83384 102.826 4.4886 100.811C4.15746 98.8667 2.81173 96.7882 3.27675 94.7415C3.74176 92.6982 5.85195 91.4053 6.99335 89.7989C8.17702 88.1291 8.72306 85.723 10.4281 84.6485C10.9706 84.3068 11.5871 84.1307 12.2353 84.0391C10.9037 84.0567 9.58264 84.0989 8.52931 84.7612C6.82425 85.8357 6.27821 88.2418 5.09453 89.9116C3.95313 91.5181 1.84295 92.8109 1.37793 94.8542C0.912917 96.901 2.25864 98.9794 2.58979 100.924C2.93503 102.939 2.38547 105.345 3.45993 107.05C4.53088 108.752 6.93698 109.298 8.60681 110.482C10.2168 111.623 11.5096 113.737 13.5529 114.202C14.2751 114.367 15.0043 114.3 15.73 114.138C15.6384 114.124 15.5468 114.11 15.4552 114.089H15.4517Z" fill="#F9F398"/>
<path d="M138.696 104.29C136.325 105.22 133.902 106.059 131.436 106.809C128.748 107.63 126.01 108.345 123.245 108.962C115.963 110.589 108.456 111.54 100.991 111.938C95.6364 112.227 90.3029 112.224 85.089 111.977C75.2039 111.509 64.8644 110.336 55.6733 106.475C55.3738 106.351 55.0744 106.221 54.782 106.087C48.4233 103.262 42.8255 99.0167 39.5739 92.7531C36.3153 86.4895 35.3676 79.1232 36.347 72.1691C36.7662 69.1782 37.4848 66.3141 38.4466 63.5452C40.0777 58.8386 41.6207 53.3747 44.4213 49.1438C44.756 48.64 43.8119 58.895 44.1571 58.3948C44.6926 57.6268 43.9316 58.9584 44.4918 58.201C45.0202 55.3052 45.1435 52.332 45.6297 49.4221C46.1158 46.5122 46.7887 43.5565 47.7293 40.7207C48.0956 39.6145 48.5043 38.5259 48.9552 37.4515C49.5295 36.0881 50.1847 34.7565 50.9174 33.4706C52.2984 31.0504 54.0704 28.8663 56.0221 26.8864C60.0064 22.8493 64.6425 19.2665 70.5291 18.9706C70.8039 18.9565 71.0822 18.9495 71.357 18.9495C65.7839 18.8473 60.3833 20.6263 56.0502 24.1562C55.2928 24.7727 54.5706 25.4386 53.8872 26.1396C50.0262 30.1134 47.4157 35.225 45.9009 40.5199C45.3126 42.5842 44.8687 44.6874 44.5376 46.8046L44.4918 46.7976C43.5512 48.0623 42.6493 49.3446 41.7862 50.6445C38.9433 54.9353 36.5619 59.4164 34.9061 64.1899C33.9303 66.9976 33.2011 69.9039 32.7748 72.9371C31.7814 79.9898 32.7431 87.4618 36.0475 93.817C39.3449 100.172 45.0237 104.477 51.4741 107.345C51.7735 107.482 52.0765 107.612 52.3794 107.739C61.7009 111.657 72.1919 112.847 82.2179 113.323C87.5057 113.573 92.9168 113.577 98.349 113.284C105.923 112.883 113.536 111.917 120.923 110.265C123.731 109.638 126.507 108.912 129.234 108.081C131.735 107.32 134.194 106.471 136.6 105.527C140.105 104.157 143.42 102.547 146.52 100.591C144.037 102.004 141.423 103.219 138.693 104.287L138.696 104.29Z" fill="#F9F398"/>
<path d="M80.2234 48.3121C80.2234 47.4525 80.3467 46.6176 80.5757 45.832C80.1882 45.8496 79.8077 45.8743 79.4343 45.9131C79.2053 46.6986 79.082 47.53 79.082 48.3896C79.082 53.2934 83.0593 57.2707 87.9631 57.2707C88.3612 57.2707 88.7522 57.2425 89.1362 57.1897C89.1257 57.1897 89.1151 57.1897 89.1045 57.1897C84.2007 57.1897 80.2234 53.2124 80.2234 48.3086V48.3121Z" fill="#F9F398"/>
<path d="M87.2901 52.8185C87.7804 52.8185 88.1779 52.421 88.1779 51.9307C88.1779 51.4404 87.7804 51.043 87.2901 51.043C86.7998 51.043 86.4023 51.4404 86.4023 51.9307C86.4023 52.421 86.7998 52.8185 87.2901 52.8185Z" fill="#F9F398"/>
<path d="M91.1211 51.6329C92.6076 51.6329 93.8126 50.4279 93.8126 48.9415C93.8126 47.455 92.6076 46.25 91.1211 46.25C89.6347 46.25 88.4297 47.455 88.4297 48.9415C88.4297 50.4279 89.6347 51.6329 91.1211 51.6329Z" fill="#F9F398"/>
<path d="M125.661 48.4215C125.661 47.5619 125.784 46.727 126.013 45.9414C125.626 45.959 125.245 45.9837 124.872 46.0224C124.643 46.808 124.52 47.6394 124.52 48.499C124.52 53.4028 128.497 57.3801 133.401 57.3801C133.799 57.3801 134.19 57.3519 134.574 57.2991C134.563 57.2991 134.553 57.2991 134.542 57.2991C129.638 57.2991 125.661 53.3218 125.661 48.418V48.4215Z" fill="#F9F398"/>
<path d="M132.716 52.9239C133.206 52.9239 133.604 52.5265 133.604 52.0362C133.604 51.5459 133.206 51.1484 132.716 51.1484C132.226 51.1484 131.828 51.5459 131.828 52.0362C131.828 52.5265 132.226 52.9239 132.716 52.9239Z" fill="#F9F398"/>
<path d="M136.559 51.7403C138.045 51.7403 139.25 50.5353 139.25 49.0489C139.25 47.5624 138.045 46.3574 136.559 46.3574C135.072 46.3574 133.867 47.5624 133.867 49.0489C133.867 50.5353 135.072 51.7403 136.559 51.7403Z" fill="#F9F398"/>
<path d="M70.6176 89.0052C70.6458 88.9841 70.674 88.963 70.6986 88.9418C70.6986 88.7445 70.7339 88.5402 70.8008 88.3429C70.6493 88.3606 70.4978 88.3782 70.3428 88.3923C68.444 88.6001 66.5452 88.8115 64.6358 88.9172C63.8467 88.963 63.0963 88.9947 62.346 88.7269C61.0179 88.2513 59.9751 87.2967 59.4467 85.9721C58.957 84.7496 59.0803 83.3687 59.4361 82.1216C59.9363 80.3778 61.0214 78.7538 62.3601 77.5489C63.0611 76.9184 63.8573 76.3899 64.7168 75.9989C65.1502 75.8016 65.6011 75.6396 66.0591 75.5163C66.4501 75.4106 66.9679 75.4599 67.3097 75.2203C67.433 75.1323 67.521 74.9702 67.4717 74.8223C67.3942 74.5897 67.0772 74.5827 66.8411 74.632C64.7063 75.0653 62.8357 76.3864 61.2891 77.9505C60.2287 79.025 59.2705 80.2615 58.8126 81.7129C58.4849 82.7487 58.425 83.8548 58.4779 84.9434C58.5025 85.4612 58.5554 85.9897 58.7491 86.4688C59.1719 87.5186 60.3098 88.4698 61.275 88.9841C62.2227 89.4914 63.3218 89.6112 64.3927 89.6182C65.2171 89.6253 65.9851 89.5865 66.8059 89.4773C67.6972 89.3575 68.5885 89.2413 69.4833 89.1426C69.8532 89.1004 70.2301 89.051 70.6141 89.0017L70.6176 89.0052Z" fill="#F9F398"/>
<path d="M59.8617 93.9336C58.0263 93.2185 56.353 92.1194 54.972 90.7138C54.2357 89.9669 53.7954 89.1144 53.3198 88.1879C52.8407 87.2508 52.2629 86.2926 52.1749 85.2216C52.1361 84.7742 51.4315 84.7707 51.4703 85.2216C51.5619 86.3243 52.0656 87.2825 52.5624 88.2513C53.0873 89.2764 53.5664 90.2664 54.3696 91.1048C55.8562 92.6513 57.6775 93.8315 59.6715 94.61C60.0942 94.7756 60.2774 94.0957 59.8582 93.9301L59.8617 93.9336Z" fill="#F9F398"/>
<path d="M109.379 47.4473C109.369 47.8066 109.341 48.1554 109.291 48.5076C108.893 51.4492 107.22 54.1054 104.944 56.1205C103.898 57.047 102.725 57.8397 101.492 58.4597C97.2536 60.591 92.3886 61.0454 87.6539 61.204C81.2916 61.4118 74.873 61.1441 68.6587 59.7631C62.4479 58.3787 56.4239 55.8493 51.4531 51.8684" stroke="#00030C" stroke-width="1.05685" stroke-miterlimit="10" stroke-linecap="round"/>
<path d="M51.4492 51.8644C61.056 49.638 70.3669 46.9289 80.1639 45.8227C83.796 45.4106 87.421 45.2626 91.039 45.3401C97.1757 45.4634 103.291 46.2349 109.379 47.4468" stroke="#00030C" stroke-width="1.05685" stroke-miterlimit="10" stroke-linecap="round"/>
<path d="M91.9062 38.3888C92.181 38.3782 92.4523 38.3677 92.7306 38.3606C97.6238 38.2585 103.68 39.03 108.298 40.1573C110.095 40.5976 112.018 41.2353 113.029 42.7818C113.825 44.0007 113.875 45.6705 113.149 46.9317C112.976 47.2382 112.758 47.513 112.508 47.7561C111.719 48.524 110.609 48.9714 109.506 48.9151" stroke="#00030C" stroke-width="1.05685" stroke-miterlimit="10" stroke-linecap="round"/>
<path d="M61.3359 36.3805C72.6513 31.1491 85.7422 29.8456 97.8678 32.7414C100.112 33.2769 102.349 33.9638 104.339 35.1299C106.33 36.296 108.077 37.9869 108.979 40.1112" stroke="#00030C" stroke-width="1.05685" stroke-miterlimit="10" stroke-linecap="round"/>
<path d="M64.3867 31.2649C73.606 27.735 83.5933 26.4386 93.2177 28.6298C94.9227 29.0173 96.6207 29.5 98.1638 30.3243C99.7068 31.1486 101.091 32.3394 101.909 33.8859" stroke="#00030C" stroke-width="1.05685" stroke-miterlimit="10" stroke-linecap="round"/>
<path d="M69.9492 41.1596C74.7156 39.8385 79.7145 39.0353 84.7593 38.7852" stroke="#00030C" stroke-width="1.05685" stroke-miterlimit="10" stroke-linecap="round"/>
<path d="M95.2392 29.076C91.0047 26.1908 86.7386 23.2845 82.032 21.2588C77.3255 19.2297 72.0976 18.1094 67.0458 18.9619C58.7953 20.3535 52.1055 26.8989 48.5897 34.4906C45.0739 42.0824 44.2883 50.6358 44.1016 58.9991" stroke="#00030C" stroke-width="1.05685" stroke-miterlimit="10" stroke-linecap="round"/>
<path d="M66.5039 63.2448C73.0212 64.2981 79.6124 65.1683 86.2248 65.0168C92.8407 64.8688 99.52 63.6605 105.333 60.7647C106.411 60.2292 107.475 59.6233 108.295 58.7849C109.116 57.95 109.683 56.8473 109.606 55.7235C109.532 54.5997 108.715 53.49 107.527 53.2012" stroke="#00030C" stroke-width="1.05685" stroke-miterlimit="10" stroke-linecap="round"/>
<path d="M82.7031 68.2912C89.0372 68.8231 95.477 68.0199 101.487 65.9485C102.586 65.568 103.706 65.1277 104.538 64.3174C105.373 63.5072 105.859 62.2354 105.443 61.1504" stroke="#00030C" stroke-width="1.05685" stroke-miterlimit="10" stroke-linecap="round"/>
<path d="M114.539 59.3186C120.739 60.689 127.133 60.9567 133.474 60.7489C138.216 60.5904 143.081 60.1359 147.319 58.0046C151.557 55.8733 155.069 51.7339 155.207 46.9922" stroke="#00030C" stroke-width="1.05685" stroke-miterlimit="10" stroke-linecap="round"/>
<path d="M155.205 46.9904C145.534 45.074 135.787 44.2567 125.99 45.3664C121.417 45.8842 116.95 46.7509 112.508 47.7549" stroke="#00030C" stroke-width="1.05685" stroke-miterlimit="10" stroke-linecap="round"/>
<path d="M155.338 48.4703C156.793 48.5443 158.255 47.7446 158.98 46.4834C159.706 45.2222 159.657 43.5559 158.857 42.337C157.842 40.7905 155.919 40.1493 154.122 39.709C149.236 38.5147 142.754 37.7221 137.73 37.9405" stroke="#00030C" stroke-width="1.05685" stroke-miterlimit="10" stroke-linecap="round"/>
<path d="M107.164 35.9313C118.479 30.6999 131.57 29.3964 143.696 32.2922C145.94 32.8277 148.177 33.5146 150.167 34.6807C152.158 35.8468 153.905 37.5377 154.807 39.662" stroke="#00030C" stroke-width="1.05685" stroke-miterlimit="10" stroke-linecap="round"/>
<path d="M110.211 30.8157C119.43 27.2858 129.417 25.9894 139.042 28.1806C140.747 28.5681 142.445 29.0507 143.988 29.8751C145.531 30.6994 146.915 31.8902 147.733 33.4367" stroke="#00030C" stroke-width="1.05685" stroke-miterlimit="10" stroke-linecap="round"/>
<path d="M115.777 40.7064C120.544 39.3854 125.543 38.5822 130.587 38.332" stroke="#00030C" stroke-width="1.05685" stroke-miterlimit="10" stroke-linecap="round"/>
<path d="M96.8516 29.7228C100.625 24.0792 106.247 19.6299 112.881 18.5131C117.932 17.6606 123.16 18.7774 127.863 20.81C132.573 22.8357 136.836 25.7385 141.07 28.6272" stroke="#00030C" stroke-width="1.05685" stroke-miterlimit="10" stroke-linecap="round"/>
<path d="M153.355 52.7578C154.542 53.0467 155.356 54.1564 155.434 55.2802C155.511 56.404 154.948 57.5031 154.123 58.3415C153.302 59.1764 152.238 59.7824 151.16 60.3178C145.344 63.2136 138.665 64.422 132.053 64.5699C126.973 64.6826 121.91 64.2 116.887 63.4919" stroke="#00030C" stroke-width="1.05685" stroke-miterlimit="10" stroke-linecap="round"/>
<path d="M128.527 67.8381C134.861 68.37 141.301 67.5668 147.311 65.4954C148.41 65.1149 149.531 64.6746 150.362 63.8643C151.197 63.0541 151.683 61.7823 151.267 60.6973" stroke="#00030C" stroke-width="1.05685" stroke-miterlimit="10" stroke-linecap="round"/>
<path d="M109.703 55.1406C114.684 57.8673 117.971 63.4475 117.94 69.1263" stroke="#00030C" stroke-width="1.05685" stroke-miterlimit="10" stroke-linecap="round"/>
<path d="M151.027 63.5977C155.297 67.501 158.048 72.7253 158.848 78.4535" stroke="#00030C" stroke-width="1.05685" stroke-miterlimit="10" stroke-linecap="round"/>
<path d="M45.027 46.6152C39.1579 54.524 34.6874 63.0035 33.31 72.7547C32.3166 79.804 33.2783 87.2794 36.5792 93.6346C40.0351 100.282 46.0909 104.689 52.9111 107.557C62.2326 111.474 72.7236 112.669 82.7496 113.141C100.78 113.993 120.226 111.968 137.132 105.345C143.762 102.748 149.722 99.317 154.806 94.2723" stroke="#00030C" stroke-width="1.05685" stroke-miterlimit="10" stroke-linecap="round"/>
<path d="M69.6958 74.4648C68.3466 74.6445 66.9973 74.8664 65.6516 75.1307C61.4242 75.9515 58 80.4149 58 84.4239C58 88.447 61.4277 90.4973 65.6516 89.6765C67.0009 89.4088 68.3501 89.1903 69.6958 89.0107" stroke="#00030C" stroke-width="1.05685" stroke-miterlimit="10" stroke-linecap="round"/>
<path d="M68.625 81.8923C98.7629 77.376 128.904 93.8594 159.042 85.9295C161.156 85.3764 162.868 83.157 162.868 81.1525C162.868 79.141 161.156 78.1053 159.042 78.6584C128.904 86.5883 98.7629 70.1084 68.625 74.6212" stroke="#00030C" stroke-width="1.05685" stroke-miterlimit="10" stroke-linecap="round"/>
<path d="M68.625 89.1632C98.1781 84.735 127.731 100.5 157.284 93.6373C159.356 93.1581 161.036 91.0127 161.036 89.0047C161.036 86.9932 159.356 85.887 157.284 86.3626C127.731 93.2251 98.1781 77.4639 68.625 81.8886" stroke="#00030C" stroke-width="1.05685" stroke-miterlimit="10" stroke-linecap="round"/>
<path d="M51.5977 85.2617C51.8302 87.5551 52.8483 89.7569 54.4406 91.4232C56.0329 93.0895 58.1889 94.2027 60.4682 94.5409" stroke="#00030C" stroke-width="1.05685" stroke-miterlimit="10" stroke-linecap="round"/>
<path d="M78.0202 46.3066C77.4636 50.3051 79.4082 54.5466 82.8007 56.7378C86.1932 58.929 90.8574 58.9536 94.2746 56.8012C97.6917 54.6487 99.6786 50.4284 99.1678 46.4229" stroke="#00030C" stroke-width="1.05685" stroke-miterlimit="10" stroke-linecap="round"/>
<path d="M123.528 45.8388C123.363 48.0969 123.704 50.4185 124.684 52.4618C125.663 54.505 127.305 56.2559 129.362 57.207C131.691 58.285 134.414 58.285 136.897 57.6439C138.856 57.1401 140.758 56.2171 142.111 54.7129C144.228 52.3596 144.711 48.9107 144.274 45.7754" stroke="#00030C" stroke-width="1.05685" stroke-miterlimit="10" stroke-linecap="round"/>
<path d="M126.182 67.6588C125.013 67.5989 124.527 67.539 123.516 67.377" stroke="#00030C" stroke-width="1.05685" stroke-miterlimit="10" stroke-linecap="round"/>
<path d="M56.6367 60.248C58.2009 60.9808 59.8355 61.5938 61.5194 62.0799" stroke="#00030C" stroke-width="1.05685" stroke-miterlimit="10" stroke-linecap="round"/>
<path d="M35.3615 63.9754C33.8924 58.0007 33.3076 51.8111 33.6282 45.6672C33.7762 42.7996 33.8748 41.0523 35.3685 38.5158C36.7847 36.1133 38.5074 33.908 40.3075 31.7872C44.4715 26.8728 49.791 22.9836 55.5791 20.197C64.0198 16.1317 73.3976 14.3209 82.7472 13.6904C91.6988 13.0879 100.686 13.5283 109.648 13.9722C112.991 14.1378 116.366 14.3069 119.589 15.2052C122.813 16.1 125.92 17.798 127.907 20.4894" stroke="#00030C" stroke-width="1.05685" stroke-miterlimit="10" stroke-linecap="round"/>
<path d="M41.0093 30.9453C40.4386 37.4097 40.812 43.9587 42.1084 50.3174" stroke="#00030C" stroke-width="1.05685" stroke-miterlimit="10" stroke-linecap="round"/>
<path d="M52.3125 22.1406C52.4288 23.902 52.5415 25.6635 52.6577 27.4249" stroke="#00030C" stroke-width="1.05685" stroke-miterlimit="10" stroke-linecap="round"/>
<path d="M68.5625 15.9453L69.0064 18.2633" stroke="#00030C" stroke-width="1.05685" stroke-miterlimit="10" stroke-linecap="round"/>
<path d="M87.4883 13.5996C88.9291 17.6967 89.8662 21.6916 90.6412 25.9648" stroke="#00030C" stroke-width="1.05685" stroke-miterlimit="10" stroke-linecap="round"/>
<path d="M108.023 14.3711C108.453 15.9247 108.883 17.4782 109.309 19.0318" stroke="#00030C" stroke-width="1.05685" stroke-miterlimit="10" stroke-linecap="round"/>
<path d="M123.215 16.6562C123.648 17.3679 124.159 18.7277 124.265 19.4569" stroke="#00030C" stroke-width="1.05685" stroke-miterlimit="10" stroke-linecap="round"/>
<path d="M115.724 14.1497C113.156 10.1548 108.034 8.76681 103.341 8.02701C92.8786 6.38184 82.1585 6.38889 71.6992 8.05167" stroke="#00030C" stroke-width="1.05685" stroke-miterlimit="10" stroke-linecap="round"/>
<path d="M36.6096 36.3784C35.3484 29.6392 38.2935 22.5231 43.8455 18.5" stroke="#00030C" stroke-width="1.05685" stroke-miterlimit="10" stroke-linecap="round"/>
<path d="M49.7461 15.022C54.4949 12.5665 60.0363 10.5902 65.8842 9.26562" stroke="#00030C" stroke-width="1.05685" stroke-miterlimit="10" stroke-linecap="round"/>
<path d="M102.001 7.66938C91.3449 0.665961 78.3703 0.236174 65.6951 1.63474C58.1527 2.46613 50.6913 4.00209 43.4307 6.20739C41.6657 6.74287 39.8022 7.29595 37.9104 7.89484C35.455 8.67339 32.9608 9.53296 30.5864 10.5546C29.6317 10.9597 28.6946 11.3965 27.7893 11.8616C26.4294 12.5591 25.1401 13.3235 23.9529 14.1725C22.8749 14.9405 21.8674 16.0291 20.969 17.2832C20.6203 17.7694 20.2856 18.2802 19.9721 18.8121C19.8488 19.0165 19.729 19.2243 19.6163 19.4357C18.2318 21.9263 17.2595 24.7058 16.8966 26.9393C16.4492 29.7118 16.6993 32.4878 17.0375 35.2638C17.5237 39.2622 18.193 43.2607 17.2102 47.245C17.1608 47.4423 17.108 47.636 17.0516 47.8298C17.0516 47.8368 17.0481 47.8439 17.0481 47.8509C16.8966 48.3723 16.717 48.8867 16.5126 49.3975C16.4668 49.5137 16.421 49.63 16.3717 49.7427C15.2796 52.3743 13.6274 54.8966 12.2429 57.4789C11.6617 58.5604 11.1297 59.6489 10.7035 60.7622C9.88616 62.9005 9.45989 65.1234 9.85798 67.5119C10.2349 69.7842 11.3728 71.7781 12.6128 73.7438C13.4724 75.1037 14.3778 76.4494 15.1141 77.8656C15.9384 79.4438 16.5725 81.0432 16.8473 82.8257" stroke="#00030C" stroke-width="1.05685" stroke-miterlimit="10" stroke-linecap="round"/>
<path d="M32.9095 102.029C32.4445 104.072 30.3343 105.365 29.1929 106.975C28.0515 108.585 27.4632 111.051 25.7581 112.122C24.0531 113.193 21.647 112.647 19.6319 112.989C17.6168 113.33 15.6088 114.666 13.5656 114.201C11.5223 113.735 10.2294 111.625 8.61948 110.484C7.00954 109.343 4.54355 108.754 3.47261 107.049C2.40166 105.344 2.9477 102.938 2.60599 100.923C2.26427 98.9078 0.929114 96.8998 1.39413 94.8566C1.85914 92.8133 3.96933 91.5204 5.11073 89.9105C6.25213 88.3006 6.84045 85.8346 8.5455 84.7636C10.2506 83.6927 12.6567 84.2387 14.6717 83.897C16.6868 83.5553 18.6948 82.2201 20.7381 82.6851C22.7813 83.1502 24.0742 85.2603 25.6841 86.4017C27.2941 87.5431 29.7601 88.1315 30.831 89.8365C31.902 91.5416 31.3559 93.9477 31.6976 95.9627C32.0394 97.9778 33.3745 99.9858 32.9095 102.029Z" stroke="#00030C" stroke-width="1.05685" stroke-miterlimit="10"/>
<path d="M23.1427 83.7867C22.5297 81.0987 21.8181 78.7666 21.2051 76.0822C20.726 73.9826 20.2505 71.7632 20.8951 69.7058C21.5257 67.6837 23.1568 66.1302 24.9147 64.95C26.6726 63.7699 28.6102 62.8715 30.3152 61.6174C32.0203 60.3633 33.5281 58.6441 33.8944 56.5586" stroke="#00030C" stroke-width="1.05685" stroke-miterlimit="10" stroke-linecap="round"/>
</g>
<defs>
<linearGradient id="paint0_linear_2749_15620" x1="9.70599" y1="42.4418" x2="115.726" y2="42.4418" gradientUnits="userSpaceOnUse">
<stop stop-color="#528FE8"/>
<stop offset="1" stop-color="#528FE8"/>
</linearGradient>
<clipPath id="clip0_2749_15620">
<rect width="162.632" height="114.362" fill="white" transform="translate(0.757812 0.466797)"/>
</clipPath>
</defs>
</svg>
