<svg width="1500" height="1500" viewBox="0 0 1500 1500" fill="none" xmlns="http://www.w3.org/2000/svg">
<mask id="path-1-inside-1_2853_15749" fill="white">
<path d="M764.933 0C766.214 0 767.505 0 768.786 0C770.347 0.310651 771.888 0.776627 773.459 0.898669C794.586 2.48521 815.751 3.56139 836.85 5.66938C878.295 9.81879 919.104 18.4615 959.422 30.1997C961.426 30.7877 963.526 32.3632 964.884 34.1827C973.285 45.3661 981.647 56.605 989.672 68.1435C992.274 71.8935 994.528 72.2152 998.189 70.5954C1008.37 66.0799 1018.64 61.8195 1029.02 57.9364C1031.67 56.949 1035.1 56.7715 1037.68 57.8254C1083.28 76.4756 1126.87 100.096 1168.74 128.021C1171.94 130.152 1172.21 132.271 1171.27 135.987C1165.59 158.51 1160.1 181.098 1154.56 203.676C1153.66 207.326 1152.88 211.01 1151.8 215.758C1161.94 212.141 1171.15 208.846 1180.9 205.374C1179.95 213.206 1179.08 220.385 1178.1 228.495C1180.44 227.43 1181.92 226.808 1183.34 226.087C1204.5 215.403 1225.67 204.774 1246.75 193.913C1249.66 192.415 1251.57 192.615 1253.98 195C1261.53 202.456 1269.41 209.467 1276.96 216.945C1348.24 287.541 1405.2 370.795 1445.32 469.027C1447.1 473.388 1446.67 475.651 1443.49 478.658C1414.74 505.928 1386.14 533.388 1357.5 560.814C1356.23 562.023 1355.07 563.354 1353.3 565.207C1398.44 580.773 1442.61 596.006 1486.79 611.228C1486.71 611.827 1486.65 612.437 1486.57 613.036C1459.5 621.668 1432.44 630.3 1404.41 639.242C1436.82 679.05 1468.41 717.848 1500 756.657V767.752C1499.64 773.066 1499.38 778.391 1498.9 783.695C1496.77 807.193 1494.53 830.68 1492.49 854.201C1492.18 857.729 1490.91 858.65 1488.03 859.039C1464.6 862.189 1441.2 865.54 1417.79 868.846C1410.42 869.889 1403.06 870.987 1394.69 872.197C1396.55 874.837 1397.62 876.391 1398.72 877.911C1419.72 907.09 1440.75 936.246 1461.68 965.492C1462.9 967.2 1464.18 969.708 1464.04 971.705C1463.67 976.609 1463.07 981.701 1461.55 986.261C1422.72 1102.6 1360.35 1199.67 1278.93 1281.02C1277.02 1282.93 1274.16 1284.04 1271.6 1284.53C1246.29 1289.41 1220.96 1294.17 1195.61 1298.71C1192.38 1299.29 1190.94 1300.95 1189.83 1304.16C1186.05 1314.96 1182.21 1325.74 1178.09 1336.38C1176.97 1339.28 1175.18 1342.16 1173.07 1344.2C1150.93 1365.58 1128.69 1386.83 1106.4 1408C1103.83 1410.43 1100.92 1412.64 1097.87 1414.09C1076.54 1424.21 1055.18 1434.28 1033.68 1443.89C1030.54 1445.3 1026.35 1445.35 1023.06 1444.3C994.595 1435.27 966.204 1425.93 937.842 1416.45C934.21 1415.23 931.946 1415.56 929.827 1419.44C927.206 1424.25 924.027 1428.65 920.829 1433.64C910.973 1421.31 901.484 1409.45 891.734 1397.24C890.376 1399.46 889.432 1400.92 888.555 1402.44C871.686 1431.7 854.788 1460.95 838.025 1490.28C836.156 1493.54 834.046 1495.16 830.665 1495.36C812.081 1496.49 793.497 1497.76 774.913 1499.05C772.861 1499.19 770.838 1499.68 768.796 1500H731.224C729.181 1499.68 727.148 1499.11 725.106 1499.06C678.815 1497.76 632.967 1491.77 587.466 1481.98C576.85 1479.7 566.879 1476.36 557.514 1469.5C533.94 1452.26 509.875 1435.91 485.963 1419.29C483.805 1417.79 481.407 1416.41 478.96 1415.87C446.84 1408.67 414.672 1401.7 382.553 1394.51C373.603 1392.51 363.902 1391.93 356.002 1387.36C328.16 1371.27 301.888 1351.97 276.551 1331.09C275.087 1329.89 273.902 1327.43 273.574 1325.36C272.119 1316.09 271.021 1306.74 269.788 1297.43C268.468 1287.47 267.139 1277.52 265.761 1267.2C249.595 1269.53 234.181 1271.89 218.728 1273.81C216.407 1274.1 213.276 1273.11 211.561 1271.36C172.63 1231.53 138.189 1187.05 108.333 1137.9C107.274 1136.16 106.31 1134.34 105.193 1132.39C115.472 1123.98 125.318 1115.92 135.164 1107.87C124.47 1104.26 114.171 1101.77 103.776 1099.97C99.4123 1099.22 98.4971 1097.13 98.5838 1092.41C99.2293 1056.73 99.5954 1021.05 100.193 985.374C100.26 981.513 99.2871 978.872 96.7919 976.276C70.3468 948.75 44.0559 921.036 17.5626 893.576C14.2293 890.126 12.3121 886.409 11.7341 881.428C8.47784 853.447 5.06744 825.488 1.92678 797.485C0.905588 788.732 0.606936 779.878 0 771.08C0 757.023 0 742.977 0 728.92C0.317919 725.836 0.809249 722.763 0.915222 719.678C2.7264 669.264 9.9711 619.86 21.5896 571.243C22.4566 567.604 23.8632 565.751 27.2351 565.03C44.2582 561.379 61.2428 557.452 78.237 553.591C82.3796 552.648 86.5125 551.627 91.2331 550.496C89.8844 548.066 89.0751 546.502 88.1888 544.993C76.3776 524.956 64.6339 504.874 52.6493 484.97C50.6262 481.609 50.4721 479.035 52.0328 475.484C56.8979 464.456 61.3102 453.173 66.3102 442.234C67.5145 439.604 70.0096 437.175 72.4085 435.954C80.183 431.993 87.9769 427.722 96.1464 425.259C106.445 422.163 112.119 415.64 112.697 403.38C112.871 399.786 114.788 398.587 117.659 397.877C127.996 395.314 138.256 392.308 148.603 389.778C151.927 388.968 152.582 387.47 151.927 383.698C148.189 362.141 144.576 340.551 141.262 318.894C140.829 316.076 141.57 312.093 143.121 309.941C185.453 251.483 234.412 201.479 289.017 158.676C292.1 156.257 294.509 156.213 297.803 157.855C316.06 166.975 334.412 175.851 352.736 184.782C357.572 187.145 362.447 189.419 367.659 191.894C368.006 189.863 368.314 188.476 368.487 187.056C371.763 159.608 375.116 132.171 378.189 104.689C378.699 100.129 380.222 97.6331 383.834 95.6139C464.644 50.6694 549.595 21.9453 638.555 8.63166C641.936 8.1213 643.449 9.36391 645.096 12.2374C651.108 22.7219 657.274 33.0954 663.41 43.4911C664.171 44.7781 665.106 45.9431 666.175 47.4741C677.235 35.9689 687.9 24.8632 698.921 13.3913C709.711 42.2374 720.231 70.3735 730.751 98.4985C741.04 70.4512 750.125 42.8144 759.297 15.2219C761.012 10.0851 763.044 5.08136 764.933 0Z"/>
</mask>
<path d="M764.933 0C766.214 0 767.505 0 768.786 0C770.347 0.310651 771.888 0.776627 773.459 0.898669C794.586 2.48521 815.751 3.56139 836.85 5.66938C878.295 9.81879 919.104 18.4615 959.422 30.1997C961.426 30.7877 963.526 32.3632 964.884 34.1827C973.285 45.3661 981.647 56.605 989.672 68.1435C992.274 71.8935 994.528 72.2152 998.189 70.5954C1008.37 66.0799 1018.64 61.8195 1029.02 57.9364C1031.67 56.949 1035.1 56.7715 1037.68 57.8254C1083.28 76.4756 1126.87 100.096 1168.74 128.021C1171.94 130.152 1172.21 132.271 1171.27 135.987C1165.59 158.51 1160.1 181.098 1154.56 203.676C1153.66 207.326 1152.88 211.01 1151.8 215.758C1161.94 212.141 1171.15 208.846 1180.9 205.374C1179.95 213.206 1179.08 220.385 1178.1 228.495C1180.44 227.43 1181.92 226.808 1183.34 226.087C1204.5 215.403 1225.67 204.774 1246.75 193.913C1249.66 192.415 1251.57 192.615 1253.98 195C1261.53 202.456 1269.41 209.467 1276.96 216.945C1348.24 287.541 1405.2 370.795 1445.32 469.027C1447.1 473.388 1446.67 475.651 1443.49 478.658C1414.74 505.928 1386.14 533.388 1357.5 560.814C1356.23 562.023 1355.07 563.354 1353.3 565.207C1398.44 580.773 1442.61 596.006 1486.79 611.228C1486.71 611.827 1486.65 612.437 1486.57 613.036C1459.5 621.668 1432.44 630.3 1404.41 639.242C1436.82 679.05 1468.41 717.848 1500 756.657V767.752C1499.64 773.066 1499.38 778.391 1498.9 783.695C1496.77 807.193 1494.53 830.68 1492.49 854.201C1492.18 857.729 1490.91 858.65 1488.03 859.039C1464.6 862.189 1441.2 865.54 1417.79 868.846C1410.42 869.889 1403.06 870.987 1394.69 872.197C1396.55 874.837 1397.62 876.391 1398.72 877.911C1419.72 907.09 1440.75 936.246 1461.68 965.492C1462.9 967.2 1464.18 969.708 1464.04 971.705C1463.67 976.609 1463.07 981.701 1461.55 986.261C1422.72 1102.6 1360.35 1199.67 1278.93 1281.02C1277.02 1282.93 1274.16 1284.04 1271.6 1284.53C1246.29 1289.41 1220.96 1294.17 1195.61 1298.71C1192.38 1299.29 1190.94 1300.95 1189.83 1304.16C1186.05 1314.96 1182.21 1325.74 1178.09 1336.38C1176.97 1339.28 1175.18 1342.16 1173.07 1344.2C1150.93 1365.58 1128.69 1386.83 1106.4 1408C1103.83 1410.43 1100.92 1412.64 1097.87 1414.09C1076.54 1424.21 1055.18 1434.28 1033.68 1443.89C1030.54 1445.3 1026.35 1445.35 1023.06 1444.3C994.595 1435.27 966.204 1425.93 937.842 1416.45C934.21 1415.23 931.946 1415.56 929.827 1419.44C927.206 1424.25 924.027 1428.65 920.829 1433.64C910.973 1421.31 901.484 1409.45 891.734 1397.24C890.376 1399.46 889.432 1400.92 888.555 1402.44C871.686 1431.7 854.788 1460.95 838.025 1490.28C836.156 1493.54 834.046 1495.16 830.665 1495.36C812.081 1496.49 793.497 1497.76 774.913 1499.05C772.861 1499.19 770.838 1499.68 768.796 1500H731.224C729.181 1499.68 727.148 1499.11 725.106 1499.06C678.815 1497.76 632.967 1491.77 587.466 1481.98C576.85 1479.7 566.879 1476.36 557.514 1469.5C533.94 1452.26 509.875 1435.91 485.963 1419.29C483.805 1417.79 481.407 1416.41 478.96 1415.87C446.84 1408.67 414.672 1401.7 382.553 1394.51C373.603 1392.51 363.902 1391.93 356.002 1387.36C328.16 1371.27 301.888 1351.97 276.551 1331.09C275.087 1329.89 273.902 1327.43 273.574 1325.36C272.119 1316.09 271.021 1306.74 269.788 1297.43C268.468 1287.47 267.139 1277.52 265.761 1267.2C249.595 1269.53 234.181 1271.89 218.728 1273.81C216.407 1274.1 213.276 1273.11 211.561 1271.36C172.63 1231.53 138.189 1187.05 108.333 1137.9C107.274 1136.16 106.31 1134.34 105.193 1132.39C115.472 1123.98 125.318 1115.92 135.164 1107.87C124.47 1104.26 114.171 1101.77 103.776 1099.97C99.4123 1099.22 98.4971 1097.13 98.5838 1092.41C99.2293 1056.73 99.5954 1021.05 100.193 985.374C100.26 981.513 99.2871 978.872 96.7919 976.276C70.3468 948.75 44.0559 921.036 17.5626 893.576C14.2293 890.126 12.3121 886.409 11.7341 881.428C8.47784 853.447 5.06744 825.488 1.92678 797.485C0.905588 788.732 0.606936 779.878 0 771.08C0 757.023 0 742.977 0 728.92C0.317919 725.836 0.809249 722.763 0.915222 719.678C2.7264 669.264 9.9711 619.86 21.5896 571.243C22.4566 567.604 23.8632 565.751 27.2351 565.03C44.2582 561.379 61.2428 557.452 78.237 553.591C82.3796 552.648 86.5125 551.627 91.2331 550.496C89.8844 548.066 89.0751 546.502 88.1888 544.993C76.3776 524.956 64.6339 504.874 52.6493 484.97C50.6262 481.609 50.4721 479.035 52.0328 475.484C56.8979 464.456 61.3102 453.173 66.3102 442.234C67.5145 439.604 70.0096 437.175 72.4085 435.954C80.183 431.993 87.9769 427.722 96.1464 425.259C106.445 422.163 112.119 415.64 112.697 403.38C112.871 399.786 114.788 398.587 117.659 397.877C127.996 395.314 138.256 392.308 148.603 389.778C151.927 388.968 152.582 387.47 151.927 383.698C148.189 362.141 144.576 340.551 141.262 318.894C140.829 316.076 141.57 312.093 143.121 309.941C185.453 251.483 234.412 201.479 289.017 158.676C292.1 156.257 294.509 156.213 297.803 157.855C316.06 166.975 334.412 175.851 352.736 184.782C357.572 187.145 362.447 189.419 367.659 191.894C368.006 189.863 368.314 188.476 368.487 187.056C371.763 159.608 375.116 132.171 378.189 104.689C378.699 100.129 380.222 97.6331 383.834 95.6139C464.644 50.6694 549.595 21.9453 638.555 8.63166C641.936 8.1213 643.449 9.36391 645.096 12.2374C651.108 22.7219 657.274 33.0954 663.41 43.4911C664.171 44.7781 665.106 45.9431 666.175 47.4741C677.235 35.9689 687.9 24.8632 698.921 13.3913C709.711 42.2374 720.231 70.3735 730.751 98.4985C741.04 70.4512 750.125 42.8144 759.297 15.2219C761.012 10.0851 763.044 5.08136 764.933 0Z" fill="url(#paint0_radial_2853_15749)"/>
<path d="M764.933 0C766.214 0 767.505 0 768.786 0C770.347 0.310651 771.888 0.776627 773.459 0.898669C794.586 2.48521 815.751 3.56139 836.85 5.66938C878.295 9.81879 919.104 18.4615 959.422 30.1997C961.426 30.7877 963.526 32.3632 964.884 34.1827C973.285 45.3661 981.647 56.605 989.672 68.1435C992.274 71.8935 994.528 72.2152 998.189 70.5954C1008.37 66.0799 1018.64 61.8195 1029.02 57.9364C1031.67 56.949 1035.1 56.7715 1037.68 57.8254C1083.28 76.4756 1126.87 100.096 1168.74 128.021C1171.94 130.152 1172.21 132.271 1171.27 135.987C1165.59 158.51 1160.1 181.098 1154.56 203.676C1153.66 207.326 1152.88 211.01 1151.8 215.758C1161.94 212.141 1171.15 208.846 1180.9 205.374C1179.95 213.206 1179.08 220.385 1178.1 228.495C1180.44 227.43 1181.92 226.808 1183.34 226.087C1204.5 215.403 1225.67 204.774 1246.75 193.913C1249.66 192.415 1251.57 192.615 1253.98 195C1261.53 202.456 1269.41 209.467 1276.96 216.945C1348.24 287.541 1405.2 370.795 1445.32 469.027C1447.1 473.388 1446.67 475.651 1443.49 478.658C1414.74 505.928 1386.14 533.388 1357.5 560.814C1356.23 562.023 1355.07 563.354 1353.3 565.207C1398.44 580.773 1442.61 596.006 1486.79 611.228C1486.71 611.827 1486.65 612.437 1486.57 613.036C1459.5 621.668 1432.44 630.3 1404.41 639.242C1436.82 679.05 1468.41 717.848 1500 756.657V767.752C1499.64 773.066 1499.38 778.391 1498.9 783.695C1496.77 807.193 1494.53 830.68 1492.49 854.201C1492.18 857.729 1490.91 858.65 1488.03 859.039C1464.6 862.189 1441.2 865.54 1417.79 868.846C1410.42 869.889 1403.06 870.987 1394.69 872.197C1396.55 874.837 1397.62 876.391 1398.72 877.911C1419.72 907.09 1440.75 936.246 1461.68 965.492C1462.9 967.2 1464.18 969.708 1464.04 971.705C1463.67 976.609 1463.07 981.701 1461.55 986.261C1422.72 1102.6 1360.35 1199.67 1278.93 1281.02C1277.02 1282.93 1274.16 1284.04 1271.6 1284.53C1246.29 1289.41 1220.96 1294.17 1195.61 1298.71C1192.38 1299.29 1190.94 1300.95 1189.83 1304.16C1186.05 1314.96 1182.21 1325.74 1178.09 1336.38C1176.97 1339.28 1175.18 1342.16 1173.07 1344.2C1150.93 1365.58 1128.69 1386.83 1106.4 1408C1103.83 1410.43 1100.92 1412.64 1097.87 1414.09C1076.54 1424.21 1055.18 1434.28 1033.68 1443.89C1030.54 1445.3 1026.35 1445.35 1023.06 1444.3C994.595 1435.27 966.204 1425.93 937.842 1416.45C934.21 1415.23 931.946 1415.56 929.827 1419.44C927.206 1424.25 924.027 1428.65 920.829 1433.64C910.973 1421.31 901.484 1409.45 891.734 1397.24C890.376 1399.46 889.432 1400.92 888.555 1402.44C871.686 1431.7 854.788 1460.95 838.025 1490.28C836.156 1493.54 834.046 1495.16 830.665 1495.36C812.081 1496.49 793.497 1497.76 774.913 1499.05C772.861 1499.19 770.838 1499.68 768.796 1500H731.224C729.181 1499.68 727.148 1499.11 725.106 1499.06C678.815 1497.76 632.967 1491.77 587.466 1481.98C576.85 1479.7 566.879 1476.36 557.514 1469.5C533.94 1452.26 509.875 1435.91 485.963 1419.29C483.805 1417.79 481.407 1416.41 478.96 1415.87C446.84 1408.67 414.672 1401.7 382.553 1394.51C373.603 1392.51 363.902 1391.93 356.002 1387.36C328.16 1371.27 301.888 1351.97 276.551 1331.09C275.087 1329.89 273.902 1327.43 273.574 1325.36C272.119 1316.09 271.021 1306.74 269.788 1297.43C268.468 1287.47 267.139 1277.52 265.761 1267.2C249.595 1269.53 234.181 1271.89 218.728 1273.81C216.407 1274.1 213.276 1273.11 211.561 1271.36C172.63 1231.53 138.189 1187.05 108.333 1137.9C107.274 1136.16 106.31 1134.34 105.193 1132.39C115.472 1123.98 125.318 1115.92 135.164 1107.87C124.47 1104.26 114.171 1101.77 103.776 1099.97C99.4123 1099.22 98.4971 1097.13 98.5838 1092.41C99.2293 1056.73 99.5954 1021.05 100.193 985.374C100.26 981.513 99.2871 978.872 96.7919 976.276C70.3468 948.75 44.0559 921.036 17.5626 893.576C14.2293 890.126 12.3121 886.409 11.7341 881.428C8.47784 853.447 5.06744 825.488 1.92678 797.485C0.905588 788.732 0.606936 779.878 0 771.08C0 757.023 0 742.977 0 728.92C0.317919 725.836 0.809249 722.763 0.915222 719.678C2.7264 669.264 9.9711 619.86 21.5896 571.243C22.4566 567.604 23.8632 565.751 27.2351 565.03C44.2582 561.379 61.2428 557.452 78.237 553.591C82.3796 552.648 86.5125 551.627 91.2331 550.496C89.8844 548.066 89.0751 546.502 88.1888 544.993C76.3776 524.956 64.6339 504.874 52.6493 484.97C50.6262 481.609 50.4721 479.035 52.0328 475.484C56.8979 464.456 61.3102 453.173 66.3102 442.234C67.5145 439.604 70.0096 437.175 72.4085 435.954C80.183 431.993 87.9769 427.722 96.1464 425.259C106.445 422.163 112.119 415.64 112.697 403.38C112.871 399.786 114.788 398.587 117.659 397.877C127.996 395.314 138.256 392.308 148.603 389.778C151.927 388.968 152.582 387.47 151.927 383.698C148.189 362.141 144.576 340.551 141.262 318.894C140.829 316.076 141.57 312.093 143.121 309.941C185.453 251.483 234.412 201.479 289.017 158.676C292.1 156.257 294.509 156.213 297.803 157.855C316.06 166.975 334.412 175.851 352.736 184.782C357.572 187.145 362.447 189.419 367.659 191.894C368.006 189.863 368.314 188.476 368.487 187.056C371.763 159.608 375.116 132.171 378.189 104.689C378.699 100.129 380.222 97.6331 383.834 95.6139C464.644 50.6694 549.595 21.9453 638.555 8.63166C641.936 8.1213 643.449 9.36391 645.096 12.2374C651.108 22.7219 657.274 33.0954 663.41 43.4911C664.171 44.7781 665.106 45.9431 666.175 47.4741C677.235 35.9689 687.9 24.8632 698.921 13.3913C709.711 42.2374 720.231 70.3735 730.751 98.4985C741.04 70.4512 750.125 42.8144 759.297 15.2219C761.012 10.0851 763.044 5.08136 764.933 0Z" stroke="black" stroke-width="2" mask="url(#path-1-inside-1_2853_15749)"/>
<path d="M764.933 0C766.214 0 767.505 0 768.786 0C770.347 0.310651 771.888 0.776627 773.459 0.898669C794.586 2.48521 815.751 3.56139 836.85 5.66938C878.295 9.81879 919.104 18.4615 959.422 30.1997C961.426 30.7877 963.526 32.3632 964.884 34.1827C973.285 45.3661 981.647 56.605 989.672 68.1435C992.274 71.8935 994.528 72.2152 998.189 70.5954C1008.37 66.0799 1018.64 61.8195 1029.02 57.9364C1031.67 56.949 1035.1 56.7715 1037.68 57.8254C1083.28 76.4756 1126.87 100.096 1168.74 128.021C1171.94 130.152 1172.21 132.271 1171.27 135.987C1165.59 158.51 1160.1 181.098 1154.56 203.676C1153.66 207.326 1152.88 211.01 1151.8 215.758C1161.94 212.141 1171.15 208.846 1180.9 205.374C1179.95 213.206 1179.08 220.385 1178.1 228.495C1180.44 227.43 1181.92 226.808 1183.34 226.087C1204.5 215.403 1225.67 204.774 1246.75 193.913C1249.66 192.415 1251.57 192.615 1253.98 195C1261.53 202.456 1269.41 209.467 1276.96 216.945C1348.24 287.541 1405.2 370.795 1445.32 469.027C1447.1 473.388 1446.67 475.651 1443.49 478.658C1414.74 505.928 1386.14 533.388 1357.5 560.814C1356.23 562.023 1355.07 563.354 1353.3 565.207C1398.44 580.773 1442.61 596.006 1486.79 611.228C1486.71 611.827 1486.65 612.437 1486.57 613.036C1459.5 621.668 1432.44 630.3 1404.41 639.242C1436.82 679.05 1468.41 717.848 1500 756.657V767.752C1499.64 773.066 1499.38 778.391 1498.9 783.695C1496.77 807.193 1494.53 830.68 1492.49 854.201C1492.18 857.729 1490.91 858.65 1488.03 859.039C1464.6 862.189 1441.2 865.54 1417.79 868.846C1410.42 869.889 1403.06 870.987 1394.69 872.197C1396.55 874.837 1397.62 876.391 1398.72 877.911C1419.72 907.09 1440.75 936.246 1461.68 965.492C1462.9 967.2 1464.18 969.708 1464.04 971.705C1463.67 976.609 1463.07 981.701 1461.55 986.261C1422.72 1102.6 1360.35 1199.67 1278.93 1281.02C1277.02 1282.93 1274.16 1284.04 1271.6 1284.53C1246.29 1289.41 1220.96 1294.17 1195.61 1298.71C1192.38 1299.29 1190.94 1300.95 1189.83 1304.16C1186.05 1314.96 1182.21 1325.74 1178.09 1336.38C1176.97 1339.28 1175.18 1342.16 1173.07 1344.2C1150.93 1365.58 1128.69 1386.83 1106.4 1408C1103.83 1410.43 1100.92 1412.64 1097.87 1414.09C1076.54 1424.21 1055.18 1434.28 1033.68 1443.89C1030.54 1445.3 1026.35 1445.35 1023.06 1444.3C994.595 1435.27 966.204 1425.93 937.842 1416.45C934.21 1415.23 931.946 1415.56 929.827 1419.44C927.206 1424.25 924.027 1428.65 920.829 1433.64C910.973 1421.31 901.484 1409.45 891.734 1397.24C890.376 1399.46 889.432 1400.92 888.555 1402.44C871.686 1431.7 854.788 1460.95 838.025 1490.28C836.156 1493.54 834.046 1495.16 830.665 1495.36C812.081 1496.49 793.497 1497.76 774.913 1499.05C772.861 1499.19 770.838 1499.68 768.796 1500H731.224C729.181 1499.68 727.148 1499.11 725.106 1499.06C678.815 1497.76 632.967 1491.77 587.466 1481.98C576.85 1479.7 566.879 1476.36 557.514 1469.5C533.94 1452.26 509.875 1435.91 485.963 1419.29C483.805 1417.79 481.407 1416.41 478.96 1415.87C446.84 1408.67 414.672 1401.7 382.553 1394.51C373.603 1392.51 363.902 1391.93 356.002 1387.36C328.16 1371.27 301.888 1351.97 276.551 1331.09C275.087 1329.89 273.902 1327.43 273.574 1325.36C272.119 1316.09 271.021 1306.74 269.788 1297.43C268.468 1287.47 267.139 1277.52 265.761 1267.2C249.595 1269.53 234.181 1271.89 218.728 1273.81C216.407 1274.1 213.276 1273.11 211.561 1271.36C172.63 1231.53 138.189 1187.05 108.333 1137.9C107.274 1136.16 106.31 1134.34 105.193 1132.39C115.472 1123.98 125.318 1115.92 135.164 1107.87C124.47 1104.26 114.171 1101.77 103.776 1099.97C99.4123 1099.22 98.4971 1097.13 98.5838 1092.41C99.2293 1056.73 99.5954 1021.05 100.193 985.374C100.26 981.513 99.2871 978.872 96.7919 976.276C70.3468 948.75 44.0559 921.036 17.5626 893.576C14.2293 890.126 12.3121 886.409 11.7341 881.428C8.47784 853.447 5.06744 825.488 1.92678 797.485C0.905588 788.732 0.606936 779.878 0 771.08C0 757.023 0 742.977 0 728.92C0.317919 725.836 0.809249 722.763 0.915222 719.678C2.7264 669.264 9.9711 619.86 21.5896 571.243C22.4566 567.604 23.8632 565.751 27.2351 565.03C44.2582 561.379 61.2428 557.452 78.237 553.591C82.3796 552.648 86.5125 551.627 91.2331 550.496C89.8844 548.066 89.0751 546.502 88.1888 544.993C76.3776 524.956 64.6339 504.874 52.6493 484.97C50.6262 481.609 50.4721 479.035 52.0328 475.484C56.8979 464.456 61.3102 453.173 66.3102 442.234C67.5145 439.604 70.0096 437.175 72.4085 435.954C80.183 431.993 87.9769 427.722 96.1464 425.259C106.445 422.163 112.119 415.64 112.697 403.38C112.871 399.786 114.788 398.587 117.659 397.877C127.996 395.314 138.256 392.308 148.603 389.778C151.927 388.968 152.582 387.47 151.927 383.698C148.189 362.141 144.576 340.551 141.262 318.894C140.829 316.076 141.57 312.093 143.121 309.941C185.453 251.483 234.412 201.479 289.017 158.676C292.1 156.257 294.509 156.213 297.803 157.855C316.06 166.975 334.412 175.851 352.736 184.782C357.572 187.145 362.447 189.419 367.659 191.894C368.006 189.863 368.314 188.476 368.487 187.056C371.763 159.608 375.116 132.171 378.189 104.689C378.699 100.129 380.222 97.6331 383.834 95.6139C464.644 50.6694 549.595 21.9453 638.555 8.63166C641.936 8.1213 643.449 9.36391 645.096 12.2374C651.108 22.7219 657.274 33.0954 663.41 43.4911C664.171 44.7781 665.106 45.9431 666.175 47.4741C677.235 35.9689 687.9 24.8632 698.921 13.3913C709.711 42.2374 720.231 70.3735 730.751 98.4985C741.04 70.4512 750.125 42.8144 759.297 15.2219C761.012 10.0851 763.044 5.08136 764.933 0Z" stroke="url(#paint1_linear_2853_15749)" stroke-width="2" mask="url(#path-1-inside-1_2853_15749)"/>
<defs>
<radialGradient id="paint0_radial_2853_15749" cx="0" cy="0" r="1" gradientUnits="userSpaceOnUse" gradientTransform="translate(768.257 711.903) rotate(-31.0282) scale(707.097 930.11)">
<stop stop-color="#469827" stop-opacity="0.18"/>
<stop offset="1" stop-color="#469827" stop-opacity="0.0201031"/>
</radialGradient>
<linearGradient id="paint1_linear_2853_15749" x1="750" y1="34.3779" x2="750" y2="1478.25" gradientUnits="userSpaceOnUse">
<stop stop-color="#77B144"/>
<stop offset="1" stop-color="#BFDF5B"/>
</linearGradient>
</defs>
</svg>
