<svg width="131" height="139" viewBox="0 0 131 139" fill="none" xmlns="http://www.w3.org/2000/svg">
<g clip-path="url(#clip0_2857_15512)">
<path d="M120.645 29.5887C118.215 24.4059 115.119 18.999 110.717 15.2478C104.642 10.0774 96.3661 7.20172 88.6893 5.40495C79.0278 3.15173 68.1222 1.52509 58.211 1.15578H58.1819C46.9933 0.43375 36.7576 4.20987 28.1154 11.538C23.2847 15.6337 18.8658 19.8414 15.4539 25.2275C14.8922 26.1114 14.3555 27.0243 13.8353 27.9704C8.25562 38.141 4.04899 48.9756 2.58852 60.5073C1.11142 72.2548 1.73554 84.2637 4.44427 95.7912C5.11417 98.6254 6.17935 101.148 7.32774 103.821C10.128 110.352 14.7299 115.892 19.7563 120.846C27.2417 128.224 34.4233 135.013 45.2915 136.64C46.5939 136.768 47.9545 136.893 49.3442 137.021H49.3567C59.1264 137.901 70.7893 138.64 79.885 137.395C82.6353 137.017 85.369 136.47 88.0527 135.756C97.8641 133.15 106.498 127.506 111.953 118.834C116.097 112.244 119.089 105.049 122.367 98.032C125.679 90.9652 128.317 83.5375 129.624 75.8234C132.312 59.9346 127.34 43.8841 120.641 29.5846L120.645 29.5887Z" fill="#FFC800"/>
<g style="mix-blend-mode:multiply">
<path d="M48.6 122.952C47.6804 123.247 46.7359 123.438 45.7872 123.525C44.3351 122.786 42.7914 122.259 41.2061 121.948C41.1395 121.898 41.0605 121.853 40.9814 121.82C38.5931 120.815 36.2047 119.815 33.8164 118.811C32.8636 118.176 31.9565 117.479 31.091 116.732C29.668 114.919 28.0827 113.238 26.3518 111.711C25.9066 111.3 25.4364 110.906 24.9579 110.533C25.0037 110.375 24.9787 110.197 24.8539 110.018C22.5571 106.719 20.2561 103.42 17.9593 100.121C17.9011 99.9679 17.8387 99.8102 17.7804 99.6567C16.2783 95.5445 15.1965 91.2828 14.019 87.0669C13.4614 85.0792 12.908 83.0916 12.3505 81.1039C11.7888 75.9875 11.7014 70.8212 12.0925 65.6799C12.1008 65.5554 12.0842 65.4517 12.0467 65.3604C12.13 64.8375 12.209 64.3147 12.2922 63.7918C12.3214 63.5968 12.3255 63.4225 12.2215 63.2482C12.1341 63.103 11.9677 62.9619 11.7971 62.9246C11.7763 62.9204 11.7513 62.9163 11.7305 62.9163L12.0218 61.3602C12.234 61.3062 12.4254 61.161 12.5086 60.8913C13.4697 57.9077 14.0731 54.8204 14.3227 51.7041C14.6182 51.7207 14.9219 51.5755 15.0259 51.2103C18.0176 40.8363 23.8428 31.3421 31.6902 23.9102C33.8996 21.8188 36.263 19.8975 38.7678 18.163C38.9259 18.0551 39.0133 17.914 39.0549 17.7646C41.8843 16.5115 44.8718 15.6359 47.955 15.1919C48.8538 15.0633 48.471 13.7022 47.5805 13.8308C43.4946 14.4201 39.5417 15.7521 35.9218 17.7231C35.668 17.5364 35.3101 17.4949 35.0147 17.7688C34.2907 18.4327 33.5667 19.0967 32.8469 19.7647C30.1257 21.3001 27.6375 23.2255 25.4905 25.4912C25.3449 25.6447 25.2991 25.8356 25.3157 26.0223C22.8983 28.2672 20.7346 30.7694 18.8456 33.4708C18.6334 33.4708 18.4212 33.5704 18.2714 33.8069C18.055 34.143 17.8761 34.4999 17.7263 34.8651C16.3449 37.554 14.9635 40.2471 13.5821 42.936C13.3324 43.4174 13.6736 43.8655 14.0731 43.9776C13.32 45.6706 12.5668 47.3678 11.8137 49.0608C11.743 49.2226 11.7305 49.3803 11.7638 49.5256C11.2021 50.9613 10.8442 52.4635 10.6945 54.0154C10.6945 54.0486 10.7028 54.0735 10.7028 54.1067C10.3449 55.1317 10.0828 56.1856 9.88308 57.2562C9.57102 57.3268 9.27976 57.5716 9.26312 57.9326C9.17158 59.6671 9.08004 61.4017 8.9885 63.1362L8.66395 64.5097C8.59322 64.8043 8.70139 65.0409 8.88031 65.1944C8.87615 65.3064 8.86784 65.4226 8.86368 65.5347C8.73053 66.8003 8.59737 68.0659 8.46422 69.3315C8.44758 69.4809 8.48503 69.6096 8.55576 69.7133L8.19377 75.0165C8.16465 75.4646 8.49336 75.6887 8.84703 75.6928C8.8928 76.5103 8.95105 77.3236 9.01763 78.137C8.83871 78.2448 8.71389 78.4357 8.73469 78.7137C8.8928 80.6848 9.04675 82.6558 9.20486 84.6311C9.17157 85.0709 9.16325 85.5066 9.21734 85.9299C9.25063 86.1913 9.30057 86.4569 9.3713 86.7183L9.65424 90.2911C9.69169 90.789 10.1411 91.009 10.5239 90.9592C10.8484 92.6356 11.2895 94.2871 11.8637 95.8972C11.9261 96.0673 12.0384 96.1959 12.1799 96.2748C12.6792 98.5239 13.5405 100.69 14.7388 102.661C15.675 104.2 16.8276 105.806 18.5002 106.504C18.6833 106.732 18.8622 106.96 19.0453 107.184C22.8275 112.247 27.2464 116.803 32.2269 120.708C32.5473 120.961 32.9925 120.894 33.2505 120.666C34.3282 121.525 35.539 122.226 36.8247 122.728C36.8788 122.811 36.9537 122.886 37.0494 122.944C40.6236 125.065 45.0383 125.579 49.0036 124.309C49.869 124.031 49.4987 122.67 48.6291 122.948L48.6 122.952ZM13.6695 91.7891C13.7277 91.7559 13.7818 91.7144 13.8318 91.6687C14.0148 92.3244 14.1979 92.98 14.3851 93.6315C14.6057 94.4075 14.8345 95.1793 15.0675 95.9553C14.6015 94.5652 14.1355 93.1792 13.6695 91.7891Z" fill="#D3B6B6"/>
<path d="M68.4818 50.7006C68.6857 51.0409 68.8896 51.3853 69.0934 51.7297C70.2834 53.7422 69.4721 56.0038 70.6746 57.9748C70.9575 58.4354 71.3237 58.8338 71.6898 59.2321C72.6967 60.3235 73.92 61.3858 74.7106 62.6348C75.5553 63.9668 76.1336 65.6183 76.6995 67.0831C78.472 71.6726 80.1613 76.9675 78.1641 81.81C76.1669 86.6526 71.049 90.6611 67.0088 93.5036C71.8812 92.8811 76.4457 90.1507 79.2876 86.1546C82.1294 82.1586 83.2071 76.9592 82.1835 72.1664C81.5677 69.2783 80.2695 66.0872 78.7508 63.556C78.0559 62.3983 76.8576 61.5351 76.0546 60.4189C75.2016 59.228 74.5192 57.9126 74.0449 56.5225C73.2585 54.2111 73.0629 51.4849 71.5983 49.4557C70.3667 47.7461 69.0934 45.4887 67.3001 44.2812C66.0893 43.4637 63.2433 42.4969 64.7869 44.8372C66.0685 46.7792 67.2876 48.7171 68.4818 50.7047V50.7006Z" fill="#D3B6B6"/>
<path d="M48.5304 48.0363C48.9964 48.4761 49.4874 48.9243 50.0949 49.1235C50.7024 49.3226 51.4721 49.194 51.8217 48.6545C52.0963 48.2313 52.038 47.6545 51.7967 47.2105C51.5554 46.7665 51.1518 46.4345 50.7398 46.1399C50.0283 45.6336 46.6747 43.5464 45.8092 44.2684C44.6983 45.1938 47.977 47.5134 48.5304 48.0321V48.0363Z" fill="#D3B6B6"/>
<path d="M127.82 83.7388C126.414 88.6436 124.542 93.4197 122.374 98.0382C119.944 103.238 117.668 108.537 114.967 113.616C108.352 116.392 100.151 116.305 96.2393 110.259C100.562 100.935 104.881 90.6561 108.206 80.4274C114.951 80.0332 121.812 80.7345 127.816 83.7388H127.82Z" fill="#E2C7C7"/>
<path d="M88.6928 5.41141C96.3696 7.20403 104.65 10.0797 110.72 15.2542C115.123 19.0054 118.218 24.4124 120.648 29.5952C127.118 43.3884 131.974 58.8207 129.89 74.1617C122.908 73.3609 116.171 71.3732 110.25 67.6386C110.267 67.2195 110.284 66.7962 110.304 66.3771C110.304 66.3771 109.834 66.3771 109.834 66.846C109.364 45.1976 102.756 21.1964 83.4085 8.4904C78.5486 5.02965 72.6693 3.85531 67.0854 1.79297C74.3877 2.53574 81.8565 3.81382 88.7011 5.41141H88.6928Z" fill="#E2C7C7"/>
<path d="M129.637 75.8302C129.184 78.5025 128.568 81.1375 127.823 83.7393C121.819 80.735 114.958 80.0337 108.213 80.4279C108.454 79.6852 108.691 78.9382 108.924 78.1955C109.977 74.8053 110.106 71.1951 110.247 67.6348C116.168 71.3694 122.905 73.357 129.887 74.1579C129.812 74.714 129.729 75.27 129.633 75.8302H129.637Z" fill="#D3B6B6"/>
<path d="M63.8689 135.874C66.8606 135.157 69.8148 134.289 72.7024 133.219C78.1989 131.185 82.676 128.057 86.6247 123.716C90.2571 119.728 93.8563 115.4 96.1655 110.429C96.1905 110.371 96.2196 110.313 96.2446 110.255C100.152 116.301 108.357 116.388 114.973 113.612C114.028 115.384 113.034 117.131 111.964 118.836C106.509 127.509 97.8715 133.152 88.0643 135.758C85.3806 136.468 82.6469 137.02 79.8965 137.397C75.8439 137.953 71.7413 138.086 67.6553 138.057C63.6151 138.028 59.5166 138.348 55.5264 137.522C57.7191 137.974 61.7011 136.393 63.8731 135.87L63.8689 135.874Z" fill="#D3B6B6"/>
<path d="M12.1509 71.24C11.7972 65.1816 12.6502 59.0817 14.6682 53.3553C14.9262 52.6249 15.3547 51.9651 15.8957 51.4381C18.9331 41.8858 23.2437 32.5617 30.3671 25.3373C37.5405 18.063 47.5557 13.374 57.9204 14.2205C58.8691 14.2994 59.7554 14.6272 60.4752 15.1542C66.4793 16.4032 72.5375 18.0713 77.2393 22.2126C82.2032 26.5863 84.3502 33.0928 86.181 39.2259C86.2684 39.5205 86.3225 39.8027 86.3516 40.0766C88.5985 43.5498 90.3544 47.2969 91.5693 51.3344C91.8731 52.3469 91.8107 53.2474 91.5028 54.0026C92.8675 60.4884 93.3502 67.1236 92.8509 73.7422C92.7843 74.6426 92.4806 75.4891 91.9937 76.1904C92.0021 76.344 92.0187 76.4933 92.027 76.6469C92.077 77.8295 91.7191 78.7507 91.12 79.4229C91.1033 79.618 91.0825 79.813 91.0451 80.0122C90.2129 84.3195 88.4861 88.3404 86.077 91.9588C85.8731 94.8636 84.163 97.5566 82.8981 100.121C81.4002 103.154 79.9023 106.188 78.4044 109.225C78.1547 109.732 77.8468 110.134 77.5098 110.454C77.2435 111.196 76.8149 111.881 76.2116 112.445C73.9564 114.545 71.5181 116.3 68.9259 117.728C68.6846 117.956 68.4266 118.176 68.1561 118.375C64.919 120.745 60.8996 122.072 56.876 122.209C56.2893 122.421 55.6652 122.558 55.0203 122.604C53.1604 122.724 51.288 122.716 49.4281 122.587C45.4503 122.969 41.7471 122.388 38.2437 120.172C37.8525 119.927 37.5197 119.645 37.2201 119.342C35.3144 118.471 33.4878 117.404 31.7735 116.043C27.4379 112.599 23.2562 108.113 20.2313 103.491C19.4865 102.358 18.7916 101.125 18.3131 99.8431C17.9095 99.4239 17.5517 98.9467 17.2355 98.4322C16.8152 97.7434 16.5864 96.9632 16.5156 96.1624C16.4158 96.0379 16.3159 95.9175 16.216 95.7889C15.5628 94.9258 15.3755 93.4859 15.4962 92.3033C15.3755 92.0252 15.2549 91.7431 15.1384 91.4609C15.0385 91.2576 14.9553 91.0501 14.8887 90.8385C14.8263 90.6808 14.7639 90.5231 14.7015 90.3654C14.4435 89.6932 14.3811 88.9711 14.4768 88.2574C13.1245 83.1659 12.3131 77.954 12.0136 72.6757C11.9844 72.1529 12.0344 71.684 12.155 71.2607L12.1509 71.24ZM21.5711 81.1907C22.8027 81.7675 23.743 82.9169 23.8221 84.639C24.3505 85.0664 24.7999 85.5685 25.1536 86.166C25.2618 86.332 25.3741 86.4938 25.4823 86.6598L28.8193 88.8964C29.4809 89.3405 30.0592 89.9172 30.5169 90.5687C34.7069 91.5937 38.872 92.9672 43.0037 94.183C49.969 94.2868 56.9343 94.3863 63.9037 94.4901C64.3822 94.4984 64.8274 94.5565 65.2477 94.6519C65.4682 94.4735 65.7012 94.3117 65.955 94.1789C67.0951 93.5772 68.281 93.3656 69.4044 93.4942C70.8357 92.3531 72.5375 91.6435 74.2934 90.6974C75.55 90.021 76.6693 89.1994 77.6554 88.2491C77.7927 88.0209 77.9425 87.7968 78.1173 87.5727C78.9661 86.5187 79.8149 85.4647 80.6637 84.4149C81.6831 82.3152 82.4029 80.1076 82.8565 77.7507C82.9605 77.2154 83.1935 76.7382 83.5139 76.3274C83.5097 76.2485 83.5056 76.1738 83.4973 76.095C83.181 75.5389 82.9855 74.875 82.9605 74.099C82.9272 73.0616 82.7982 72.045 82.5819 71.0615C81.6873 68.1112 80.1894 65.3517 78.1339 62.9906C77.4307 62.1814 77.0978 61.3059 77.0313 60.451C75.4085 59.0817 74.4765 57.1978 73.9397 54.8367C73.2865 51.9651 72.5667 49.2181 70.5986 46.9234C68.9051 44.944 66.6541 43.5207 64.1326 42.8651C62.7304 42.4999 61.2782 42.3838 59.8302 42.5124C59.2977 42.5622 58.7775 42.6452 58.2533 42.7697C57.9911 42.8278 57.7332 42.9025 57.4752 42.9771C56.8677 43.8859 55.969 44.5664 54.9287 44.7656C54.7373 45.1474 54.4919 45.4918 54.2048 45.7823C52.4489 47.5334 49.9773 47.2388 48.1965 45.7823C45.417 43.5041 41.8927 42.4335 38.3685 42.5165C37.8942 43.0186 37.2617 43.4377 36.442 43.7199C33.8664 44.6079 31.6237 46.0354 29.6598 47.911C29.5391 48.023 29.4185 48.1309 29.2978 48.2264C28.8817 49.1849 28.5697 50.1974 28.2617 51.1269C27.6792 52.8864 27.0759 54.6499 26.2937 56.3305C26.2645 56.4259 26.2396 56.5255 26.198 56.621C24.829 60.0029 23.4601 63.389 22.087 66.7709C21.7375 67.6298 21.234 68.3934 20.5766 68.9494C20.5766 69.7212 20.5974 70.5013 20.6432 71.2856C20.6765 71.8085 20.6224 72.2815 20.5059 72.7048C20.6723 75.568 21.0343 78.3938 21.5669 81.1865L21.5711 81.1907Z" fill="#F2E4E4"/>
</g>
<g style="mix-blend-mode:soft-light">
<path d="M104.638 89.6915C110.879 77.2262 111.924 62.2794 107.505 49.063C107.43 48.6646 107.351 48.2621 107.267 47.8637C106.494 44.2162 105.399 40.5148 103.781 37.1454C103.544 36.6515 103.256 36.1702 102.924 35.7345C101.334 31.1948 99.4076 26.7672 97.1649 22.5098C97.5519 23.5057 97.4312 24.68 96.8487 25.5763C96.2412 26.51 95.2176 27.0785 94.2357 27.6138L89.1802 30.3608C87.8779 31.0704 86.4715 31.8961 85.9763 33.2904C85.5353 34.527 85.9347 35.888 86.3342 37.1412C88.2898 43.2701 90.2495 49.3949 92.2052 55.5239C91.8515 53.4781 91.685 51.4075 91.3022 49.3576C90.9153 47.2828 90.4534 45.3159 90.5574 43.2743C90.495 43.0129 90.4326 42.7514 90.3702 42.49C90.2495 41.9713 90.1247 41.4402 90.2204 40.9173C90.4118 39.855 91.4104 39.1537 92.3549 38.6226C94.0942 37.6391 95.925 36.8134 97.814 36.1578C98.771 35.8258 99.7696 35.5395 100.781 35.5976C102.104 36.3984 102.778 38.2865 103.306 39.6185C104.122 41.6725 104.804 43.7764 105.358 45.9176C106.186 49.1211 106.706 52.3909 106.922 55.6815C102.096 55.2085 97.1982 55.4658 92.4506 56.4617C93.1039 56.3247 93.6781 65.8107 93.649 66.6655C93.599 68.2174 91.7683 75.0974 93.0956 75.7074C94.1108 74.4003 94.6101 72.9853 96.2495 72.201C97.9555 71.3836 99.9568 71.5869 101.775 71.7736C103.29 71.9313 104.967 72.172 105.924 73.3463C106.955 74.6078 106.752 76.4378 106.494 78.0478C105.874 81.9277 105.254 85.8117 104.634 89.6915H104.638Z" fill="white"/>
<path d="M2.08107 63.2115C2.14764 63.1244 1.94573 63.1143 1.99566 63.0064C2.22451 62.5292 1.93128 61.9112 2.08107 61.4049C2.16845 61.1103 2.18508 60.8406 2.1518 60.5916C2.30575 60.3841 2.42226 60.1269 2.48051 59.8074C3.37926 54.7781 4.07829 50.0268 5.87578 45.2091C7.34873 41.2546 9.17951 37.4743 10.8938 33.6235C12.0755 30.9636 13.6602 28.1003 14.9168 25.4736C15.2788 24.7142 16.5983 23.6959 17.6344 22.3971C17.909 22.3805 18.1288 20.9057 18.4034 20.7563C19.0192 20.4244 18.6788 20.0875 19.228 19.6518C19.6815 19.295 20.4877 18.7931 20.4544 18.2952C21.4447 17.4321 21.97 16.7679 23.0477 15.9504C23.3015 15.7554 23.4929 15.5313 23.6219 15.2865C24.97 14.5437 26.0851 13.1536 27.0047 11.7137C27.8992 11.0829 28.285 11.6735 28.8633 10.7066C28.8468 11.3996 29.2973 9.84636 29.2682 10.0995C28.9977 12.7428 25.3611 15.552 23.7925 17.5936C17.651 25.594 12.8369 34.5986 9.5207 44.1136C9.59144 44.1925 9.64553 44.2838 9.68714 44.3875C9.8827 44.8896 10.0242 46.3378 10.6608 46.4913C11.3348 46.6573 12.4083 44.9684 12.812 44.5203C12.5457 46.1428 12.1795 46.981 11.3515 48.367C11.3307 48.4001 11.3099 48.4292 11.2849 48.4541L11.8341 49.8525C12.0588 50.4251 11.4097 50.7862 10.9229 50.7447C10.3238 53.1224 9.3834 55.2719 9.12958 57.7616L9.08797 52.6535C9.07549 50.9521 9.2336 50.3463 7.87299 49.3131C7.31127 51.2758 6.80782 53.2552 6.37509 55.247C4.70658 62.9278 3.99923 70.8162 4.34042 78.6672C4.91462 91.9044 8.48048 105.158 15.4541 116.383C15.0671 115.955 14.676 115.524 14.2807 115.088C12.5665 113.188 11.5078 111.254 9.78936 109.358C9.64789 108.835 9.26023 107.969 8.96897 107.512C8.74429 107.159 8.69903 106.23 8.35368 106.077C6.21084 101.885 4.4532 98.41 3.84156 93.7707C3.93726 93.472 3.53321 92.9252 3.4708 92.5891C2.37233 86.3688 1.65915 79.9995 1.38037 73.6714C1.28883 71.5925 1.99982 69.6016 1.99566 67.5185C1.99566 66.1658 1.74819 65.2003 2.1518 63.8268L2.08107 63.2115Z" fill="white"/>
<path d="M21.9153 65.4718C23.1386 62.6169 25.0277 60.0857 26.2676 57.2349C27.8071 53.6953 28.2939 49.5997 31.1858 46.9688C31.1275 46.807 31.1441 46.6161 31.2815 46.4211C32.5089 44.6575 34.4021 43.4126 36.5491 43.1056C37.1316 43.0226 37.71 43.0143 38.2842 43.0641C38.6295 42.9686 38.9999 42.923 39.4201 42.952C40.9638 43.0682 42.2412 43.9521 43.6476 44.4957C44.8584 44.9646 46.0775 45.5829 46.8764 46.6452C47.5463 47.5415 47.7751 49.0312 48.1829 50.0644C48.8986 51.8778 49.6059 53.6995 50.2966 55.5211C52.9845 62.6003 55.4852 69.7542 57.7945 76.9662C59.1218 81.1199 60.3909 85.2944 61.5892 89.4855C61.9803 90.8465 62.3298 92.4275 61.5018 93.577C60.653 94.7554 58.9803 94.9048 57.524 94.909C52.6267 94.9214 47.7335 94.5189 42.9069 93.7014C44.5713 93.7678 46.0733 92.5396 46.8181 91.0499C47.5588 89.5602 47.6878 87.8505 47.7627 86.1907C48.2952 74.103 46.5394 61.9198 42.6157 50.4752C41.7294 47.8859 40.6018 45.4044 38.33 44.5081C37.0443 44.3795 35.7377 44.6368 34.5977 45.2633C39.5241 56.9403 42.2329 69.4969 42.5283 82.1615C42.6115 85.755 42.495 89.3485 42.1912 92.9296C42.1164 93.8301 40.6975 93.8384 40.7766 92.9296C41.8376 80.4518 40.5269 67.8122 36.9153 55.8199C35.9416 52.5874 34.8015 49.4005 33.4992 46.2841C32.7669 47.1224 32.1636 48.1224 31.6809 49.3092C30.6656 51.7948 30.2163 54.4879 29.1053 56.932C28.1608 59.0068 26.7669 60.845 25.6893 62.8576C23.0721 67.7458 22.4563 73.659 24.0083 78.9787C25.5603 84.2985 29.2593 88.9585 34.0942 91.6847C28.8973 90.083 24.4452 86.2073 22.1567 81.2859C19.8682 76.3645 19.7767 70.4721 21.9112 65.4801L21.9153 65.4718Z" fill="white"/>
</g>
<path d="M100.962 9.85437C102.78 9.71328 103.899 10.7009 105.418 11.5681C107.286 12.6346 109.076 13.8546 110.715 15.2488C115.117 19.0001 118.213 24.407 120.643 29.5898C127.346 43.8893 132.322 59.9399 129.63 75.8286C128.324 83.5427 125.686 90.9704 122.374 98.0372C119.095 105.054 116.103 112.25 111.959 118.839C104.919 130.03 92.0493 136.296 79.0549 137.201C78.0854 137.267 77.1118 137.305 76.1381 137.309C80.6277 136.404 85.1339 135.5 89.4571 133.989C100.379 130.176 109.313 121.652 113.902 111.092C115.687 106.984 118.612 102.988 119.798 98.6596C120.984 94.3316 123.014 89.9248 124.363 85.4598C126.306 79.0113 127.042 72.2309 126.784 65.5127C126.655 62.1391 126.277 58.7738 125.673 55.45C125.091 52.2424 124.658 49.1592 123.46 46.0761C122.228 42.9017 120.996 39.7314 119.765 36.5569C115.72 26.1332 110.174 16.5642 100.962 9.85022V9.85437Z" fill="#F9F398"/>
<path d="M62.1713 42.6278C67.2351 46.3997 69.0659 52.4996 71.7038 58.0061C73.2683 61.2719 75.511 64.5998 76.8508 67.9651C78.0575 70.9985 78.7607 74.1812 78.5817 77.4552C78.5485 78.0445 78.4819 78.6337 78.3987 79.2188C78.432 79.3226 78.4403 79.4387 78.4195 79.5632C78.3196 80.111 78.1865 80.6463 78.0325 81.1774C77.4999 83.4099 76.6012 85.5469 75.3571 87.4889C75.1324 87.8375 74.7538 87.879 74.4583 87.7462C72.1449 90.4434 69.045 92.4726 65.579 93.3772C64.6969 93.6096 63.7982 92.8668 64.6553 92.5556C70.0894 90.6094 75.2406 86.0241 76.7427 80.5218C76.9008 79.8039 77.0214 79.0777 77.0922 78.3433C77.4042 75.1896 76.8883 72.123 75.794 69.1602C74.6164 65.9733 73.1435 62.8321 71.5457 59.8734C70.0353 57.0766 68.1962 52.5909 66.69 49.7941C65.1838 46.9931 63.2947 45.1383 60.5777 43.9515C59.7538 43.5905 61.439 42.0842 62.1713 42.6278Z" fill="#F9F398"/>
<path d="M81.5142 6.56003C86.0662 8.59333 89.6862 12.1288 92.6778 16.0377C95.8318 20.1582 98.4531 24.7186 100.712 29.3786C105.31 38.8728 108.244 49.1348 109.384 59.6166C110.029 65.5339 110.087 71.5052 109.55 77.4308C109.509 77.8789 109.134 78.1072 108.78 78.1072C107.732 83.6095 106.051 88.9874 103.767 94.1204C102.864 96.1454 101.865 98.1206 100.779 100.05C100.883 100.237 100.908 100.469 100.783 100.71C97.5211 107.117 94.2631 113.524 91.001 119.931C90.5891 120.74 89.3658 120.026 89.7777 119.217L99.2187 100.668C99.0897 100.478 99.0564 100.224 99.2062 99.963C103.367 92.7137 106.23 84.759 107.644 76.5262C108.048 74.1692 108.327 71.7998 108.489 69.4138C108.489 69.4055 108.489 69.3972 108.493 69.3889C108.493 61.6956 107.499 54.0064 105.547 46.5537C102.943 36.6072 98.6736 26.9594 92.7527 18.5233C89.6446 14.0998 85.8166 10.0166 80.7986 7.78001C79.9664 7.4107 80.6862 6.19072 81.5142 6.56003Z" fill="#F9F398"/>
<path d="M49.3423 137.032C47.9817 136.974 46.6294 136.854 45.2896 136.651C34.4214 135.024 27.2397 128.235 19.7543 120.857C14.728 115.903 10.1219 110.363 7.32582 103.832C6.17742 101.159 5.11224 98.6363 4.44234 95.8022C1.73362 84.2746 1.10949 72.2657 2.5866 60.5183C4.0429 48.9824 8.2537 38.1479 13.8334 27.9814C14.3535 27.0353 14.8903 26.1224 15.452 25.2385C18.8639 19.8482 23.2827 15.6405 28.1135 11.549C36.7515 4.21671 46.9872 0.440584 58.1758 1.16261" stroke="#75284D" stroke-width="1.23058" stroke-miterlimit="10" stroke-linecap="round"/>
<path d="M58.2034 1.16211C59.098 1.22435 60.005 1.30734 60.9163 1.42768C63.5501 1.76795 66.3129 2.26175 69.1048 2.93398C77.0895 4.86354 85.2282 8.25375 90.8537 13.6233C98.2184 20.6527 101.697 31.5288 105.334 40.7782C109.523 51.4468 111.317 63.1279 109.382 74.5226C108.076 82.2325 105.438 89.6562 102.13 96.7312C98.8467 103.744 95.8592 110.939 91.7108 117.529C87.1713 124.745 80.8842 129.808 72.7955 132.745C68.5306 134.297 63.962 135.613 59.3268 136.368C56.0106 136.916 52.6569 137.173 49.3574 137.036" stroke="#75284D" stroke-width="1.23058" stroke-miterlimit="10" stroke-linecap="round"/>
<path d="M63.918 121.139C56.5449 123.72 47.1455 123.761 42.1067 122.155C40.1345 121.529 38.2288 120.686 36.4313 119.653C34.4299 118.5 32.5617 117.118 30.8724 115.524C29.1955 113.943 27.4854 112.433 25.846 110.798C22.4841 107.445 19.4217 103.69 17.3412 99.3617C16.222 97.0255 15.1817 94.8303 14.5243 92.3572C11.878 82.3193 11.2664 71.8541 12.7102 61.6171C14.1374 51.5585 18.2483 42.1182 23.699 33.2588C24.2025 32.4372 24.7309 31.6363 25.2802 30.8686C27.5021 27.7606 30.3315 25.0219 33.0943 22.4242C37.2135 18.561 42.2107 16.1127 47.6823 15.0089C51.2065 14.2993 55.1094 13.9715 58.6878 14.457L59.083 14.5151" stroke="#75284D" stroke-width="1.23058" stroke-miterlimit="10" stroke-linecap="round"/>
<path d="M58.1798 1.16211H58.2089C68.1285 1.53557 79.0299 3.15806 88.6956 5.41128C96.3683 7.2039 104.644 10.0796 110.719 15.2499C115.125 19.0012 118.217 24.4081 120.647 29.5909C127.346 43.8904 132.322 59.941 129.63 75.8297C128.324 83.5438 125.686 90.9716 122.374 98.0383C119.095 105.055 116.103 112.251 111.959 118.84C106.508 127.513 97.8745 133.156 88.059 135.762C85.3752 136.472 82.6457 137.024 79.8912 137.401C70.7997 138.65 59.1368 137.908 49.3629 137.028H49.3505C47.9566 136.899 46.6001 136.775 45.2978 136.646" stroke="#75284D" stroke-width="1.23058" stroke-miterlimit="10" stroke-linecap="round"/>
<path d="M58.687 14.4576C58.7827 14.4701 58.8742 14.495 58.9699 14.5157C59.644 14.6568 60.3222 14.8186 61.0088 14.9846C67.3 16.5614 73.7077 19.3334 78.1391 23.7236C83.9393 29.475 86.6813 38.3675 89.5398 45.9322C92.8436 54.6588 94.2541 64.207 92.7312 73.5228C91.7035 79.8302 89.6272 85.901 87.0225 91.6855C84.4303 97.4244 82.0836 103.304 78.8173 108.695C75.2389 114.595 70.2417 118.616 63.9214 121.139C62.1946 121.828 58.4623 123.023 55.4415 123.691C54.7342 123.845 54.0268 123.982 53.3153 124.106C49.6205 124.737 45.8715 124.903 42.2599 124.339C33.701 123.007 28.0422 117.459 22.1463 111.425C18.1851 107.375 14.561 102.84 12.3599 97.4991C11.4528 95.3164 10.6124 93.2499 10.0839 90.9344C7.9494 81.5066 7.45841 71.6845 8.62762 62.0824C9.77602 52.6504 13.0922 43.791 17.4861 35.4753C17.8939 34.7034 18.3183 33.9565 18.7593 33.2303C21.4431 28.8235 24.9216 25.3835 28.7288 22.0348C36.0852 15.5572 44.9104 12.4783 54.5636 13.7605C55.9034 13.9389 57.2848 14.1713 58.6912 14.4659L58.687 14.4576Z" stroke="#75284D" stroke-width="1.23058" stroke-miterlimit="10" stroke-linecap="round"/>
<path d="M78.1604 80.9631C77.9482 81.6187 77.7027 82.2412 77.4323 82.8429C73.6833 91.1171 64.5711 94.3995 55.8582 94.7646C55.3048 94.7895 54.7472 94.7978 54.2022 94.7978H54.1897C50.4283 94.7978 46.646 94.3621 42.6974 93.5986C38.1246 92.723 33.3521 91.4533 29.1662 88.8556C29.0289 88.7726 28.8916 88.6855 28.7585 88.5983C25.8667 86.7393 23.3493 84.2081 21.9638 80.7681C20.5782 77.353 20.2786 73.4856 20.8653 69.9252C21.115 68.394 21.5019 66.9375 22.0012 65.5349C22.8459 63.1531 24.0151 60.9372 25.3923 58.8251C25.8084 58.186 26.2411 57.5512 26.6947 56.9287H26.7196C27.0941 54.7875 27.6642 52.6961 28.5463 50.75C29.108 49.5176 29.8112 48.3432 30.635 47.3017C32.3867 45.0858 34.6711 43.4509 37.2425 43.0774C37.5379 43.0318 37.8416 43.0069 38.1495 42.9944C38.8444 42.9695 39.5434 43.0359 40.2258 43.1728C40.3548 43.1977 40.4838 43.2226 40.6128 43.2517C41.7945 43.5339 42.9429 44.0194 44.0247 44.6293C45.3687 45.3929 46.6294 46.3473 47.8527 47.3681C48.6516 48.0361 49.388 48.8121 50.2577 49.3848C50.861 49.7831 51.4685 48.198 51.843 47.8245C51.8471 47.8204 51.8513 47.8121 51.8554 47.8038C54.0441 45.1231 57.2771 42.7205 60.9303 43.3596C61.1175 43.3928 61.2965 43.4301 61.4879 43.4716C67.0551 44.8161 69.123 51.0031 70.4129 55.8415C71.0038 58.0615 72.277 59.5098 73.5003 61.3729C77.5405 67.5392 80.5613 73.6017 78.1563 80.9756L78.1604 80.9631Z" stroke="#75284D" stroke-width="1.23058" stroke-linecap="round" stroke-linejoin="round"/>
<path d="M37.3377 43.069C42.4389 41.9029 47.5443 44.3885 51.3473 47.3804C51.5221 47.5173 51.6927 47.6543 51.8633 47.7912C51.8591 47.7954 51.855 47.8037 51.8508 47.8078" stroke="#75284D" stroke-width="1.23058" stroke-linecap="round" stroke-linejoin="round"/>
<path d="M59.7163 43.2889C63.8439 42.7245 67.2641 43.5047 69.823 46.5795C72.0033 49.1937 73.0519 52.5964 73.909 55.8289C74.4998 58.0489 75.7731 59.493 76.9964 61.3603C81.0366 67.5266 84.0574 73.5891 81.6524 80.963C81.4402 81.6186 81.1947 82.241 80.9242 82.8427C76.9423 91.644 66.8855 94.7977 57.6941 94.7977H57.6816C57.0783 94.7977 56.4708 94.7894 55.8592 94.7645" stroke="#75284D" stroke-width="1.23058" stroke-linecap="round" stroke-linejoin="round"/>
</g>
<defs>
<clipPath id="clip0_2857_15512">
<rect width="130.031" height="138.235" fill="white" transform="matrix(-1 0 0 1 131 0.451172)"/>
</clipPath>
</defs>
</svg>
