<svg width="141" height="115" viewBox="0 0 141 115" fill="none" xmlns="http://www.w3.org/2000/svg">
<g clip-path="url(#clip0_2774_15515)">
<path d="M103.672 96.1353C104.501 96.3361 104.888 97.3773 104.668 98.2028C104.583 98.5226 104.43 98.8163 104.237 99.0878L104.196 99.3332C102.296 99.0022 100.541 98.2548 99.0273 97.1913L99.0459 97.1616C100.574 96.7637 102.091 96.3361 103.594 95.875L103.672 96.1353Z" fill="#8FBF52"/>
<path d="M134.668 72.5818C132.697 73.0131 130.831 73.4073 128.771 73.7903L128.537 73.7419C128.566 73.6267 128.589 73.5114 128.611 73.3961C129.083 70.9643 129.016 68.3948 128.254 66.0447L128.284 66.0336C130.284 65.6505 132.277 65.2415 134.27 64.8065C134.415 64.7767 134.56 64.747 134.705 64.7135C135.025 64.6428 135.349 64.6094 135.661 64.6094C137.509 64.6094 139.168 65.7733 139.592 67.5358C140.086 69.5958 138.64 71.7117 136.349 72.2137C135.784 72.3401 135.23 72.4591 134.687 72.5781C134.679 72.5781 134.672 72.5781 134.668 72.5781V72.5818Z" fill="#D3C175"/>
<path d="M139.364 75.4685C139.844 77.5359 138.36 79.6443 136.04 80.1314C133.984 80.5665 131.998 80.9792 130.005 81.366C128.228 81.7118 126.443 82.0353 124.595 82.3365L124.457 82.2287C126.443 79.7261 127.882 76.848 128.54 73.7394L128.774 73.7877C130.834 73.4047 132.701 73.0106 134.672 72.5792C134.675 72.5792 134.683 72.5792 134.69 72.5792C134.925 72.542 135.163 72.5234 135.397 72.5234C137.275 72.5234 138.948 73.7022 139.364 75.4722V75.4685Z" fill="#D3C175"/>
<path d="M128.259 66.0431C129.021 68.3932 129.088 70.9627 128.615 73.3946C128.593 73.5098 128.571 73.6251 128.541 73.7404C127.883 76.849 126.444 79.7271 124.458 82.2297C123.625 83.282 122.696 84.2674 121.688 85.1747L121.487 85.197C121.037 80.7906 118.709 76.968 115.251 74.5287H115.225C114.708 69.9327 110.804 66.3629 106.067 66.3629C100.972 66.3629 96.8746 70.1558 96.8746 75.2501V75.291C96.6069 75.3021 96.2722 75.6591 96.0974 75.819C95.6252 76.2503 95.1678 76.7003 94.7588 77.1948C94.0337 78.0687 93.4053 79.0243 92.8921 80.0358C91.8398 82.1218 91.2932 84.4421 91.2932 86.7773C91.2932 87.6623 91.3712 88.5287 91.52 89.3728H91.5088C89.0435 88.3912 86.6897 87.1343 84.5218 85.6544C84.4772 85.6246 84.4363 85.5949 84.3917 85.5651C81.0116 83.2336 77.9587 80.2775 76.3151 76.5813C75.4376 74.6031 75.0174 72.3906 75.1661 70.2413C75.3 68.33 75.8838 66.4708 76.9956 64.883C78.721 62.4139 81.5693 60.8001 84.5776 60.194C87.5858 59.5879 90.7354 59.9337 93.673 60.8112C96.1309 61.5512 98.4735 62.6742 100.998 63.1985C103.542 63.7228 106.171 63.7228 108.714 63.1836C111.57 62.5738 113.794 60.9823 116.46 59.9523C120.022 58.5727 124.138 59.5135 126.47 62.5849C127.165 63.5034 127.701 64.5074 128.091 65.5597C128.151 65.7196 128.206 65.8795 128.259 66.0431Z" fill="#DA6260"/>
<path d="M126.209 30.2937C126.346 30.859 126.421 31.4502 126.417 32.0637C126.35 34.5737 125.833 36.8606 124.948 38.9243C121.371 47.3244 111.814 51.991 102.537 52.5339C98.744 52.757 94.9549 52.3703 91.2327 51.6341L90.9873 51.7233C89.6077 47.8896 86.8598 44.5355 83.2789 42.5759L83.145 42.5907C82.9516 40.9881 82.1336 39.5044 80.9957 39.0917L80.6016 39.0731C81.4828 36.961 82.0034 34.6109 82.0704 32.0637C82.0741 31.4428 82.0034 30.8515 81.8658 30.2863L82.2674 30.1896C83.4759 29.6244 84.1787 27.8098 84.1044 26.0435C84.0858 25.601 84.0226 25.166 83.9259 24.7421L84.4651 24.7198C89.4887 22.6932 94.8173 21.5553 100.205 21.1426L100.213 21.2244C96.2526 23.2398 93.4303 27.1591 93.1105 31.8295C92.6197 38.9801 98.1751 45.1862 105.519 45.6919C112.863 46.1939 119.218 40.8059 119.709 33.6552C120.058 28.5312 117.307 23.8942 113.019 21.4884L113.03 21.4252C116.295 21.9197 119.445 22.9051 122.133 24.7978C124.059 26.1551 125.655 28.0329 126.209 30.2937Z" fill="#DFEDE9"/>
<path d="M121.565 86.7781C121.565 87.2206 121.546 87.6594 121.505 88.0908C120.84 95.788 114.344 101.823 106.427 101.823C104.865 101.823 103.359 101.589 101.939 101.15C99.7374 100.473 97.7518 99.3094 96.1045 97.7848C93.747 95.5984 92.0923 92.6719 91.5159 89.3736C91.3672 88.5295 91.2891 87.6631 91.2891 86.7781C91.2891 84.4429 91.8357 82.1226 92.888 80.0365C93.4012 79.0251 94.0296 78.0695 94.7547 77.1956C95.1637 76.7011 95.6211 76.2511 96.0933 75.8198C96.2681 75.6599 96.6028 75.3029 96.8742 75.2918C96.9523 75.2918 97.023 75.3141 97.0862 75.3773C97.3688 75.6636 97.67 76.0875 97.7109 76.4742C97.7518 76.8833 97.5324 77.3667 97.3613 77.7385C97.3093 77.8575 97.2237 77.9616 97.1271 78.0658C96.9635 78.2368 96.7664 78.393 96.6214 78.5603C95.8814 79.4342 95.2567 80.4047 94.7733 81.4458C93.9998 83.1117 93.602 84.9412 93.602 86.7781C93.602 88.0201 93.7804 89.2212 94.1151 90.3553C94.9332 93.1516 96.692 95.55 99.0272 97.1899C100.541 98.2534 102.296 99.0008 104.196 99.3317C104.921 99.4581 105.665 99.5251 106.427 99.5251C112.403 99.5251 117.426 95.4608 118.847 89.9649C119.081 89.0724 119.215 88.1428 119.245 87.1872C119.248 87.0496 119.252 86.9157 119.252 86.7781C119.252 83.0522 117.757 79.6573 115.195 77.3258L115.121 77.3146C115.229 76.7531 115.284 76.1768 115.284 75.5855C115.284 75.2286 115.266 74.879 115.221 74.5332H115.247C118.705 76.9688 121.033 80.7914 121.483 85.1978C121.539 85.7184 121.565 86.2464 121.565 86.7781Z" fill="#DFEDE9"/>
<path d="M113.017 21.4893C117.304 23.8952 120.056 28.5321 119.707 33.6561C119.216 40.8068 112.861 46.1948 105.517 45.6928C98.1729 45.1871 92.6175 38.981 93.1083 31.8304C93.4281 27.16 96.2504 23.2407 100.211 21.2253L100.203 21.1435C101.49 21.0431 102.776 20.9836 104.067 20.965C106.967 20.9241 110.042 20.9687 113.028 21.4261L113.017 21.4893Z" fill="#75284D"/>
<path d="M119.256 86.776C119.256 86.9136 119.252 87.0475 119.248 87.1851H119.144C116.508 89.0108 113.51 90.3606 110.372 91.0932C104.98 92.3537 99.6108 91.9633 94.3231 90.2937L94.1186 90.3532C93.784 89.2191 93.6055 88.018 93.6055 86.776C93.6055 84.9391 94.0033 83.1096 94.7768 81.4437C95.2602 80.4026 95.8849 79.432 96.6249 78.5582C96.7699 78.3909 96.967 78.2347 97.1306 78.0636L97.205 78.1417C98.3131 81.9903 101.86 84.8052 106.066 84.8052C110.569 84.8052 114.317 81.5813 115.124 77.3125L115.199 77.3237C117.761 79.6551 119.256 83.0501 119.256 86.776Z" fill="#DA6260"/>
<path d="M64.2279 9.10175C64.5923 9.16496 64.953 9.23933 65.3137 9.31742C66.2136 9.51078 67.1135 9.73761 67.9799 10.05C68.4558 10.2173 68.9206 10.4144 69.3706 10.6449C70.6348 11.2919 71.769 12.2253 72.4383 13.4375L72.416 13.5007C72.4606 13.5156 72.5052 13.5342 72.5499 13.549C75.4986 14.6348 78.6259 16.0553 79.9422 18.8665L79.7823 19.1082C80.6859 19.7217 81.5523 20.4357 82.296 21.369C83.0322 22.2949 83.6384 23.4662 83.9247 24.7417C84.0214 25.1656 84.0846 25.6006 84.1032 26.0431C84.1775 27.8094 83.4747 29.624 82.2662 30.1892L81.8646 30.2859C81.028 26.7496 77.6962 24.3103 74.3756 22.9605C72.5573 22.2168 70.6311 21.7557 68.6752 21.462C66.3772 21.1161 64.0308 21.0083 61.7477 20.9674C59.7843 20.9302 57.8173 20.9897 55.8576 21.1422C53.5261 21.3244 51.2021 21.6404 48.9078 22.0904C38.009 24.2211 28.7276 30.1706 20.283 37.1651C23.4697 41.3112 27.2068 44.5611 31.9069 46.755C37.3359 49.2947 43.0661 50.9792 48.9599 51.9981C58.0441 53.5635 68.5042 52.2063 75.6474 45.9518C77.752 44.1075 79.4737 41.7871 80.6004 39.0727L80.9945 39.0912C82.1324 39.504 82.9504 40.9877 83.1438 42.5903L83.2777 42.5755C86.8586 44.5351 89.6065 47.8892 90.9861 51.7229L91.2315 51.6337C94.9537 52.3699 98.7428 52.7566 102.536 52.5335C111.813 51.9906 121.37 47.3239 124.947 38.9239L125.341 39.0912C127.706 39.9911 127.806 43.5162 127.23 45.5279C126.873 46.7736 126.222 47.8854 125.389 48.882L126.029 49.1125C130.536 53.2326 133.395 58.6021 134.239 64.6483L134.273 64.8045C132.28 65.2396 130.287 65.6486 128.286 66.0316L128.256 66.0427C128.204 65.8791 128.149 65.7192 128.089 65.5593C127.699 64.507 127.163 63.503 126.468 62.5846C124.136 59.5131 120.02 58.5723 116.458 59.9519C113.791 60.9819 111.568 62.5734 108.712 63.1832C106.169 63.7224 103.54 63.7224 100.996 63.1981C98.4714 62.6738 96.1287 61.5508 93.6708 60.8109C90.7332 59.9333 87.5837 59.5875 84.5754 60.1936C81.5672 60.7997 78.7188 62.4135 76.9934 64.8826C75.8816 66.4704 75.2978 68.3296 75.164 70.2409L75.045 70.2297C63.2462 69.8356 51.6483 68.5118 39.9983 66.3737C39.8384 66.3439 39.6823 66.3179 39.5224 66.2844C38.2618 66.0539 37.0012 65.8085 35.7444 65.5556C31.3343 64.6706 26.9688 67.1471 25.9611 71.2672C25.831 71.8027 25.7677 72.3418 25.7677 72.8773C25.7677 76.4396 28.5789 79.7751 32.7101 80.608C33.8182 80.8311 34.9263 81.0468 36.0344 81.255C52.0685 84.2707 68.0468 85.7878 84.2928 85.7023L84.3895 85.5647C84.4341 85.5945 84.475 85.6242 84.5196 85.654C86.6875 87.1339 89.0413 88.3908 91.5066 89.3762H91.5178C92.0942 92.6707 93.7489 95.5972 96.1064 97.7836L95.9874 97.9138C95.6007 98.003 95.214 98.0923 94.8235 98.1778C87.0333 99.9218 79.0014 100.941 71.0179 101.365C65.2765 101.673 59.5575 101.669 53.9686 101.405C43.3859 100.907 32.3123 99.6466 22.4732 95.5117C22.1534 95.3778 21.8336 95.2402 21.5175 95.0952C14.709 92.0684 8.71481 87.5244 5.23432 80.82C1.74639 74.1118 0.731248 66.2212 1.77986 58.7806C3.22634 48.5101 7.93393 39.5709 14.1066 31.2378C14.9358 26.3927 16.3228 21.6628 18.6915 17.3047C19.8107 15.2447 21.1122 13.285 22.5141 11.4035C22.8487 10.9536 23.1908 10.5073 23.5441 10.0723C28.036 4.53918 35.8262 1.65365 42.8095 1.30411C50.4882 0.921108 58.6056 3.93679 64.2539 8.94929L64.2279 9.10175Z" fill="#46A6E8"/>
<path d="M130.003 81.3672L130.026 81.4899C127.438 84.0594 124.634 86.231 121.637 88.1013L121.507 88.0902C121.548 87.6588 121.566 87.2201 121.566 86.7776C121.566 86.2458 121.54 85.7178 121.484 85.1972L121.685 85.1749C122.693 84.2676 123.623 83.2822 124.455 82.2299L124.593 82.3377C126.441 82.0365 128.226 81.713 130.003 81.3672Z" fill="#46A6E8"/>
<path d="M116.759 13.5014C116.804 13.5163 116.852 13.5312 116.897 13.5498C119.842 14.6356 122.969 16.056 124.285 18.8672L124.126 19.1089C125.029 19.7224 125.899 20.4364 126.639 21.3697C127.621 22.6043 128.368 24.2776 128.446 26.0438C128.521 27.8101 127.818 29.6247 126.609 30.1899L126.204 30.2941C125.65 28.0332 124.055 26.1554 122.129 24.7982C119.44 22.9055 116.291 21.9201 113.026 21.4255C110.04 20.9681 106.965 20.9235 104.064 20.9644C102.774 20.983 101.487 21.0425 100.201 21.1429C94.8128 21.5556 89.4842 22.6935 84.4606 24.7201L83.9214 24.7424C83.6351 23.4669 83.0289 22.2956 82.2927 21.3697C81.549 20.4364 80.6826 19.7224 79.779 19.1089L79.9389 18.8672C78.6226 16.056 75.4953 14.6356 72.5466 13.5498C72.5019 13.5349 72.4573 13.5163 72.4127 13.5014L72.435 13.4382C71.7657 12.226 70.6315 11.2927 69.3673 10.6456C68.9173 10.4151 68.4525 10.218 67.9766 10.0507L68.1699 9.5301C70.2337 7.0945 73.4167 5.27616 76.2836 3.97098C86.9594 -0.900222 99.829 1.17097 108.597 8.95002L108.571 9.10247C108.936 9.16569 109.296 9.24006 109.657 9.31815C111.055 9.61934 112.45 9.99863 113.714 10.6456C114.978 11.2927 116.112 12.226 116.782 13.4382L116.759 13.5014Z" fill="#46A6E8"/>
<path d="M119.143 87.1816H119.247C119.217 88.141 119.083 89.0706 118.849 89.9631L118.581 89.8701C116.276 91.1084 113.87 92.1979 111.371 93.1758C108.831 94.1724 106.236 95.0722 103.596 95.8717C102.093 96.3328 100.576 96.7604 99.0479 97.1583L99.0293 97.1881C96.6941 95.5482 94.9353 93.1498 94.1172 90.3535L94.3217 90.294C99.6094 91.9636 104.979 92.354 110.371 91.0935C113.509 90.3609 116.506 89.0111 119.143 87.1816Z" fill="#46A6E8"/>
<path d="M115.222 74.5328C115.267 74.8786 115.285 75.2281 115.285 75.5851C115.285 76.1763 115.229 76.7527 115.122 77.3142C114.315 81.583 110.566 84.8069 106.063 84.8069C101.858 84.8069 98.3103 81.992 97.2022 78.1434L97.1279 78.0653C97.2245 77.9612 97.3101 77.8571 97.3621 77.7381C97.5332 77.3662 97.7526 76.8828 97.7117 76.4738C97.6708 76.0871 97.3696 75.6632 97.087 75.3769C97.0237 75.3136 96.9531 75.2876 96.875 75.2913V75.2504C96.8713 70.1561 100.969 66.3633 106.063 66.3633C110.801 66.3633 114.705 69.933 115.222 74.5328ZM103.349 82.6985L98.7714 75.5516L102.858 68.6539C100.422 69.9888 98.7714 72.5768 98.7714 75.5516C98.7714 78.7235 100.646 81.4566 103.349 82.6985Z" fill="#DA6260"/>
<path d="M98.7695 75.5527L103.347 82.6996C100.644 81.4577 98.7695 78.7246 98.7695 75.5527Z" fill="#DA6260"/>
<path d="M102.86 68.6543L98.7734 75.5521C98.7734 72.5773 100.424 69.9892 102.86 68.6543Z" fill="#DA6260"/>
<path d="M101.941 101.149L101.922 101.213C97.1698 104.823 91.25 106.764 85.3041 107.512C78.8303 108.33 72.2709 107.82 65.7821 107.158C50.8711 105.63 36.1756 103.525 21.5248 100.372C21.2311 100.309 20.9782 100.116 20.8369 99.8516H20.8332C20.4056 99.0522 20.1453 98.063 20.2197 97.152C20.2569 96.7355 20.3833 96.3191 20.6064 95.9584C20.7588 95.7093 21.1307 95.2035 21.4654 95.2147L21.5174 95.0957C21.8335 95.2407 22.1533 95.3783 22.4731 95.5122C32.3121 99.6471 43.3858 100.908 53.9685 101.406C59.5574 101.67 65.2764 101.674 71.0177 101.365C74.699 101.603 78.3878 101.685 82.0691 101.454C87.0704 101.142 91.5474 100.127 94.8383 98.2527L94.8234 98.1783C95.2139 98.0928 95.6006 98.0035 95.9873 97.9143L96.1063 97.7842C97.7536 99.3087 99.7392 100.473 101.941 101.149Z" fill="#8FBF52"/>
<path d="M39.5242 66.2846C39.6841 66.3181 39.8402 66.3441 40.0001 66.3739C51.6501 68.512 63.248 69.8358 75.0468 70.23L75.1657 70.2411C75.017 72.3904 75.4372 74.6029 76.3148 76.5811C77.9583 80.2773 81.0112 83.2335 84.3913 85.5649L84.2946 85.7025C68.0486 85.788 52.0703 84.2709 36.0362 81.2589C34.9281 81.047 33.82 80.8313 32.7119 80.6082C28.5807 79.7753 25.7695 76.4398 25.7695 72.8775C25.7695 72.342 25.8327 71.8029 25.9629 71.2674C26.9706 67.1473 31.3361 64.6708 35.7462 65.5558C37.003 65.8087 38.2636 66.0541 39.5242 66.2846Z" fill="#D3C175"/>
<path d="M81.8629 30.2844C82.0005 30.8496 82.0711 31.4408 82.0674 32.0618C82.0005 34.6089 81.4799 36.959 80.5986 39.0711C79.4719 41.7856 77.7503 44.1059 75.6456 45.9503C68.5024 52.2048 58.0424 53.562 48.9581 51.9965C43.0643 50.9777 37.3342 49.2932 31.9052 46.7535C27.205 44.5596 23.468 41.3096 20.2812 37.1635C28.7259 30.1691 38.0072 24.2195 48.9061 22.0888C51.2004 21.6389 53.5244 21.3228 55.8559 21.1406L55.8633 21.2224C51.8994 23.2378 49.0808 27.1571 48.761 31.8275C48.2702 38.9781 53.8256 45.1843 61.1696 45.69C68.5136 46.192 74.8684 40.8039 75.3593 33.6533C75.7088 28.5292 72.9572 23.8923 68.6698 21.4864V21.4604C70.6294 21.7542 72.5556 22.2153 74.3739 22.959C77.6945 24.3088 81.0262 26.7481 81.8629 30.2844Z" fill="#DFEDE9"/>
<path d="M68.6694 21.4884C72.9568 23.8942 75.7084 28.5312 75.3589 33.6552C74.8681 40.8058 68.5132 46.1939 61.1692 45.6919C53.8252 45.1862 48.2698 38.9801 48.7606 31.8294C49.0804 27.159 51.899 23.2398 55.8629 21.2244L55.8555 21.1426C57.8151 20.9901 59.7822 20.9306 61.7456 20.9678C64.0287 21.0087 66.3751 21.1165 68.6731 21.4623V21.4884H68.6694Z" fill="#75284D"/>
<path d="M89.2904 98.021C88.7177 99.0101 87.7955 99.7798 86.7135 100.152C86.6986 100.155 86.6837 100.159 86.6688 100.163C86.085 100.274 85.4975 100.364 84.9063 100.431C84.1849 100.46 83.4561 100.457 82.7458 100.605C82.5413 100.65 82.5859 100.977 82.7942 100.97C83.5825 100.944 84.3634 100.873 85.1443 100.776C85.6723 100.747 86.1929 100.687 86.706 100.531C86.7134 100.531 86.7209 100.531 86.7246 100.531C86.7618 100.553 86.8064 100.561 86.8548 100.55C87.4014 100.412 87.948 100.274 88.4946 100.137C88.7028 100.081 88.6433 99.791 88.4611 99.7761C88.5058 99.7166 88.4946 99.6422 88.4537 99.579C88.9148 99.196 89.3089 98.7349 89.6139 98.2106C89.7329 98.0024 89.4131 97.8165 89.2941 98.0247L89.2904 98.021Z" fill="#528FE8"/>
<g style="mix-blend-mode:multiply">
<path d="M125.633 45.943L125.595 45.9355C125.595 45.9355 125.566 45.9467 125.551 45.9541C125.577 45.9504 125.603 45.9467 125.633 45.9393V45.943Z" fill="#E2C7C7"/>
<path d="M95.9352 97.2922C95.7046 97.1174 95.5447 96.9055 95.4406 96.6823C90.9375 97.3294 86.3973 97.7682 81.8682 98.0061C76.1343 98.3148 70.4227 98.311 64.8413 98.047C54.2585 97.545 43.1849 96.2882 33.3458 92.1532C33.026 92.0194 32.7062 91.8818 32.3902 91.7368C24.626 88.1745 17.9959 82.448 14.7051 74.4198C13.359 71.1327 12.5781 67.6299 12.236 64.1011C11.9869 61.5614 11.9757 58.9175 12.95 56.5637C14.1585 53.6522 16.6313 51.9417 19.4796 50.8447C20.5468 50.4357 21.997 50.0899 22.7072 49.097C23.4212 48.093 22.882 46.3974 22.3726 45.412C21.7888 44.2742 20.9261 43.3111 20.1378 42.2997C19.0074 40.8495 18.0071 39.2356 17.6724 37.4285C17.3378 35.6213 17.7877 33.5873 19.1747 32.3788C20.1155 31.5607 21.3723 31.2 22.4098 30.5047C23.6034 29.7052 24.4549 28.4372 24.8045 27.0502C24.9681 26.4069 24.8937 25.7153 25.1057 25.0943C25.325 24.4547 25.6932 23.8374 25.946 23.2053C27.017 20.5206 27.5524 17.6796 28.7832 15.0247C29.9731 12.4552 31.5089 9.99728 33.3346 7.79594C35.3203 5.39752 37.6518 3.30774 40.2547 1.70508C39.9944 1.71252 39.7341 1.72739 39.4776 1.74598C38.7785 1.79432 38.0794 1.87613 37.3878 1.99512C31.4717 2.99167 26.3179 6.49819 22.4581 11.1574C20.6323 13.3588 19.0966 15.8167 17.9067 18.3862C16.0251 22.4467 14.8836 26.7676 14.1919 31.1889L14.1436 31.1814C13.1508 32.5164 12.1988 33.8699 11.2878 35.242C8.287 39.7711 5.77331 44.501 4.02563 49.5395C2.99561 52.5032 2.22589 55.5709 1.77595 58.7725C0.727342 66.2169 1.74249 74.1038 5.23041 80.8119C8.71091 87.52 14.7051 92.064 21.5136 95.0908C21.8297 95.2359 22.1495 95.3734 22.4693 95.5073C32.3083 99.6423 43.382 100.899 53.9647 101.401C59.5462 101.665 65.2578 101.669 70.9916 101.36C78.9864 100.936 87.022 99.9174 94.8196 98.1735C95.4034 98.0433 95.9835 97.9057 96.5673 97.7681C96.3516 97.612 96.1434 97.4446 95.9352 97.2848V97.2922Z" fill="#E2C7C7"/>
<path d="M22.3381 62.9459C21.68 63.5 21.1445 64.1767 20.8098 64.9762C20.2558 66.3111 20.2818 68.5013 21.1965 69.6987C21.2672 69.7916 21.3936 69.8586 21.5089 69.8177C21.6465 69.773 21.6985 69.6131 21.7357 69.4756C21.9179 68.7876 22.0704 68.0811 22.3232 67.4155C22.4534 67.0771 22.6021 66.7462 22.7769 66.4301C22.8736 66.2554 23.3049 65.7943 23.3049 65.6195C24.3275 64.2734 25.893 63.2062 27.4956 62.6782C28.2431 62.4328 28.8343 62.2208 29.5073 61.8192C29.9833 61.5366 30.5225 61.399 31.0579 61.2875C29.2954 61.0197 27.3506 60.9937 25.6029 61.3804C24.4205 61.6407 23.2603 62.1688 22.3381 62.9422V62.9459Z" fill="#E2C7C7"/>
<path d="M24.2878 71.6405C23.2541 76.5043 27.0878 80.4124 31.1856 82.3088C33.2345 83.257 35.4804 83.6475 37.6966 84.0305C43.8024 85.0865 49.975 85.7298 56.1328 86.388C62.3353 87.0536 68.5525 87.6077 74.7736 88.0576C76.2424 88.1654 77.7409 88.3588 79.2134 88.3588C80.9239 88.4666 82.6418 88.5782 84.304 88.9872C87.0891 89.6714 89.5694 90.9915 92.1277 92.2669C92.0979 92.0438 92.0756 92.0401 92.1165 91.8244C92.1574 91.6087 92.2764 91.4154 92.295 91.1811C92.3248 90.8055 92.2653 90.3407 91.9864 90.0656C91.8376 89.9168 91.6443 89.8276 91.4509 89.7383C90.4283 89.2624 89.2198 88.8831 88.3237 88.2063C87.3457 87.4701 86.3715 86.7264 85.3489 86.0496C84.7242 85.6369 83.9284 85.622 83.181 85.6183C67.2288 85.5104 51.2839 84.0007 35.5957 81.104C32.3978 80.5128 28.9285 79.6985 26.9354 77.129C25.6488 75.4668 25.1914 73.1949 25.7306 71.1646C26.2549 69.1938 27.5787 67.8997 29.2148 66.8102C26.8833 66.4235 24.682 69.7553 24.2804 71.6442L24.2878 71.6405Z" fill="#E2C7C7"/>
<path d="M94.9792 92.8701C100.07 94.4951 105.714 94.3129 110.69 92.3681C112.489 91.6654 114.2 90.7395 115.818 89.6797C112.259 90.6762 108.667 91.6393 104.986 91.9665C103.279 92.119 101.553 92.1227 99.8504 91.9368C98.984 91.8401 98.125 91.6951 97.2772 91.4906C96.4294 91.2861 95.6076 90.8101 94.8007 90.7023C94.2801 90.6316 94.3731 90.8436 94.5069 91.2898C94.6631 91.8178 94.823 92.3421 94.9829 92.8664L94.9792 92.8701Z" fill="#E2C7C7"/>
<path d="M87.5971 46.7696C86.7493 45.8325 85.9052 44.8955 85.0574 43.9584C84.3063 43.1255 83.5552 42.2926 82.9007 41.3778C82.607 40.9651 82.395 40.4742 82.0938 40.0838C81.7666 39.6599 81.3947 39.3178 81.2386 38.786C81.008 37.9866 81.3278 37.1499 81.536 36.343C81.9116 34.9077 81.9413 33.4091 81.9674 31.9292C81.9711 31.6354 81.9153 31.2561 82.0306 30.9772C82.1273 30.743 82.3132 30.5236 82.4322 30.293C82.5995 29.9658 82.7669 29.6386 82.923 29.3039C83.042 29.0436 83.3097 28.6197 83.3097 28.326C83.7783 26.8683 83.7262 25.288 83.3283 23.8192C83.1387 23.1201 82.8784 22.4024 82.54 21.7591C82.369 21.4356 82.038 21.1716 81.7852 20.9039C81.4914 20.599 81.2014 20.2941 80.9076 19.9891C80.6139 19.6842 80.3201 19.3756 80.0858 19.0223C79.766 18.5427 79.6582 17.9477 79.1934 17.5982C78.6245 17.1668 78.1039 16.6537 77.5424 16.2075C76.3079 15.2183 75.1179 14.2329 73.5897 13.7347C73.3517 13.6566 73.1063 13.5896 72.8943 13.4521C72.7047 13.3294 72.5485 13.162 72.396 12.9947L71.4404 11.9424C71.2433 11.723 71.076 11.4478 70.8454 11.2619C70.5814 11.0499 70.2393 10.8938 69.9418 10.7301C69.3432 10.3992 68.7259 10.1054 68.0938 9.84142C68.2016 9.70756 68.3094 9.55882 68.421 9.41008C68.5734 9.20928 68.7333 9.00848 68.9118 8.85975C69.1647 8.65151 69.4324 8.45071 69.6853 8.23876C70.2728 7.7442 70.8826 7.27567 71.5147 6.84061C72.779 5.97049 74.1326 5.23051 75.5493 4.63184C75.6683 4.5835 76.795 4.20421 76.795 4.14844C75.9286 5.95562 76.1145 8.22389 77.2561 9.87117C77.8101 10.6706 78.5836 11.3102 79.4611 11.7341C79.8999 11.9461 80.361 12.106 80.8407 12.2027C81.0935 12.2547 81.3464 12.3142 81.6067 12.344C81.7368 12.3588 82.2463 12.2473 82.2202 12.4369C82.2091 12.5224 82.1347 12.5819 82.0678 12.634C81.6773 12.9426 81.3352 13.3145 81.0638 13.7309C80.8072 14.1214 80.7366 14.4635 81.0117 14.8837C81.2088 15.1812 81.5732 15.3262 81.9302 15.3485C82.3653 15.3708 82.8078 15.2332 83.2317 15.1551C82.8821 15.4712 82.5884 15.8839 82.5437 16.3562C82.4991 16.8284 82.7557 17.3453 83.2094 17.4755C83.5886 17.587 83.9902 17.416 84.3546 17.2635C85.2545 16.8954 86.199 16.6351 87.1621 16.4901C86.4667 16.8247 85.7639 17.1631 85.1839 17.6688C84.8455 17.9626 84.5517 18.3195 84.3509 18.7211C84.1501 19.1227 84.0906 19.4277 84.2394 19.8441C84.548 20.6994 84.905 21.4579 85.578 22.0975C86.3849 22.8635 87.374 23.2391 88.4561 23.4139C86.7233 26.1841 86.1321 29.5493 86.1135 32.7733C86.0949 36.4322 86.6861 40.1879 87.995 43.6089C88.4041 44.6761 88.9135 45.7135 89.449 46.725C90.5496 48.8148 91.7581 50.6666 93.6992 52.0796C93.0856 51.6296 91.8622 51.5627 91.1446 51.5887C90.9289 51.1723 90.7095 50.7558 90.4938 50.3393C90.4046 50.1646 90.3154 50.0233 90.2745 49.8373C90.2224 49.6105 90.2187 49.4023 90.1146 49.1866C89.9844 48.9114 89.7762 48.6586 89.5493 48.4578C89.3486 48.2793 89.1292 48.2458 88.9023 48.1194C88.3483 47.8108 88.0062 47.2344 87.5934 46.777L87.5971 46.7696Z" fill="#E2C7C7"/>
<path d="M39.3762 25.2772C35.5871 28.1404 33.1663 32.5914 32.8949 37.1949C32.6272 41.7983 34.8062 46.3609 38.2383 49.6071C37.7512 49.1498 36.5985 48.9043 35.9775 48.6255C35.178 48.2685 34.3823 47.8966 33.5977 47.5062C32.2033 46.8146 30.8832 46.0746 29.5743 45.2268C26.8896 43.4902 24.2829 41.5752 22.0593 39.2623C21.5721 38.7566 21.349 38.1542 20.966 37.5816C20.6685 37.1391 20.3041 36.9941 20.5012 36.5255C20.6462 36.1797 21.2189 35.7967 21.4941 35.5439C22.9257 34.2498 24.5618 33.2161 26.105 32.0634C28.2245 30.4793 30.4928 29.0849 32.8763 27.895C34.9624 26.8575 37.134 25.9762 39.3688 25.2734L39.3762 25.2772Z" fill="#E2C7C7"/>
<path d="M77.1666 64.7995C75.3483 67.1793 74.5562 70.3103 75.021 73.2664C75.7015 77.5836 78.8474 81.4954 82.2163 84.0835C84.994 86.2179 88.2402 88.2519 91.5943 89.3377C91.8843 88.382 90.8394 86.9393 90.2259 86.2923C89.2256 85.2436 87.9316 84.5371 86.7305 83.7339C83.0418 81.2649 79.9964 77.5353 79.2527 73.1586C78.6242 69.4438 79.829 65.506 82.2907 62.6762C83.0083 61.8507 83.8599 61.252 84.6705 60.5418C81.9039 60.4191 78.7618 62.7171 77.1703 64.7995H77.1666Z" fill="#E2C7C7"/>
<path d="M114.774 89.4964C113.354 89.898 111.989 90.4781 110.546 90.8387C109.103 91.1994 107.661 91.4337 106.192 91.5601C104.225 91.7275 102.239 91.6903 100.279 91.4411C99.3015 91.3147 98.3273 91.1399 97.3679 90.9094C96.9292 90.8053 96.4978 90.6528 96.0516 90.6194C95.6054 90.5859 95.2149 90.4781 94.8431 90.2438C94.3151 89.9091 93.9767 89.3179 93.906 88.7006C93.8837 88.4998 93.8242 88.0462 94.0622 87.9532C94.2853 87.8677 94.9509 88.2061 95.1815 88.2767C96.7098 88.7267 98.2604 89.0948 99.8296 89.3774C102.987 89.9463 106.203 90.1694 109.405 90.043C111.204 89.9723 112.997 89.7901 114.774 89.5001V89.4964Z" fill="#E2C7C7"/>
<path d="M99.7816 68.2364C97.1006 70.0362 95.2934 73.0816 94.9922 76.2944C95.2971 76.22 95.602 76.1456 95.8846 76.0081C96.1672 75.8705 96.4238 75.6622 96.5614 75.3834C96.6804 75.1454 96.7101 74.8702 96.7436 74.6025C97.0671 72.0999 98.2087 69.7127 99.9526 67.8906" fill="#E2C7C7"/>
<path d="M100.169 84.55C102.233 85.4201 104.546 85.5168 106.773 85.2937C104.932 84.6021 103.095 83.9104 101.255 83.2188C100.455 82.9176 99.6223 82.5941 99.0496 81.9619C98.2724 81.103 98.1274 79.8684 97.737 78.7752C97.6477 78.5261 97.5139 78.2509 97.2573 78.184C96.9821 78.1133 96.7144 78.3215 96.521 78.5335C96.2198 78.8607 95.7141 79.3776 95.8034 79.8647C95.8926 80.3518 96.1827 80.8724 96.4132 81.2926C96.9375 82.2371 97.7035 83.0403 98.5811 83.665C99.0756 84.0183 99.6111 84.3157 100.169 84.55Z" fill="#E2C7C7"/>
<path d="M28.764 67.6725C26.4102 69.6247 25.3578 73.1238 26.5366 75.9424C27.4104 78.0248 29.3217 79.5308 31.4078 80.4009C32.7464 80.9624 34.0516 81.1334 35.4423 81.4086C37.019 81.7209 38.5993 82.0296 40.1834 82.3085C46.7205 83.4612 53.3468 84.1194 59.9806 84.2718C53.7335 83.1488 47.4902 82.0259 41.2432 80.9029C38.2014 80.3563 34.4384 79.9435 31.9395 77.9393C30.1547 76.5076 30.0543 74.3621 30.5934 72.2872C30.9467 70.9188 31.4301 69.5206 32.4601 68.5092C33.4901 67.4978 34.8214 66.9846 36.1898 66.7169C36.9037 66.5756 37.6251 66.5347 38.3428 66.438C37.7813 66.1777 37.2198 66.1554 36.6285 66.0178C35.9704 65.8654 35.3048 65.7724 34.6317 65.7538C33.2968 65.7166 31.947 65.9509 30.7162 66.4826C30.0134 66.7838 29.3515 67.1817 28.764 67.6725Z" fill="#E2C7C7"/>
<path d="M72.3661 70.3552C73.3106 72.8317 74.2588 75.3082 75.2033 77.781C74.943 77.7326 74.6753 77.6843 74.415 77.7252C74.1547 77.7661 73.8944 77.9185 73.7977 78.164C73.6155 78.625 74.0543 79.0713 74.4299 79.3911C75.5008 80.2872 76.4676 81.3061 77.3042 82.4216C77.9736 83.3103 78.5685 84.2697 79.3977 85.0134C80.227 85.7571 81.3611 86.2665 82.4469 86.0248C82.8819 85.9281 83.3468 85.6269 83.3505 85.1807C83.3505 84.7122 82.7444 84.0317 82.4692 83.645C82.0825 83.1021 81.4429 82.7265 80.9521 82.284C79.8402 81.2763 78.8437 80.1385 77.9959 78.9039C76.7353 77.0707 75.5194 74.8731 75.274 72.6383C75.1959 71.9355 75.1921 71.1695 74.7534 70.6155C74.1435 69.8532 73.0094 69.8457 72.0352 69.9089C72.0686 70.1767 72.0947 70.3477 72.3624 70.3589L72.3661 70.3552Z" fill="#E2C7C7"/>
<path d="M60.3788 59.0297C63.3462 58.7285 66.373 58.0555 68.8123 56.3375C68.2992 56.6982 66.9382 56.6796 66.3172 56.7726C65.4434 56.9065 64.5658 57.0254 63.6883 57.1221C61.9703 57.3155 60.245 57.4345 58.5196 57.4865C55.0651 57.5907 51.5995 57.4159 48.1748 56.9659C46.4234 56.7354 44.6794 56.4342 42.9503 56.0586C42.1062 55.8764 41.2659 55.6756 40.4292 55.4562C40.154 55.3856 39.5628 55.0881 39.2988 55.1513C38.7708 55.2815 39.4252 55.5157 39.6372 55.6087C42.6566 56.9845 45.847 57.9774 49.1118 58.5723C52.8229 59.2491 56.6269 59.409 60.3788 59.026V59.0297Z" fill="#E2C7C7"/>
<path d="M94.9439 52.5641C94.9439 52.5641 94.955 52.5641 94.9625 52.5641C94.7171 52.9285 94.1519 53.1739 93.8469 53.5346C93.4639 53.9882 93.1999 54.5125 93.0066 55.0517C92.9024 55.3455 92.4376 57.7067 92.0658 57.5766C91.8762 57.5096 92.0175 56.2825 91.9914 56.052C91.9319 55.4831 91.7534 54.9588 91.5861 54.4084C91.4448 53.9473 91.2886 53.4751 91.2031 52.9991C91.1511 52.7128 91.0544 52.222 91.3407 51.9989C91.7088 51.7088 92.512 51.9914 92.8987 52.0769C93.5792 52.2294 94.2299 52.5603 94.9439 52.5678V52.5641Z" fill="#E2C7C7"/>
<path d="M124.71 83.7094C125.354 83.795 125.99 84.3007 125.99 84.9477C127.027 84.1482 128.061 83.3525 129.098 82.553C129.232 82.4489 129.37 82.341 129.448 82.1923C129.526 82.0436 129.526 81.8391 129.403 81.7238C129.31 81.6383 129.173 81.6197 129.046 81.6085C127.652 81.4746 126.164 81.3594 124.919 81.9989C124.313 82.3076 123.599 82.8505 123.23 83.4343C122.825 84.0776 124.394 83.6648 124.714 83.7094H124.71Z" fill="#E2C7C7"/>
<path d="M99.6164 68.9317C98.5566 69.839 97.7869 71.0773 97.4411 72.4308C97.2738 73.0815 97.2031 73.7546 97.2031 74.4276C97.2031 75.004 97.2589 75.5766 97.311 76.153C97.3742 76.8409 97.4411 77.5251 97.5043 78.213C97.5564 78.7745 97.6121 79.3434 97.7981 79.8789C98.103 80.7639 98.75 81.4927 99.4565 82.11C101.662 84.0362 104.621 85.0662 107.544 84.9323C105.365 84.6683 103.283 83.6569 101.729 82.1063C100.174 80.5557 99.159 78.4733 98.895 76.2943C98.5641 73.5761 99.3673 70.8505 100.394 68.3145C99.9957 68.69 99.5941 69.0656 99.1962 69.4374" fill="#E2C7C7"/>
</g>
<path d="M96.2684 97.0905C88.7162 98.7527 80.9446 99.7306 73.2102 100.14C67.5581 100.445 61.9283 100.441 56.425 100.181C45.9909 99.686 35.0772 98.4478 25.3757 94.3723C25.0597 94.2422 24.7436 94.1046 24.4349 93.9633C17.7231 90.9811 11.8144 86.5003 8.38229 79.8889C4.94271 73.2774 3.94244 65.5021 4.97617 58.1618C5.41867 55.0048 6.17724 51.9817 7.19238 49.059C8.91404 44.0911 10.5427 38.3238 13.4989 33.8579C13.8522 33.3261 12.8556 44.1506 13.22 43.6226C13.7852 42.812 12.982 44.2175 13.5733 43.4181C14.1311 40.3615 14.2612 37.2231 14.7744 34.1516C15.2949 31.043 15.9977 27.9604 16.9906 24.967C17.3773 23.7994 17.8086 22.6504 18.2846 21.5162C18.8907 20.0772 19.5823 18.6716 20.3558 17.3144C21.8134 14.7598 23.6838 12.4543 25.7438 10.3645C29.9494 6.10317 34.843 2.32148 41.0565 2.00913C41.3466 1.99425 41.6403 1.98682 41.9304 1.98682C36.0477 1.87898 30.3473 3.75681 25.7736 7.48272C24.9741 8.13346 24.2118 8.83625 23.4905 9.57622C19.415 13.7707 16.6596 19.1662 15.0607 24.755C14.4397 26.9341 13.9712 29.154 13.6216 31.3888L13.5733 31.3814C12.5805 32.7163 11.6285 34.0698 10.7175 35.4419C7.71669 39.971 5.203 44.7009 3.45532 49.7395C2.4253 52.7031 1.65557 55.7708 1.20564 58.9724C0.15703 66.4168 1.17217 74.3037 4.6601 81.0118C8.14059 87.72 14.1348 92.2639 20.9433 95.2908C21.04 95.3354 21.1218 95.3243 21.1924 95.4172C21.2557 95.4953 21.2854 95.6069 21.2705 95.7035C21.2445 95.8857 21.1181 96.0345 20.9916 96.1646C20.8392 96.3208 20.6719 96.4658 20.4971 96.596C20.3372 96.715 20.1178 96.8042 19.9839 96.9529C19.824 97.1277 19.6976 97.3657 19.7125 97.6111C19.7608 98.418 20.0732 99.1468 20.5938 99.7604C20.6272 99.8645 20.7016 99.95 20.8132 99.9984C21.2742 100.445 21.8841 100.783 22.5088 100.898C22.7059 100.935 22.8992 100.935 23.0814 100.868C23.5314 100.958 23.9813 101.047 24.4312 101.136C25.5468 101.356 26.666 101.575 27.7816 101.794C29.9866 102.229 32.188 102.661 34.393 103.096C36.5386 103.52 38.6841 103.992 40.8557 104.297C41.8077 104.431 42.7707 104.513 43.7301 104.602C44.3362 104.736 44.9461 104.873 45.5522 105.007C45.7046 105.041 45.8199 104.985 45.9017 104.896C45.9612 104.907 46.0207 104.918 46.0839 104.929C47.2887 105.141 48.4935 105.357 49.702 105.569C50.5126 105.714 51.3418 105.892 52.171 105.948C52.2305 106.011 52.3123 106.056 52.4239 106.056C52.7065 106.059 52.9891 106.071 53.2717 106.078C54.5769 106.268 55.8821 106.442 57.191 106.599C59.608 106.885 62.0324 107.09 64.4643 107.216C64.4718 106.937 64.5536 106.695 64.6837 106.491C63.4157 106.335 62.1514 106.182 60.8871 106.019C57.3546 105.557 53.8295 105.048 50.3118 104.498C41.4507 103.107 32.6305 101.437 23.8735 99.4889C23.2934 99.3588 22.6947 99.2212 22.2262 98.8568C21.3635 98.1875 21.4862 96.9827 22.0142 96.1535C22.1109 96.001 22.0812 95.8523 21.9882 95.7482C31.805 99.8534 42.8451 101.106 53.3944 101.605C58.9759 101.869 64.6874 101.872 70.4213 101.564C78.416 101.14 86.4517 100.121 94.2493 98.3771C95.0376 98.2023 95.8259 98.0164 96.6105 97.8231C96.4395 97.6074 96.3205 97.3508 96.2647 97.0868L96.2684 97.0905Z" fill="#F9F398"/>
<path d="M71.1916 33.9665C71.0763 34.0036 70.9499 34.0334 70.8198 34.0557C70.0389 34.1821 69.2357 33.9367 68.5441 33.55C67.8524 33.1633 67.2463 32.6427 66.6142 32.1667C65.3908 31.2445 64.0447 30.4711 62.5982 29.9579C61.5124 29.5712 60.356 29.3221 59.4078 28.6676C58.4558 28.0132 57.7121 26.7452 58.2439 25.611C58.6232 24.7967 59.3966 24.2055 60.1775 23.8076C62.6354 22.5545 65.6325 22.9709 68.0049 24.2017C70.0389 25.3098 71.7754 27.0947 72.467 29.3444C72.9356 30.869 72.9951 33.3678 71.1953 33.9627L71.1916 33.9665Z" fill="#F9F398"/>
<path d="M71.5903 38.1031C71.8803 36.8296 71.1739 35.5828 70.0126 35.3183C68.8512 35.0538 67.6746 35.8718 67.3845 37.1453C67.0945 38.4188 67.8009 39.6656 68.9622 39.9301C70.1236 40.1946 71.3002 39.3766 71.5903 38.1031Z" fill="#F9F398"/>
<path d="M66.0636 35.914C66.6363 35.5834 66.7859 34.7703 66.3978 34.098C66.0096 33.4258 65.2307 33.1488 64.658 33.4795C64.0853 33.8101 63.9357 34.6231 64.3239 35.2954C64.712 35.9677 65.4909 36.2446 66.0636 35.914Z" fill="#F9F398"/>
<path d="M115.84 33.9645C115.725 34.0017 115.598 34.0314 115.468 34.0537C114.687 34.1802 113.884 33.9348 113.192 33.548C112.501 33.1613 111.895 32.6407 111.263 32.1648C110.039 31.2426 108.693 30.4691 107.247 29.956C106.161 29.5693 105.004 29.3201 104.056 28.6657C103.104 28.0112 102.361 26.7432 102.892 25.6091C103.272 24.7947 104.045 24.2035 104.826 23.8056C107.284 22.5525 110.281 22.969 112.653 24.1998C114.687 25.3079 116.424 27.0928 117.115 29.3424C117.584 30.867 117.644 33.3658 115.844 33.9608L115.84 33.9645Z" fill="#F9F398"/>
<path d="M116.239 38.1012C116.529 36.8276 115.822 35.5808 114.661 35.3163C113.5 35.0518 112.323 35.8698 112.033 37.1433C111.743 38.4168 112.449 39.6636 113.611 39.9281C114.772 40.1926 115.949 39.3747 116.239 38.1012Z" fill="#F9F398"/>
<path d="M110.712 35.914C111.285 35.5834 111.434 34.7703 111.046 34.098C110.658 33.4258 109.879 33.1488 109.306 33.4795C108.734 33.8101 108.584 34.6231 108.972 35.2954C109.36 35.9677 110.139 36.2446 110.712 35.914Z" fill="#F9F398"/>
<path d="M28.8016 68.7155C27.753 69.805 26.9349 71.1994 26.8271 72.7166C26.6932 74.6762 27.779 76.5577 29.2515 77.8369C30.724 79.1161 32.5424 79.8895 34.3384 80.6295C31.8321 80.9009 29.2218 79.804 27.6451 77.8109C27.1952 77.2457 26.8308 76.6135 26.5407 75.9479C26.2507 75.2823 26.1429 74.5944 25.838 73.9771C25.5591 73.4194 25.4364 73.0029 25.455 72.3559C25.4735 71.6047 25.6186 70.8573 25.8863 70.1545C26.3176 69.0278 27.0688 68.0276 28.0244 67.3062C28.928 66.622 30.0212 66.0531 31.0327 65.5511C31.3748 65.38 31.6834 65.3949 32.0515 65.38C32.6242 65.3577 33.1894 65.2908 33.7657 65.3131C33.9703 65.3205 34.8701 65.2908 34.8255 65.5436C34.7735 65.83 33.9219 65.8523 33.7063 65.908C32.8436 66.12 32.0069 66.4435 31.2297 66.8748C30.3373 67.3657 29.5192 67.9867 28.8127 68.7229L28.8016 68.7155Z" fill="#F9F398"/>
<path d="M22.0886 69.5576C22.7096 67.5198 23.9404 65.6755 25.5803 64.3182C27.2201 62.961 29.269 62.102 31.3848 61.8789C28.9158 62.7379 26.443 63.8571 24.6916 65.7945C23.8921 66.6795 23.2748 67.7058 22.6576 68.7246C22.3824 69.182 22.1035 69.6394 21.9102 70.1376" fill="#F9F398"/>
<path d="M75.5395 68.4264C74.647 72.3717 75.9894 76.5773 78.3618 79.8533C80.3809 82.6384 83.0768 84.8063 85.9995 86.5763C87.6766 87.5914 89.428 88.4801 91.2389 89.235C91.3281 88.9858 91.2091 88.6995 91.0195 88.5136C90.8298 88.3277 90.577 88.2235 90.3353 88.1157C88.8702 87.465 87.4832 86.6469 86.1297 85.7879C84.8542 84.9773 83.6011 84.1258 82.4744 83.1218C81.2139 81.9951 79.9607 80.675 78.9939 79.2843C77.0938 76.5475 75.9671 73.2046 76.2274 69.884C76.3501 68.3186 76.7963 66.7754 77.5363 65.3884C77.9118 64.6856 78.3618 64.0237 78.8824 63.4213C79.2765 62.9639 79.8938 62.5735 80.1913 62.0566C77.7817 63.0086 76.0824 66.0354 75.5432 68.4264H75.5395Z" fill="#F9F398"/>
<path d="M105.527 91.7326C105.88 91.7512 106.234 91.7549 106.583 91.7103C106.847 91.6769 107.111 91.6174 107.353 91.5058C107.438 91.4649 107.996 91.16 107.74 91.0819C107.665 91.0596 107.543 91.0856 107.464 91.0893C107.379 91.0893 107.297 91.0893 107.212 91.0931C107.037 91.0931 106.858 91.1005 106.684 91.1005C106.33 91.1042 105.977 91.1079 105.628 91.1116C104.285 91.1191 102.943 91.0931 101.6 90.9964C100.258 90.8997 98.9417 90.7398 97.6328 90.4684C96.9821 90.3345 96.3314 90.1709 95.6955 89.9812C95.4166 89.8957 95.134 89.8325 94.8588 89.747C94.7213 89.7061 94.3569 89.5536 94.2304 89.68C93.9553 89.9589 94.6171 90.0705 94.7361 90.1002C96.3909 90.5278 98.0679 90.8737 99.7561 91.1377C101.667 91.4389 103.594 91.636 105.527 91.7289V91.7326Z" fill="#F9F398"/>
<path d="M107.624 101.341C99.0605 101.341 92.1181 94.756 92.1181 86.6311C92.1181 82.2619 94.1261 78.3427 97.3128 75.6468C97.2384 75.5501 97.1604 75.4608 97.0823 75.3827C97.019 75.3195 96.9484 75.2935 96.8703 75.2972C96.5989 75.3084 96.2642 75.6654 96.0894 75.8252C95.6172 76.2566 95.1598 76.7065 94.7508 77.2011C94.0257 78.0749 93.3973 79.0306 92.8841 80.042C91.8318 82.1281 91.2852 84.4484 91.2852 86.7836C91.2852 87.6686 91.3632 88.535 91.512 89.3791C92.0883 92.6774 93.7431 95.6038 96.1006 97.7903C97.7479 99.3148 99.7335 100.479 101.935 101.155C103.355 101.594 104.861 101.829 106.423 101.829C108.476 101.829 110.432 101.42 112.216 100.687C110.766 101.115 109.223 101.341 107.628 101.341H107.624Z" fill="#F9F398"/>
<path d="M49.2564 29.0796C48.0331 32.2366 48.3454 35.8026 50.1005 38.77C51.8556 41.7373 55.0387 44.0725 58.7423 45.11C56.831 43.9758 54.8936 42.8231 53.3728 41.3171C50.8702 38.8406 49.658 35.5052 49.7993 32.2366C49.8886 30.1543 50.5096 28.098 51.521 26.2053C51.7032 25.8632 53.2352 23.7845 53.0158 23.6135C52.7667 23.4201 51.1863 25.64 50.9818 25.9301C50.2864 26.9266 49.6803 27.9752 49.2527 29.0759L49.2564 29.0796Z" fill="#F9F398"/>
<path d="M93.4361 29.0777C92.2127 32.2347 92.5251 35.8007 94.2802 38.768C96.0353 41.7354 99.2183 44.0706 102.922 45.108C101.011 43.9739 99.0733 42.8212 97.5525 41.3152C95.0499 38.8387 93.8377 35.5032 93.979 32.2347C94.0683 30.1523 94.6892 28.096 95.7007 26.2033C95.8829 25.8612 97.4149 23.7826 97.1955 23.6115C96.9464 23.4182 95.366 25.6381 95.1615 25.9281C94.4661 26.9247 93.86 27.9733 93.4324 29.074L93.4361 29.0777Z" fill="#F9F398"/>
<g style="mix-blend-mode:soft-light">
<path d="M81.9079 2.31513C84.2506 1.75736 86.7085 1.92097 89.0958 2.26307C95.7035 3.21129 102.114 5.50187 107.826 8.95633C106.383 7.04875 104.226 5.81794 102.04 4.85485C95.6514 2.04368 88.4487 1.11407 81.5547 2.21845" fill="white"/>
<path d="M104.527 9.07227C107.93 9.38834 111.262 10.4369 114.207 12.1214C114.497 12.285 115.779 13.1254 115.984 12.5751C116.166 12.0805 115.132 11.5079 114.798 11.2922C113.626 10.5448 112.254 10.132 110.893 9.85315C108.971 9.45899 107.004 9.29537 105.048 9.13548" fill="white"/>
<path d="M117.749 13.8539C117.422 13.7052 115.024 12.6677 114.849 13.2106C114.778 13.4263 117.407 14.5641 117.738 14.7277C118.307 15.0066 118.88 15.2855 119.434 15.5941C120.442 16.1556 121.394 16.8101 122.279 17.5501C122.502 17.736 122.714 17.9293 122.929 18.119C123.238 18.3942 123.167 18.1339 123.063 17.881C122.874 17.4236 122.569 17.022 122.212 16.6799C121.747 16.2337 121.2 15.8842 120.661 15.5346C119.717 14.9285 118.768 14.3224 117.749 13.8502V13.8539Z" fill="white"/>
<path d="M114.449 15.2832C116.784 16.2165 119.049 17.3246 121.221 18.5926C122.485 19.3326 123.731 20.1358 124.735 21.1993C126.601 23.1812 127.497 26.037 127.099 28.7292C127.036 29.1457 127.073 29.1903 127.025 29.6105C128.2 28.3945 128.512 26.5167 128.126 24.8694C127.739 23.2221 126.731 21.7831 125.564 20.556C122.637 17.4845 118.681 15.6104 114.449 15.2869V15.2832Z" fill="white"/>
<path d="M124.654 49.7709C125.298 49.1834 125.829 48.4545 126.209 47.6737C126.975 46.097 127.209 44.3122 127.25 42.557C127.261 42.029 127.257 41.4936 127.131 40.9767C127.005 40.4598 126.748 39.9653 126.331 39.638C126.038 39.4075 125.651 39.2662 125.29 39.3629C125.041 39.4298 124.662 39.7198 124.777 40.0099C124.863 40.2256 125.353 40.4412 125.521 40.616C126.008 41.118 126.309 41.791 126.424 42.4752C126.592 43.4829 126.387 44.5204 126.064 45.4909C125.354 47.6216 124.067 49.5552 122.375 51.0277C122.628 50.8083 123.253 50.7302 123.569 50.5555C123.885 50.3807 124.257 50.0051 124.658 50.0237C125.38 50.0609 126.216 51.1951 126.677 51.6822C127.968 53.0543 129.065 54.6012 130.02 56.2224C131.117 58.0817 132.036 60.0413 132.913 62.0121C133.028 62.2761 133.207 63.0681 133.571 63.0905C133.984 63.1128 133.742 62.3282 133.709 62.0716C133.579 61.049 133.333 60.0376 132.98 59.0708C132.233 57.0182 131.017 55.1775 129.674 53.467C128.998 52.6044 128.273 51.7826 127.573 50.9348C126.945 50.1725 125.922 49.5478 125.487 48.6293C125.718 49.1164 125.383 49.7783 124.852 49.8824" fill="white"/>
<path d="M114.305 60.9753C116.841 59.5623 120.128 59.8003 122.612 61.3025C125.096 62.8048 126.795 65.4338 127.479 68.2524C128.164 71.071 127.896 74.0718 127.063 76.8532C128.695 73.5438 129.056 69.6282 128.052 66.0771C127.468 64.0133 126.394 62.0239 124.679 60.7373C123.084 59.54 121.017 59.0343 119.035 59.2276C117.053 59.421 115.156 60.28 113.613 61.5405" fill="white"/>
<path d="M134.596 65.6814C135.827 65.8041 137.076 66.2986 137.842 67.2692C138.772 68.4405 138.813 70.2365 137.935 71.4487C138.995 70.7906 139.913 69.7457 140.032 68.5037C140.151 67.2617 139.415 66.0346 138.366 65.3579C137.318 64.6811 136.009 64.4989 134.767 64.6328C134.25 64.6885 133.744 64.7927 133.242 64.9265C132.908 65.0158 132.242 65.0864 132.101 65.4731C131.926 65.9565 132.547 65.7223 132.837 65.6962C133.421 65.6405 134.008 65.6219 134.592 65.6814H134.596Z" fill="white"/>
<path d="M135.321 73.5219C136.418 73.8082 137.425 74.485 138.024 75.4518C138.623 76.4186 138.768 77.668 138.325 78.7092C139.132 77.8093 139.496 76.5227 139.24 75.344C138.983 74.1652 138.102 73.1278 136.964 72.7299C136.187 72.4584 135.332 72.4733 134.525 72.6406C134.346 72.6778 132.55 73.1092 132.87 73.4401C132.948 73.5182 133.896 73.3509 134.053 73.3546C134.48 73.362 134.908 73.4178 135.321 73.5256V73.5219Z" fill="white"/>
<path d="M108.212 67.4148C109.317 67.8201 110.373 68.4151 111.169 69.2815C112.08 70.278 112.597 71.5646 113.009 72.8512C113.392 74.0448 113.705 75.2831 113.66 76.5325C113.567 79.0425 112.068 81.2549 110.629 83.3113C112.451 82.6271 113.857 81.0356 114.53 79.2098C115.203 77.384 115.188 75.35 114.72 73.461C114.162 71.2113 112.935 69.0844 111.068 67.7123C109.815 66.7901 108.272 66.2472 106.714 66.2249C106.42 66.2212 104.661 66.2509 105.595 66.7046C105.963 66.883 106.487 66.9054 106.889 67.0058C107.339 67.121 107.785 67.2512 108.22 67.4111L108.212 67.4148Z" fill="white"/>
<path d="M102.869 96.5089C103.639 97.0927 104.022 98.1414 103.814 99.0858C104.297 98.7735 104.669 98.2975 104.851 97.7546C104.967 97.4088 105.004 97.0109 104.829 96.6911C104.625 96.323 104.175 96.1445 103.751 96.1445C103.327 96.1445 102.922 96.3007 102.527 96.4494" fill="white"/>
<path d="M81.1408 44.3176C80.9958 45.9165 80.3414 47.4671 79.2965 48.6831C78.6718 49.4082 77.9243 50.0106 77.1769 50.613C76.0242 51.5389 74.8715 52.4648 73.7188 53.3907C75.6189 52.4127 77.5302 51.431 79.1998 50.0998C80.8694 48.7686 82.301 47.0544 82.9406 45.0166C83.2157 44.1391 83.3422 43.2169 83.3087 42.2984C83.2604 40.9933 82.7212 39.1972 81.1854 38.9927C79.8803 38.8217 80.6797 40.8296 80.8545 41.4358C81.126 42.3691 81.2263 43.3508 81.1408 44.3176Z" fill="white"/>
<path d="M81.5452 23.0189C80.1917 21.1783 78.2283 19.8917 76.2241 18.7984C72.2973 16.6566 68.088 15.3217 63.875 13.8789C64.4625 14.0797 65.2508 14.0388 65.8681 14.1318C66.5895 14.2433 67.3034 14.3735 68.0174 14.5259C69.4118 14.8234 70.7914 15.199 72.1449 15.6489C74.6734 16.493 77.3024 17.6048 79.5149 19.1182C81.2142 20.2821 82.7128 21.7918 83.6238 23.6399C84.0031 24.4096 84.282 25.2426 84.3675 26.0978C84.427 26.6705 84.4977 28.1355 83.9994 28.5594C83.5011 28.9833 83.0995 28.2136 83.0735 27.812C83.0177 26.9902 83.0177 26.2391 82.7723 25.4359C82.5083 24.5695 82.0881 23.7515 81.5526 23.0226L81.5452 23.0189Z" fill="white"/>
<path d="M66.7773 12.3281C70.7673 12.7892 74.6494 14.1465 78.0518 16.2771C78.6504 16.6527 79.2751 17.0989 79.4982 17.772C79.5689 17.9876 79.5763 18.2665 79.3867 18.3892C79.2008 18.5119 78.9554 18.4041 78.762 18.2963C78.5426 18.1736 78.3232 18.0546 78.1038 17.9319C77.9662 17.8575 77.6427 17.7534 77.6055 17.5972C77.5944 17.5451 77.6576 17.4894 77.6427 17.4336C77.6204 17.3518 77.4903 17.2849 77.4271 17.2365C77.2523 17.0989 77.0738 16.9651 76.8916 16.8349C76.1665 16.3106 75.4005 15.8458 74.6122 15.4219C73.0318 14.5741 71.3622 13.9048 69.6703 13.3061C68.711 12.9677 67.7441 12.6479 66.7773 12.3318V12.3281Z" fill="white"/>
<path d="M68.1104 11.0297C67.3035 10.6802 66.4371 10.4831 65.5818 10.286C63.4921 9.80634 61.4023 9.32665 59.3125 8.84697C62.674 8.79119 66.0467 9.46052 69.1293 10.7992C69.8283 11.1004 70.5163 11.4425 71.1373 11.885C71.3343 12.0263 71.5463 12.2233 71.5277 12.465C71.5054 12.7291 71.2005 12.8927 70.9365 12.8629C70.3898 12.7997 70.0403 12.3684 69.6722 12.0225C69.2185 11.5986 68.6793 11.2751 68.1104 11.0297Z" fill="white"/>
<path d="M48.1055 1.94336C52.8911 2.51972 57.5206 4.3269 61.4325 7.14179C62.0683 7.59916 62.7005 8.10115 63.0984 8.77792C62.8269 8.73329 62.4699 8.73329 62.2208 8.62546C62.0126 8.53622 61.8043 8.34285 61.6147 8.21643C61.1648 7.91895 60.7111 7.62891 60.25 7.3463C59.3315 6.78109 58.3945 6.24563 57.4426 5.73992C55.5313 4.7285 53.553 3.83606 51.5227 3.08121C50.9538 2.86926 50.3812 2.66474 49.8048 2.4751C49.2731 2.29661 48.667 2.01029 48.1092 1.94336H48.1055Z" fill="white"/>
<path d="M80.0716 36.1889C79.4357 38.2713 78.1305 40.1714 76.844 42.0381C75.6838 43.7188 74.5274 45.3959 73.3672 47.0766C76.9183 45.3438 79.2015 42.2538 80.6071 39.0559C81.8565 36.215 82.5146 33.0989 81.6445 30.165C80.9826 27.9339 78.666 24.5464 75.6094 24.1113C75.6764 24.5464 76.342 24.8996 76.6841 25.212C77.1452 25.6359 77.5728 26.0896 77.9558 26.5618C78.6995 27.484 79.2907 28.488 79.7146 29.5403C80.5736 31.6747 80.7409 34.0062 80.0716 36.1889Z" fill="white"/>
<path d="M124.035 30.2159C124.519 32.8188 124.199 35.5258 123.444 38.0656C122.689 40.6053 121.511 42.9963 120.25 45.3277C122.046 43.7957 123.545 41.9105 124.563 39.7835C125.88 37.0318 126.371 33.8897 125.95 30.8666C125.776 29.5949 125.43 28.3269 124.738 27.2448C123.742 25.6905 122.076 24.5638 120.458 23.7383C121.154 24.746 122.12 25.486 122.738 26.5978C123.355 27.7096 123.794 28.9516 124.028 30.2159H124.035Z" fill="white"/>
</g>
<path d="M83.2734 42.5762C86.8543 44.5358 89.6023 47.8899 90.9818 51.7236C91.6326 53.5196 91.9784 55.4235 91.9672 57.3385" stroke="#75284D" stroke-width="1.11554" stroke-miterlimit="10" stroke-linecap="round"/>
<path d="M126.027 49.1133C130.534 53.2334 133.394 58.6028 134.238 64.6491" stroke="#75284D" stroke-width="1.11554" stroke-miterlimit="10" stroke-linecap="round"/>
<path d="M121.637 88.0997C124.634 86.2293 127.438 84.0577 130.026 81.4883" stroke="#75284D" stroke-width="1.11554" stroke-miterlimit="10" stroke-linecap="round"/>
<path d="M99.0469 97.1593C100.575 96.7614 102.092 96.3338 103.595 95.8727C106.235 95.0732 108.83 94.1734 111.37 93.1768C113.869 92.1989 116.275 91.1093 118.58 89.8711" stroke="#75284D" stroke-width="1.11554" stroke-miterlimit="10" stroke-linecap="round"/>
<path d="M14.1436 31.1855C14.1324 31.2041 14.1176 31.219 14.1027 31.2376C7.93003 39.5707 3.22244 48.5099 1.77595 58.7803C0.727342 66.221 1.74249 74.1116 5.23041 80.8197C8.71091 87.5241 14.7051 92.0681 21.5136 95.095C21.8297 95.24 22.1495 95.3776 22.4693 95.5114C32.3083 99.6464 43.382 100.907 53.9647 101.405C59.5536 101.669 65.2726 101.673 71.0139 101.364C78.9975 100.94 87.0294 99.9215 94.8196 98.1776C95.2101 98.092 95.5968 98.0028 95.9835 97.9136" stroke="#75284D" stroke-width="1.11554" stroke-miterlimit="10" stroke-linecap="round"/>
<path d="M39.5203 66.2846C38.2597 66.0541 36.9991 65.8087 35.7423 65.5558C31.3322 64.6708 26.9667 67.1473 25.959 71.2674C25.8288 71.8029 25.7656 72.342 25.7656 72.8775C25.7656 76.4398 28.5768 79.7753 32.708 80.6082C33.8161 80.8313 34.9242 81.047 36.0323 81.2552C36.4302 81.3333 36.8281 81.404 37.2297 81.4783" stroke="#75284D" stroke-width="1.11554" stroke-miterlimit="10" stroke-linecap="round"/>
<path d="M75.0444 70.2284C63.2457 69.8342 51.6478 68.5104 39.9978 66.3723C39.8379 66.3425 39.6817 66.3165 39.5218 66.2831C39.3062 66.2459 39.0868 66.205 38.8711 66.1641" stroke="#75284D" stroke-width="1.11554" stroke-miterlimit="10" stroke-linecap="round"/>
<path d="M134.684 72.5761C135.227 72.4571 135.781 72.3381 136.347 72.2117C138.637 71.7097 140.084 69.5939 139.589 67.5339C139.165 65.7713 137.507 64.6074 135.659 64.6074C135.346 64.6074 135.023 64.6409 134.703 64.7115C134.558 64.745 134.413 64.7748 134.268 64.8045C132.275 65.2396 130.282 65.6486 128.281 66.0316" stroke="#75284D" stroke-width="1.11554" stroke-miterlimit="10" stroke-linecap="round"/>
<path d="M128.773 73.7886C130.833 73.4056 132.7 73.0114 134.671 72.5801" stroke="#75284D" stroke-width="1.11554" stroke-miterlimit="10" stroke-linecap="round"/>
<path d="M37.4531 73.7129C50.5087 76.1671 63.7167 77.5615 76.9433 77.8962" stroke="#75284D" stroke-width="1.11554" stroke-miterlimit="10" stroke-linecap="round"/>
<path d="M124.59 82.3363C126.438 82.0351 128.223 81.7116 130 81.3658C131.993 80.9791 133.979 80.5663 136.035 80.1312C138.356 79.6441 139.839 77.5358 139.36 75.4683C138.943 73.6983 137.27 72.5195 135.392 72.5195C135.158 72.5195 134.92 72.5381 134.685 72.5753C134.678 72.5753 134.671 72.5753 134.667 72.5753C134.593 72.5865 134.522 72.6013 134.448 72.6162C132.454 73.0364 130.889 73.3673 128.885 73.7392" stroke="#75284D" stroke-width="1.11554" stroke-miterlimit="10" stroke-linecap="round"/>
<path d="M36.0352 81.2578C52.0692 84.2698 68.0475 85.7869 84.2935 85.7014" stroke="#75284D" stroke-width="1.11554" stroke-miterlimit="10" stroke-linecap="round"/>
<path d="M32.2891 61.4199C29.8609 61.472 27.4514 62.3495 25.5624 63.8853C23.6734 65.4173 22.3199 67.5926 21.7695 69.9613" stroke="#75284D" stroke-width="1.11554" stroke-miterlimit="10" stroke-linecap="round"/>
<path d="M104.233 99.0858C104.426 98.8144 104.579 98.5206 104.664 98.2008C104.884 97.3753 104.419 96.0738 103.59 95.873" stroke="#75284D" stroke-width="1.11554" stroke-miterlimit="10" stroke-linecap="round"/>
<path d="M21.4654 95.2131C21.1307 95.2019 20.7588 95.7076 20.6064 95.9568C20.3833 96.3175 20.2569 96.7339 20.2197 97.1504C20.1453 98.0614 20.4056 99.0505 20.8332 99.8463H20.8369C20.9782 100.114 21.2311 100.307 21.5248 100.371C36.1756 103.524 50.8711 105.629 65.7821 107.157C72.2709 107.819 78.8303 108.328 85.3041 107.51C91.25 106.763 97.1698 104.822 101.922 101.211" stroke="#75284D" stroke-width="1.11554" stroke-miterlimit="10" stroke-linecap="round"/>
<path d="M70.7188 101.346C70.8191 101.353 70.9158 101.361 71.0162 101.364C74.6975 101.602 78.3862 101.684 82.0675 101.454C87.0689 101.141 91.5459 100.126 94.8368 98.252" stroke="#75284D" stroke-width="1.11554" stroke-miterlimit="10" stroke-linecap="round"/>
<path d="M64.2495 8.94929C58.6011 3.93679 50.4837 0.921108 42.805 1.30411C35.8217 1.65365 28.0315 4.53918 23.5396 10.0723C23.1864 10.5073 22.8443 10.9536 22.5096 11.4035C21.1077 13.285 19.8063 15.2447 18.687 17.3047C16.3183 21.6628 14.9314 26.3927 14.1021 31.2378C13.5964 34.2089 13.3027 37.2283 13.1242 40.2291C13.0498 41.4859 12.994 42.7428 12.9531 44.0034" stroke="#75284D" stroke-width="1.11554" stroke-miterlimit="10" stroke-linecap="round"/>
<path d="M82.0713 32.0625C82.0044 34.6097 81.4838 36.9597 80.6025 39.0718C79.4758 41.7863 77.7542 44.1066 75.6495 45.951C68.5063 52.2055 58.0463 53.5627 48.962 51.9972C43.0682 50.9784 37.3381 49.2939 31.9091 46.7542C27.209 44.5603 23.4719 41.3103 20.2852 37.1642" stroke="#75284D" stroke-width="1.11554" stroke-miterlimit="10" stroke-linecap="round"/>
<path d="M20.2812 37.1655C28.7259 30.171 38.0072 24.2214 48.9061 22.0908C51.2004 21.6408 53.5244 21.3248 55.8559 21.1426C57.8155 20.9901 59.7826 20.9306 61.746 20.9678C64.0291 21.0087 66.3755 21.1165 68.6735 21.4623C70.6294 21.7561 72.5556 22.2172 74.3739 22.9609C77.6945 24.3107 81.0262 26.75 81.8629 30.2863C82.0005 30.8515 82.0711 31.4427 82.0674 32.0637" stroke="#75284D" stroke-width="1.11554" stroke-miterlimit="10" stroke-linecap="round"/>
<path d="M40.2344 15.0063C47.3106 12.1728 54.7364 10.4958 62.508 11.2581C65.8993 11.5928 69.2496 12.3402 72.4141 13.5003C72.4587 13.5152 72.5033 13.5338 72.5479 13.5487C75.4967 14.6345 78.6239 16.0549 79.9402 18.8661" stroke="#75284D" stroke-width="1.11554" stroke-miterlimit="10" stroke-linecap="round"/>
<path d="M41.6758 11.3825C48.8859 8.74241 56.6724 7.69752 64.2246 9.1031C64.589 9.16632 64.9497 9.24069 65.3104 9.31877C66.2103 9.51213 67.1102 9.73896 67.9766 10.0513C68.4525 10.2186 68.9173 10.4157 69.3673 10.6463C70.6315 11.2933 71.7657 12.2266 72.435 13.4388" stroke="#75284D" stroke-width="1.11554" stroke-miterlimit="10" stroke-linecap="round"/>
<path d="M37.6875 54.8822C44.5667 56.5406 51.5202 57.9053 58.5035 57.6711C65.4868 57.4368 72.537 55.5367 78.6762 50.9852C79.8141 50.1374 80.9334 49.1855 81.8035 47.8692C82.6699 46.5565 83.2648 44.8237 83.1868 43.0575C83.1793 42.9013 83.1644 42.7451 83.1421 42.5889C82.9488 40.9863 82.1307 39.5026 80.9929 39.0898" stroke="#75284D" stroke-width="1.11554" stroke-miterlimit="10" stroke-linecap="round"/>
<path d="M54.9258 13.9494C62.7309 13.0384 70.9896 14.113 77.8539 17.9319C78.2072 18.129 78.5567 18.3335 78.9025 18.5454C79.1963 18.7277 79.49 18.9136 79.7801 19.1069C80.6837 19.7205 81.5501 20.4344 82.2938 21.3678C83.03 22.2937 83.6361 23.465 83.9224 24.7404C84.0191 25.1643 84.0823 25.5994 84.1009 26.0419C84.1753 27.8082 83.4725 29.6228 82.264 30.188" stroke="#75284D" stroke-width="1.11554" stroke-miterlimit="10" stroke-linecap="round"/>
<path d="M37.9648 18.963C42.1927 17.2562 46.469 15.5234 50.9498 14.5938" stroke="#75284D" stroke-width="1.11554" stroke-miterlimit="10" stroke-linecap="round"/>
<path d="M28.4961 50.9199C30.1471 51.9165 31.8725 52.7494 33.6499 53.4076" stroke="#75284D" stroke-width="1.11554" stroke-miterlimit="10" stroke-linecap="round"/>
<path d="M68.6655 21.4886C72.9529 23.8945 75.7045 28.5314 75.355 33.6555C74.8641 40.8061 68.5093 46.1942 61.1653 45.6922C53.8213 45.1865 48.2659 38.9803 48.7567 31.8297C49.0765 27.1593 51.8951 23.24 55.859 21.2246" stroke="#75284D" stroke-width="1.11554" stroke-miterlimit="10" stroke-linecap="round"/>
<path d="M108.599 8.95002C99.831 1.17097 86.9613 -0.900221 76.2856 3.97098C73.4186 5.27616 70.2356 7.0945 68.1719 9.5301" stroke="#75284D" stroke-width="1.11554" stroke-miterlimit="10" stroke-linecap="round"/>
<path d="M126.411 32.0625C126.344 34.5725 125.827 36.8593 124.942 38.9231C121.365 47.3231 111.808 51.9898 102.531 52.5327C98.7379 52.7558 94.9488 52.3691 91.2266 51.6328" stroke="#75284D" stroke-width="1.11554" stroke-miterlimit="10" stroke-linecap="round"/>
<path d="M84.4609 24.7187C89.4846 22.6921 94.8132 21.5543 100.201 21.1415C101.488 21.0411 102.774 20.9816 104.065 20.963C106.965 20.9221 110.04 20.9668 113.026 21.4241C116.291 21.9187 119.441 22.9041 122.129 24.7968C124.055 26.154 125.65 28.0319 126.205 30.2927C126.342 30.8579 126.416 31.4491 126.413 32.0627" stroke="#75284D" stroke-width="1.11554" stroke-miterlimit="10" stroke-linecap="round"/>
<path d="M84.582 15.0063C91.6546 12.1728 99.0804 10.4958 106.852 11.2581C110.247 11.5928 113.59 12.3402 116.758 13.5003C116.803 13.5152 116.851 13.5301 116.896 13.5487C119.841 14.6345 122.968 16.0549 124.284 18.8661" stroke="#75284D" stroke-width="1.11554" stroke-miterlimit="10" stroke-linecap="round"/>
<path d="M86.0234 11.3806C93.2373 8.74046 101.02 7.69557 108.572 9.10115C108.937 9.16436 109.297 9.23873 109.658 9.31682C111.056 9.61802 112.451 9.9973 113.715 10.6443C114.979 11.2913 116.113 12.2247 116.783 13.4369" stroke="#75284D" stroke-width="1.11554" stroke-miterlimit="10" stroke-linecap="round"/>
<path d="M103.719 57.6358C108.319 57.3904 112.892 56.3901 117.098 54.4788C119.916 53.196 123.259 51.426 125.39 48.8825C126.223 47.886 126.874 46.7742 127.231 45.5285C127.807 43.5168 127.707 39.9917 125.342 39.0918" stroke="#75284D" stroke-width="1.11554" stroke-miterlimit="10" stroke-linecap="round"/>
<path d="M99.2695 13.9494C107.075 13.0384 115.333 14.113 122.198 17.9319C122.551 18.129 122.9 18.3335 123.246 18.5454C123.54 18.7277 123.834 18.9136 124.124 19.1069C125.027 19.7205 125.898 20.4344 126.637 21.3678C127.619 22.6023 128.367 24.2756 128.445 26.0419C128.519 27.8082 127.816 29.6228 126.608 30.188" stroke="#75284D" stroke-width="1.11554" stroke-miterlimit="10" stroke-linecap="round"/>
<path d="M82.3125 18.963C86.5404 17.2562 90.8167 15.5234 95.2974 14.5938" stroke="#75284D" stroke-width="1.11554" stroke-miterlimit="10" stroke-linecap="round"/>
<path d="M113.013 21.4886C117.301 23.8945 120.052 28.5314 119.703 33.6555C119.212 40.8061 112.857 46.1942 105.513 45.6922C98.169 45.1865 92.6136 38.9803 93.1044 31.8297C93.4242 27.1593 96.2465 23.24 100.207 21.2246" stroke="#75284D" stroke-width="1.11554" stroke-miterlimit="10" stroke-linecap="round"/>
<path d="M121.684 85.1747C122.692 84.2674 123.621 83.282 124.454 82.2297C126.44 79.7271 127.879 76.849 128.537 73.7404C128.567 73.6251 128.589 73.5098 128.612 73.3946C129.084 70.9627 129.017 68.3932 128.255 66.0431C128.203 65.8795 128.147 65.7196 128.087 65.5597C127.697 64.5074 127.161 63.5034 126.466 62.5849C124.135 59.5135 120.018 58.5727 116.456 59.9523C113.79 60.9823 111.566 62.5738 108.71 63.1836C106.167 63.7228 103.538 63.7228 100.994 63.1985C98.4696 62.6742 96.127 61.5512 93.6691 60.8112C90.7315 59.9337 87.5819 59.5879 84.5737 60.194C81.5654 60.8001 78.7171 62.4139 76.9917 64.883C75.8799 66.4708 75.2961 68.33 75.1622 70.2413C75.0135 72.3906 75.4337 74.6031 76.3112 76.5813C77.9548 80.2775 81.0077 83.2336 84.3878 85.5651C84.4324 85.5949 84.4733 85.6246 84.5179 85.6544C86.6858 87.1343 89.0396 88.3912 91.5049 89.3766" stroke="#75284D" stroke-width="1.11554" stroke-miterlimit="10" stroke-linecap="round"/>
<path d="M94.3203 90.294C99.608 91.9636 104.977 92.354 110.369 91.0935C113.508 90.3609 116.505 89.0111 119.141 87.1816" stroke="#75284D" stroke-width="1.11554" stroke-miterlimit="10" stroke-linecap="round"/>
<path d="M93.8047 87.7871C96.4485 88.7651 99.2523 89.3563 102.089 89.5125" stroke="#75284D" stroke-width="1.11554" stroke-miterlimit="10" stroke-linecap="round"/>
<path d="M82.8116 63.7637C79.9001 65.5783 78.5614 69.1146 78.9258 72.3719C79.2902 75.6293 81.1346 78.6078 83.4586 81.0583C85.6637 83.3786 88.3373 85.2974 91.286 86.7178" stroke="#75284D" stroke-width="1.11554" stroke-miterlimit="10" stroke-linecap="round"/>
<path d="M115.251 74.5273C118.709 76.9667 121.037 80.7893 121.487 85.1956C121.543 85.7162 121.569 86.2443 121.569 86.776C121.569 87.2185 121.55 87.6573 121.509 88.0886C120.844 95.7859 114.348 101.821 106.431 101.821C104.869 101.821 103.363 101.587 101.943 101.148C99.7413 100.471 97.7557 99.3073 96.1084 97.7827C93.7509 95.5962 92.0962 92.6698 91.5198 89.3715C91.3711 88.5274 91.293 87.661 91.293 86.776C91.293 84.4408 91.8396 82.1205 92.8919 80.0344C93.4051 79.023 94.0335 78.0673 94.7586 77.1935C95.1676 76.6989 95.625 76.249 96.0972 75.8177C96.272 75.6578 96.6067 75.3008 96.8781 75.2896C96.9562 75.2896 97.0269 75.3119 97.0901 75.3752C97.3727 75.6615 97.6739 76.0854 97.7148 76.4721C97.7557 76.8811 97.5363 77.3645 97.3652 77.7364C97.3132 77.8554 97.2277 77.9595 97.131 78.0636C96.9674 78.2347 96.7703 78.3908 96.6253 78.5582C95.8853 79.432 95.2606 80.4025 94.7772 81.4437C94.0037 83.1096 93.6059 84.9391 93.6059 86.776C93.6059 88.018 93.7843 89.219 94.119 90.3532C94.9371 93.1495 96.6959 95.5479 99.0311 97.1877C100.545 98.2512 102.3 98.9986 104.2 99.3296C104.925 99.456 105.669 99.5229 106.431 99.5229C112.406 99.5229 117.43 95.4586 118.851 89.9627C119.085 89.0703 119.219 88.1407 119.248 87.185C119.252 87.0475 119.256 86.9136 119.256 86.776C119.256 83.0501 117.761 79.6551 115.199 77.3236" stroke="#75284D" stroke-width="1.11554" stroke-miterlimit="10" stroke-linecap="round"/>
<path d="M96.8711 75.2485C96.8711 70.1542 100.969 66.3613 106.063 66.3613C110.8 66.3613 114.705 69.9311 115.222 74.5308C115.266 74.8766 115.285 75.2262 115.285 75.5831C115.285 76.1744 115.229 76.7507 115.121 77.3122C114.314 81.581 110.566 84.805 106.063 84.805C101.858 84.805 98.3101 81.9901 97.202 78.1415" stroke="#75284D" stroke-width="1.11554" stroke-miterlimit="10" stroke-linecap="round"/>
<path d="M103.351 82.6977C100.648 81.4557 98.7734 78.7226 98.7734 75.5508" stroke="#75284D" stroke-width="1.11554" stroke-miterlimit="10" stroke-linecap="round"/>
<path d="M98.7734 75.5482C98.7734 72.5734 100.424 69.9853 102.86 68.6504" stroke="#75284D" stroke-width="1.11554" stroke-miterlimit="10" stroke-linecap="round"/>
</g>
<defs>
<clipPath id="clip0_2774_15515">
<rect width="139.428" height="114.087" fill="white" transform="translate(0.820312 0.714844)"/>
</clipPath>
</defs>
</svg>
